<svg id="Layer_1" data-name="Layer 1" xmlns="http://www.w3.org/2000/svg" xmlns:xlink="http://www.w3.org/1999/xlink" viewBox="0 0 349.28 212.36"><defs><style>.cls-1{fill:none;}.cls-1,.cls-5{stroke:#fff;}.cls-1,.cls-2,.cls-3{stroke-miterlimit:10;}.cls-2,.cls-3,.cls-4,.cls-5{fill:#fff;}.cls-2,.cls-3{stroke-width:0.25px;}.cls-2{stroke:url(#linear-gradient);}.cls-3{stroke:url(#linear-gradient-2);}.cls-6{fill:#6c6c6c;}</style><linearGradient id="linear-gradient" x1="164.96" y1="-120.37" x2="455.13" y2="-120.37" gradientTransform="matrix(1, 0, 0, -1, -135.4, -84.76)" gradientUnits="userSpaceOnUse"><stop offset="0" stop-color="#fff"/><stop offset="0.47" stop-color="#b1b1b1"/><stop offset="1" stop-color="#fff"/></linearGradient><linearGradient id="linear-gradient-2" x1="164.98" y1="-244.87" x2="455.84" y2="-244.87" xlink:href="#linear-gradient"/></defs><rect class="cls-1" x="40.72" y="42.12" width="267.23" height="116.46"/><rect class="cls-1" x="38.91" y="40.6" width="270.89" height="119.49"/><path class="cls-2" d="M315.6,70.07H316a4.33,4.33,0,0,1,.72,0,4.8,4.8,0,0,1,2.86.87V32.24h-2a218.07,218.07,0,0,1-60.73-7.59A306.07,306.07,0,0,1,212.43,9.24C199.92,3.91,191.65.39,173.94.17c-19.09-.21-31,3.8-47.47,9.38A449.32,449.32,0,0,1,72.71,24.73,244.2,244.2,0,0,1,31.6,30l-1.92.08V70.33a5,5,0,0,1,1.67-.26,5.56,5.56,0,0,1,1,.1h1.28V33.91a249.07,249.07,0,0,0,40-5.31,452.77,452.77,0,0,0,54.19-15.3c16.7-5.66,27.71-9.39,46.14-9.17,16.92.21,24.47,3.42,37,8.75a310,310,0,0,0,44.89,15.69,223,223,0,0,0,59.78,7.75Z" transform="translate(0 -0.04)"/><path class="cls-3" d="M319.6,136.92c0-3.11-.05-5.63-.06-8.25a3.64,3.64,0,0,1-.57.25,5.08,5.08,0,0,1-2.11.43,4.62,4.62,0,0,1-.74-.06,5.61,5.61,0,0,1-.58,0c0,2.43,0,4.81.06,7.72.11,9.08.31,18.15.6,27a258.37,258.37,0,0,0-55.74,4,285.12,285.12,0,0,0-48.41,12.81c-12.33,4.3-20.44,7.16-38.09,7.07-18-.06-28.82-3.21-43.81-7.56A391.21,391.21,0,0,0,75.73,168a265.16,265.16,0,0,0-40.49-3.11H33.7v-35.6H32.37a4.85,4.85,0,0,1-2.67-.74v40.34h2a261.49,261.49,0,0,1,43.39,3A386.74,386.74,0,0,1,129,184.1c14.73,4.28,26.37,7.66,44.91,7.72h.59c17.91,0,26.71-3.07,38.83-7.3a282.13,282.13,0,0,1,47.82-12.64,253.84,253.84,0,0,1,57-3.8l2.16.1-.07-2.17C319.91,156.49,319.68,146.71,319.6,136.92Z" transform="translate(0 -0.04)"/><path class="cls-4" d="M32.28,133.32C10.56,133.32,0,121.86,0,98.26,0,76,10,66,32.28,66v4C12.2,70,4,78.19,4,98.26c0,21.19,9,31.06,28.28,31.06Z" transform="translate(0 -0.04)"/><path class="cls-4" d="M317,66v4c20.09,0,28.28,8.18,28.28,28.25,0,21-8.86,30.92-27.88,31.06H317v4c21.72,0,32.28-11.46,32.28-35.06C349.28,76,339.33,66,317,66Z" transform="translate(0 -0.04)"/><path class="cls-4" d="M76.66,115.42h33.5a2.77,2.77,0,0,0,1.88-.56,4.17,4.17,0,0,0,1-2h1.28v15h-1.28a4,4,0,0,0-1-2,2.77,2.77,0,0,0-1.88-.56H67.51a5.45,5.45,0,0,0-2.76.48,3.22,3.22,0,0,0-1.09,2.08H62.38V125.3a26.12,26.12,0,0,1,1.16-8.47,23.78,23.78,0,0,1,8.83-11.43,69,69,0,0,1,10.87-5.86L90,96.46A21.47,21.47,0,0,0,96.9,91.9,8.1,8.1,0,0,0,99,86.34a6.54,6.54,0,0,0-2.5-5.55q-2.5-1.91-7.28-1.91a21.58,21.58,0,0,0-10.84,2.85q-4.84,2.73-4.85,5.62a9.52,9.52,0,0,0,.64,2.52l-.88.93L62.6,79.24l1-.88a6.18,6.18,0,0,0,2.25.72A2.19,2.19,0,0,0,67,78.8a16.31,16.31,0,0,0,2-1.6q8.82-7.67,21.78-7.66,9.3,0,14.88,4.57a15.23,15.23,0,0,1,5.66,12.39,16.4,16.4,0,0,1-5.42,12.6A35.8,35.8,0,0,1,96.29,105l-6.18,2.77c-.67.32-2.12.93-4.37,1.84a41.13,41.13,0,0,0-5.86,2.75A11.88,11.88,0,0,0,76.66,115.42Z" transform="translate(0 -0.04)"/><path class="cls-4" d="M135.27,115.42a11.91,11.91,0,0,1,3.13-3,41.13,41.13,0,0,1,5.86-2.75c2.27-.91,3.72-1.53,4.37-1.84l6.18-2.77a38.83,38.83,0,0,0,8.26-4.83c1.2-5.36,3.36-10.6,3.1-16.15a4.3,4.3,0,0,1,2.33-4.25,15,15,0,0,0-4.35-5.7q-5.57-4.57-14.88-4.57-13,0-21.78,7.66a16.31,16.31,0,0,1-2,1.6,2.19,2.19,0,0,1-1.12.28,6.18,6.18,0,0,1-2.25-.72l-1,.88,10.67,11.52.88-.93a9.52,9.52,0,0,1-.64-2.52q0-2.89,4.85-5.62a21.58,21.58,0,0,1,10.84-2.85c3.18,0,5.6.64,7.28,1.91a6.54,6.54,0,0,1,2.5,5.55,8.1,8.1,0,0,1-2.1,5.56,21.47,21.47,0,0,1-6.88,4.56l-6.78,3.08a69,69,0,0,0-10.87,5.86A23.78,23.78,0,0,0,122,116.81a26.12,26.12,0,0,0-1.16,8.47v2.56h1.28a3.31,3.31,0,0,1,1.08-2.08,5.51,5.51,0,0,1,2.77-.48H166.8c-.44-3.32-1.66-6.5-2-9.87Z" transform="translate(0 -0.04)"/><path class="cls-4" d="M211.31,60a6.35,6.35,0,0,1,3-1.54V56.52H189.05v1.94a6.26,6.26,0,0,1,3,1.57,4.43,4.43,0,0,1,.85,2.79c.08,1.37.13,3.07.07,5.06H178.29q.09,6.72.16,13.42l8.57.08,5.88.06V132.9a4.22,4.22,0,0,1-.85,2.85,6.23,6.23,0,0,1-3,1.58v1.94h25.29v-1.94a6.15,6.15,0,0,1-3-1.58,4.22,4.22,0,0,1-.85-2.85V62.82A4.09,4.09,0,0,1,211.31,60Z" transform="translate(0 -0.04)"/><path class="cls-5" d="M258.86,134.67c1.51-3,3.48-5.77,4.77-8.84a1.42,1.42,0,0,1,.08-.18H249.53V103.09H272a24.08,24.08,0,0,1-.72-2.9c-.73-3.69-2.06-7.14-2.88-10.74H249.53V70.16h10.23a46.92,46.92,0,0,0-7-6.21c-1.24-.87-2.43-1.74-3.53-2.68-.15.11-.27.23-.43.33l-1.2.5a5,5,0,0,1-2.66,0s.66-1.84-.71-2.58-1.53,1.34-1.88.79a4.45,4.45,0,0,1-1-3.69v-.1H227.6v1.94a6.26,6.26,0,0,1,3,1.57,4.24,4.24,0,0,1,.85,2.85v70.05a4.24,4.24,0,0,1-.85,2.85,6.28,6.28,0,0,1-3,1.58v1.94h31.1A5.44,5.44,0,0,1,258.86,134.67Z" transform="translate(0 -0.04)"/><path class="cls-4" d="M286.21,96.6q7.43-3.52,7.42-11.55,0-7.18-4.85-11a14.83,14.83,0,0,0-5.7-2.73,36.92,36.92,0,0,0-8.58-.8H261.6a18.64,18.64,0,0,1,3.3,7,5.18,5.18,0,0,1,.09,2h7.91q4.78,0,6.78,1.47c1.33,1,2,2.62,2,4.91a5.82,5.82,0,0,1-2.13,5q-1.87,1.39-6.66,1.4h-5.21a4.91,4.91,0,0,1,.52,2.16c0,1.21-.08,2.41-.08,3.62a16.45,16.45,0,0,0,0,1.72l.2,1a3.35,3.35,0,0,1,.08.54h3.77q5.7,0,8.14,1.56c1.9,1.23,2.85,3.19,2.85,5.9s-1,4.69-2.85,5.9c-1.65,1-4.37,1.56-8.14,1.56H267.6a11.4,11.4,0,0,1-.84,9h8.1a35.39,35.39,0,0,0,8.88-1,17,17,0,0,0,6.32-3.07q5.38-4.24,5.38-11.75Q295.44,100.1,286.21,96.6Z" transform="translate(0 -0.04)"/><path class="cls-6" d="M261.19,138.24l9.89,9.88,4.27-4.06c6.37,6.41,12.68,12.78,19,19.13,9.23,9.26,18.51,18.45,27.69,27.76,6,6.08,5.53,14.41-.92,19.14a11.91,11.91,0,0,1-14.1,0,22.15,22.15,0,0,1-2.33-2L259,162.42c-.29-.29-.56-.62-1.16-1.3l4.47-3.53L252,147.24a59.46,59.46,0,0,1-79.55-88c21-21.66,55.21-24.52,80.11-4.7C274.21,71.76,284.51,108.7,261.19,138.24ZM215,147.86a47.22,47.22,0,1,0-47.27-47.24A47.22,47.22,0,0,0,215,147.86Z" transform="translate(0 -0.04)"/><path d="M180.33,84.73" transform="translate(0 -0.04)"/></svg>