<svg id="Layer_1" data-name="Layer 1" xmlns="http://www.w3.org/2000/svg" xmlns:xlink="http://www.w3.org/1999/xlink" viewBox="0 0 110.37 103.89"><defs><style>.cls-1{fill:url(#linear-gradient);}.cls-2{fill:url(#linear-gradient-2);}</style><linearGradient id="linear-gradient" x1="91.64" y1="200.83" x2="202.02" y2="200.83" gradientUnits="userSpaceOnUse"><stop offset="0" stop-color="#5f5ba8"/><stop offset="1" stop-color="#b887bc"/></linearGradient><linearGradient id="linear-gradient-2" x1="159.54" y1="222.81" x2="185.47" y2="222.81" gradientUnits="userSpaceOnUse"><stop offset="0" stop-color="#fff"/><stop offset="1" stop-color="#fff"/></linearGradient></defs><path class="cls-1" d="M146.85,157.85a16.92,16.92,0,0,1,9.13-5.28,29.57,29.57,0,0,1,6.16-.43c7.41.27,14.81.84,22.22,1a81.62,81.62,0,0,0,12-.86c3.39-.45,5.67,1.19,5.67,4.61q0,35.28,0,70.54c0,2.93-1.8,4.94-4.37,4.91s-4.24-2-4.24-4.87q0-31.72,0-63.46v-2.14a4.91,4.91,0,0,0-.88-.15c-6.77-.19-13.55-.35-20.32-.55-3.9-.12-7.81-.36-11.71-.42-5.64-.1-9.33,3.54-9.34,9.2q0,33.36,0,66.73c0,2.65,0,5.29,0,7.93s-1.3,4.45-3.65,4.9c-2.11.4-4-.83-4.85-3.39-.39-1.18-1.18-.89-1.92-.89q-15.94,0-31.9,0a16.62,16.62,0,0,1-13.35-6.41,16.05,16.05,0,0,1-3.81-10.47q0-35.7,0-71.39c0-3.22,2.2-5.34,5.12-4.67,6.21,1.44,12.45.93,18.7.59s12.29-.63,18.43-.73a16.48,16.48,0,0,1,12,4.86C146.17,157.25,146.47,157.5,146.85,157.85Zm-4.41,61.47c0-.57.08-1.19.08-1.81q0-23.44,0-46.88c0-6.7-3.47-10.08-10.16-9.88q-15.84.47-31.68,1c-.09,0-.17.12-.28.2a2.54,2.54,0,0,0-.09.48q0,24.32,0,48.61a8,8,0,0,0,2.56,5.84,9.19,9.19,0,0,0,6.92,2.48C120.58,219.29,131.38,219.32,142.44,219.32Zm-42,6.41c-1,6,3,11.29,9.54,10.86,2.29-.15,4.59,0,6.89,0,8,0,16,0,23.95,0,1.34,0,1.88-.36,1.75-1.74-.1-1.08,0-2.18,0-3.27,0-3.08-.55-3.63-3.6-3.63-8.67,0-17.34,0-26,0C108.66,228,104.39,228.17,100.41,225.73Z" transform="translate(-91.64 -152.11)"/><path class="cls-2" d="M159.56,226.81c0-5.46-.05-10.93,0-16.39a7.7,7.7,0,0,1,.89-3.42c2.69-4.94,5.53-9.8,8.26-14.72a4.42,4.42,0,0,1,8.15.13c2.55,4.88,5.18,9.73,7.69,14.64a7.51,7.51,0,0,1,.82,3.28q.1,16.29,0,32.59A13,13,0,0,1,161.59,250a12.43,12.43,0,0,1-2-7c0-2.71,0-5.41,0-8.11v-8.1Zm13.12-23.9c-1.29,2.28-2.47,4.12-3.4,6.08a9.82,9.82,0,0,0-1,3.87c-.1,6.2-.05,12.4,0,18.6,0,.61,0,1.21.08,1.78h8.4a5.92,5.92,0,0,0,.1-.78q0-10.43,0-20.85a2.7,2.7,0,0,0-.2-1.17C175.38,208.05,174.13,205.68,172.68,202.91Zm-4.34,39.19a4.1,4.1,0,0,0,1.82,4.56,4,4,0,0,0,4.53.08,4.4,4.4,0,0,0,2-4.64Z" transform="translate(-91.64 -152.11)"/></svg>