<svg xmlns="http://www.w3.org/2000/svg" xmlns:xlink="http://www.w3.org/1999/xlink" viewBox="0 0 428.82 431.22"><defs><style>.cls-1{fill:url(#linear-gradient);}.cls-2{fill:url(#linear-gradient-2);}.cls-3{fill:url(#linear-gradient-3);}.cls-4{fill:url(#linear-gradient-4);}.cls-5{fill:url(#linear-gradient-5);}</style><linearGradient id="linear-gradient" x1="743.26" y1="400.51" x2="1150.38" y2="400.51" gradientUnits="userSpaceOnUse"><stop offset="0" stop-color="#fff"/><stop offset="1" stop-color="#fff"/></linearGradient><linearGradient id="linear-gradient-2" x1="1119.49" y1="709" x2="1119.49" y2="381.9" gradientUnits="userSpaceOnUse"><stop offset="0" stop-color="#00611e"/><stop offset="1" stop-color="#00af1f"/><stop offset="1" stop-color="#222220"/></linearGradient><linearGradient id="linear-gradient-3" x1="889.61" y1="709" x2="889.61" y2="454.99" xlink:href="#linear-gradient-2"/><linearGradient id="linear-gradient-4" x1="1004.55" y1="709" x2="1004.55" y2="505.13" xlink:href="#linear-gradient-2"/><linearGradient id="linear-gradient-5" x1="774.66" y1="709" x2="774.66" y2="553.41" xlink:href="#linear-gradient-2"/></defs><g id="Layer_1" data-name="Layer 1"><path class="cls-1" d="M1102.47,282.2c-8.84,5.49-13.93,15.55-14.81,28.36-.45,8.23-5.09,16.46-32.27,57.86l-31.83,48-7.3-3c-12.6-5.49-22.32-3.66-32.93,6.17-4.42,4.35-4.87,4.35-33.6-9.6-27.85-13.5-29.18-14.64-29.18-21,0-9.38-7.51-21-16.36-25.39-21.66-10.52-44.87,3-46.19,27.22-.45,6.63-4,10.52-36,37.73-35.37,30-35.81,30.18-47.53,30.64-20.11.69-31.61,12.81-31.16,33.16.22,17.61,13.92,31.1,31.38,30.87,12.16-.23,20.34-4.8,26.75-15.32,4.2-7.09,4.64-15.09,1.55-34.53-.44-3.2,7.73-11.43,31.16-31.56,29.84-25.38,32-26.75,35.81-23.32,9.07,8.46,29,8,39.79-1.15,4.86-4.11,5.3-3.88,32.71,9.38,15.26,7.32,28.52,14.63,29.4,16.24a19,19,0,0,1,1.77,7.77c0,2.75,3.09,8.69,6.63,13,20.78,24.46,55.26,10.29,55.26-22.64,0-9.84,2.21-13.95,31.61-58.09,31.17-47.11,31.39-47.56,36.47-44.13,6.85,4.57,21.88,4.34,31-.46,21.44-11.44,21-46.65-.44-57.17C1123.91,276.26,1111.09,276.71,1102.47,282.2Zm26.3,17.61c4,3.66,5.31,13.49,2.21,18.07-5.75,9.14-21,8-24.53-1.83C1101.36,301.87,1117.94,289.75,1128.77,299.81ZM898.89,382.14c4,3.66,5.3,13.49,2.21,18.06-3.32,5.26-11.05,7.78-17,5.49-10.17-3.89-11.72-19.44-2.43-25.61C885.85,377.11,894.69,378,898.89,382.14ZM1013,432.22c10.16,7.32,4,26.07-8.63,26.07-11.93,0-17.9-17.84-8.62-25.61C1001.67,427.64,1006.54,427.42,1013,432.22ZM784,480.47c8.18,7.55,1.77,25.84-9.06,25.84-6.64,0-13.93-7.55-13.93-14.41C761,478.87,774.89,472,784,480.47Z" transform="translate(-732.67 -277.78)"/><path class="cls-2" d="M1081.47,384.33c-3.76,2.06-4,12.35-4,160.53,0,120.29.66,159.17,2.65,161.22,3.76,3.89,74.93,3.89,78.69,0,2-2.05,2.65-40.93,2.65-161.22,0-154.13-.22-158.47-4.2-160.76C1151.76,381.13,1086.55,381.13,1081.47,384.33Zm62.33,161V690.53h-48.63V400.11h48.63Z" transform="translate(-732.67 -277.78)"/><path class="cls-3" d="M848.93,458.65c-.66,2.06-1.32,57.86-1.32,124.18,0,90.78.66,121.2,2.65,123.25,3.76,3.89,74.93,3.89,78.69,0,2-2.05,2.65-32.47,2.65-123.25,0-66.32-.66-122.12-1.32-124.18-1.11-3.2-6.86-3.66-40.67-3.66S850,455.45,848.93,458.65Zm65,123.26V690.53H865.29V473.29h48.63Z" transform="translate(-732.67 -277.78)"/><path class="cls-4" d="M965.2,508.05c-3.76,3.88-3.76,194.15,0,198s74.93,3.89,78.69,0,3.76-194.15,0-198S969,504.16,965.2,508.05Zm63.66,99v83.46H980.23V523.6h48.63Z" transform="translate(-732.67 -277.78)"/><path class="cls-5" d="M736.65,555.84c-3.76,2.06-4,8.23-4,74.78,0,53.51.66,73.41,2.65,75.46,3.76,3.89,74.93,3.89,78.69,0,2-2.05,2.65-22,2.65-75.46,0-69.29-.22-72.72-4.2-75C806.94,552.64,741.73,552.64,736.65,555.84ZM799,631.08v59.45H750.35V571.62H799Z" transform="translate(-732.67 -277.78)"/></g></svg>