<svg id="Layer_1" data-name="Layer 1" xmlns="http://www.w3.org/2000/svg" xmlns:xlink="http://www.w3.org/1999/xlink" viewBox="0 0 97.49 50.5"><defs><style>.cls-1{fill:url(#linear-gradient);}.cls-2{fill:url(#linear-gradient-2);}.cls-3{fill:url(#linear-gradient-3);}</style><linearGradient id="linear-gradient" x1="960.63" y1="522.47" x2="960.63" y2="572.97" gradientTransform="matrix(1, 0, 0, -1, -911.96, 572.97)" gradientUnits="userSpaceOnUse"><stop offset="0.16" stop-color="#0a940a"/><stop offset="1" stop-color="#144e00"/></linearGradient><linearGradient id="linear-gradient-2" x1="996.17" y1="529.11" x2="996.17" y2="566.64" xlink:href="#linear-gradient"/><linearGradient id="linear-gradient-3" x1="929.23" y1="570.09" x2="929.23" y2="532.55" gradientTransform="matrix(-1, 0, 0, 1, 942.51, -525.67)" xlink:href="#linear-gradient"/></defs><polygon class="cls-1" points="28.55 50.5 57.59 0.01 68.78 0 40.04 50.5 35.7 50.5 63.58 3 58.93 3.01 32.38 50.5 28.55 50.5"/><polygon class="cls-2" points="97.49 25.1 97.49 22.16 70.93 6.33 70.93 18.08 90.85 29.06 74.25 39.01 74.51 34.93 84.21 29.31 81.15 27.01 70.93 32.97 70.93 43.86 97.49 29.31 74.25 16.03 74.25 12.2 97.49 25.1"/><polygon class="cls-3" points="0 25.65 0 28.59 26.55 44.42 26.55 32.67 6.64 21.69 22.99 12.46 22.98 15.82 13.27 21.44 16.34 23.74 26.55 17.78 26.55 6.88 0 21.44 22.84 34.49 23.23 38.54 0 25.65"/></svg>