<svg id="Layer_1" data-name="Layer 1" xmlns="http://www.w3.org/2000/svg" xmlns:xlink="http://www.w3.org/1999/xlink" viewBox="0 0 671.99 662.87"><defs><style>.cls-1{fill:url(#linear-gradient);}.cls-2{fill:url(#linear-gradient-2);}.cls-3{fill:url(#linear-gradient-3);}.cls-4{fill:url(#linear-gradient-4);}</style><linearGradient id="linear-gradient" x1="1362.78" y1="272.71" x2="1875.89" y2="272.71" gradientTransform="matrix(1, 0, 0, -1, -610.15, 908.25)" gradientUnits="userSpaceOnUse"><stop offset="0" stop-color="#0b0094"/><stop offset="1"/></linearGradient><linearGradient id="linear-gradient-2" x1="1203.91" y1="296.81" x2="1813.61" y2="296.81" gradientTransform="matrix(1, 0, 0, -1, -610.15, 908.25)" gradientUnits="userSpaceOnUse"><stop offset="0" stop-color="#9f0000"/><stop offset="0.18" stop-color="red"/><stop offset="0.23" stop-color="#ff0900"/><stop offset="0.3" stop-color="#ff2000"/><stop offset="0.39" stop-color="#ff4700"/><stop offset="0.5" stop-color="#ff7b00"/><stop offset="0.55" stop-color="#f90"/><stop offset="0.56" stop-color="#ff9b00"/><stop offset="0.74" stop-color="#ffbc00"/><stop offset="0.9" stop-color="#ffd000"/><stop offset="1" stop-color="gold"/></linearGradient><linearGradient id="linear-gradient-3" x1="1259.36" y1="545.26" x2="1436.97" y2="545.26" gradientTransform="matrix(1, 0, 0, -1, -610.15, 908.25)" gradientUnits="userSpaceOnUse"><stop offset="0" stop-color="#e0e0e0"/><stop offset="1" stop-color="#e0e0e0"/></linearGradient><linearGradient id="linear-gradient-4" x1="1408.71" y1="650.99" x2="1459.75" y2="650.99" gradientTransform="matrix(1, 0, 0, -1, -610.15, 908.25)" gradientUnits="userSpaceOnUse"><stop offset="0" stop-color="#cecece"/><stop offset="0.98" stop-color="#e3e3e3"/></linearGradient></defs><path class="cls-1" d="M1009.5,379.74a261.14,261.14,0,0,1,58.8,7.13c45.31,10.53,84.57,32.07,118.19,64a255.25,255.25,0,0,1-64.24,414.24,246,246,0,0,1-62.51,21.22c-14.63,2.8-29.69,3.63-44.61,4.64-18.17,1.23-36.26-.71-54.06-4.14A253.44,253.44,0,0,1,881.15,857a260.31,260.31,0,0,1-72.9-62.86c-1.14-1.42-1.57-3.42-2.33-5.14a31.6,31.6,0,0,1,4.59-1.3c15.5-2.07,31.14-3.38,46.48-6.29s30.39-7.11,45.44-11.25c11.53-3.17,23-6.62,34.22-10.84,16-6,31.72-12.63,47.4-19.38,28-12,54.21-27.43,79.64-44.06a573.76,573.76,0,0,0,71.2-55.45c30.24-27.4,56.28-58.37,79.3-92,2.92-4.26,3-9.48.29-11.87s-8.09-1.85-11.66,1.92c-10.64,11.22-20.79,22.9-31.63,33.91-27,27.43-56.13,52.48-88,74.22-35.17,24-72.19,44.88-111.43,61.56a589.93,589.93,0,0,1-76.21,26.55c-28.48,7.72-57.2,13.82-86.56,16.62-7.78.74-15.64.5-23.47.69-3.24.08-5.36-.92-7-4.29a278.69,278.69,0,0,1-20.3-59.22A255.2,255.2,0,0,1,893.2,407.47,262.8,262.8,0,0,1,955,385.65,259.72,259.72,0,0,1,1009.5,379.74Z" transform="translate(-593.76 -228.47)"/><path class="cls-2" d="M1203.46,551.9c-4.92,6.73-9.67,13.59-14.79,20.18a496.15,496.15,0,0,1-92.9,92.21c-23.15,17.48-47.34,34-72.69,48-25.92,14.31-53.5,25.85-81,37C922.9,757,902.84,763,882.75,768a424.54,424.54,0,0,1-95.29,13.16c-12.44.26-25.14-.21-37.36-2.36-51-9-92.35-34-122.66-76.54a181.23,181.23,0,0,1-28.73-63.63c-6.53-27.39-6.19-55-1.38-82.83a329.88,329.88,0,0,1,15.53-57.61c4.85-13.22,8.78-26.77,13.29-40.12,3.24-9.6,10.43-14.74,20.12-16.42,1.39-.24,3.4,1,4.58,2.14a84,84,0,0,1,5.8,6.83c5.75,6.84,12.26,12.42,20.9,15.64,8,3,9.92,10.42,4.84,17.61a39.07,39.07,0,0,1-9.06,9.13c-16.77,11.9-27.29,28.33-34.8,47-10.81,26.9-13.58,55-10,83.42,6.63,52.12,30.1,93.91,77.93,119.33,15.15,8.05,31.76,11.43,48.6,14.12,29.09,4.65,57.92,1.57,86.5-3.33,20.42-3.5,40.58-8.77,60.63-14.11,16.51-4.39,32.91-9.43,49-15.26a498.42,498.42,0,0,0,82.8-39c20.17-11.88,40.49-23.7,59.49-37.3,34.4-24.62,66.82-51.72,94.79-83.74,3.4-3.89,7-7.56,10.68-11.22a17.46,17.46,0,0,1,3.37-2.14C1202.69,551.1,1203.07,551.5,1203.46,551.9Z" transform="translate(-593.76 -228.47)"/><path class="cls-3" d="M794.6,263.17c2.52.93,4.18,1.13,5.28,2,8.47,6.93,16.83,14,25.22,21,2.45,2.05,2.1,3.89.13,6.33-26,32.28-52,64.46-77.47,97.13-5.07,6.51-7.85,14.89-11.15,22.64-6.3,14.8-12.18,29.78-18.3,44.67-2.47,6-4.27,6.23-8.43,1.26s-8.46-10.55-16-10.33a7.29,7.29,0,0,0-5.12,2.75c-1.92,2.84-3,6.22-4.52,9.37s-4.11,3.36-6.75,2.09c-7.84-3.78-15.12-8.29-20.17-15.77-2.61-3.88-2.9-6.95,1.33-9.66,1.12-.72,2.18-1.53,3.25-2.32,7.22-5.4,7.52-11.3.51-17.32a62.87,62.87,0,0,0-10-6.56c-4-2.32-4.33-3.37-.52-6.29,4.09-3.13,8.41-6,12.69-8.82,14.09-9.41,28.28-18.69,42.28-28.23a35.17,35.17,0,0,0,7-7q37.42-45.75,74.75-91.58C790.37,266.43,792.78,264.77,794.6,263.17Z" transform="translate(-593.76 -228.47)"/><path class="cls-4" d="M849.6,229.67c-3.08,19.49-10.9,37.43-19.16,56.38A56.37,56.37,0,0,1,825,281.3c-6.78-7.66-14.26-14.45-23.59-18.86-3.83-1.81-3.48-3.81-.55-5.71q17.55-11.34,35.32-22.34c3.74-2.3,7.88-4,11.83-5.92Z" transform="translate(-593.76 -228.47)"/></svg>