<svg xmlns="http://www.w3.org/2000/svg" xmlns:xlink="http://www.w3.org/1999/xlink" viewBox="0 0 1752.08 1028.68"><defs><style>.cls-1{fill:url(#linear-gradient);}.cls-2{fill:url(#linear-gradient-2);}.cls-3{fill:url(#linear-gradient-3);}.cls-4{fill:url(#linear-gradient-4);}.cls-5{fill:url(#linear-gradient-5);}</style><linearGradient id="linear-gradient" x1="156.28" y1="1093.6" x2="1055.39" y2="1093.6" gradientUnits="userSpaceOnUse"><stop offset="0" stop-color="#200040"/><stop offset="1" stop-color="#34006a"/></linearGradient><linearGradient id="linear-gradient-2" x1="901.47" y1="1088.25" x2="954.52" y2="1088.25" xlink:href="#linear-gradient"/><linearGradient id="linear-gradient-3" x1="1009.25" y1="1093.6" x2="1908.36" y2="1093.6" gradientUnits="userSpaceOnUse"><stop offset="0" stop-color="#34006a"/><stop offset="1" stop-color="#200040"/></linearGradient><linearGradient id="linear-gradient-4" x1="1057.68" y1="1056.43" x2="1057.68" y2="1056.43" xlink:href="#linear-gradient-3"/><linearGradient id="linear-gradient-5" x1="1122.98" y1="1191.86" x2="1122.98" y2="1191.86" xlink:href="#linear-gradient-3"/></defs><g id="Layer_2_copy" data-name="Layer 2 copy"><path class="cls-1" d="M946.24,1098.79l-8.09-4.67-36.68-21.18h0Q692.78,952.36,483.91,832.07c-7.5-4.31-17.67-7.43-25.89-6.24-13.55,2-16.95,13.65-16.93,26.38q.17,102,.05,204c0,31.92.19,63.85-.22,95.76-.05,4.38-1.75,10.85-4.87,12.73-28.8,17.34-58.07,33.89-88.7,51.53V644.5c4.26,2.25,8.11,4.14,11.81,6.27Q653.92,821,948.8,991l.09-.17L1055,1052.08q.12-16.77.34-33.53c.21-15.82-5.7-25.51-19.35-33.36Q689.14,785.84,342.73,585.64c-15.18-8.77-27.78-8.38-42.48.43-40,24-80.28,47.74-121.2,70.19-16.88,9.26-22.85,21.22-22.77,40.06.57,132.28.3,264.57.3,396.85q0,200.5-.19,401c0,15.91,4.71,26.6,19.38,34.74,42.83,23.78,85,48.81,127.24,73.61,12.41,7.28,24,7.13,36.46-.07Q688.33,1401,1037.39,1199.81c12.63-7.27,18.13-16.68,18-31.4q0-3.33-.07-6.67L951.45,1101.8ZM203.93,1445.35q-.06-367-.29-734c0-10.87,3.56-16.52,12.87-21.53,27.07-14.56,53.59-30.13,82.59-46.59v598.68c0,4.62-.15,9.26.06,13.87,1,21.72,17.49,31.21,36.6,20.39,42.23-23.91,84.17-48.32,126.26-72.47,44.48-25.52,89.09-50.81,133.39-76.63,7.19-4.19,12.46-4.88,20-.39,24.16,14.5,48.88,28.06,73.34,42,3.48,2,6.75,4.33,11.11,7.15L204.73,1461.47C204.39,1454.89,203.93,1450.12,203.93,1445.35Zm284.73-311.57v-81l69.75,40.71Zm232.1,193.58q-193.18,111.59-386.22,223.42c-9.72,5.65-16.58,5.43-26-.31-26-15.88-52.73-30.56-80.8-46.65,6.25-3.69,11.46-6.83,16.72-9.88Q497,1347.74,749.57,1201.46c5.92-3.43,12.19-7.24,16.41-12.4,9.76-11.94,5.15-28.29-10.23-37.3-29.1-17.07-58.45-33.71-87.68-50.56-56-32.32-112-64.85-168.2-96.79-8.63-4.9-12.46-10.06-12.21-20.38.74-30.93.27-61.9.27-95.68l495.86,287.1Z" transform="translate(-156.28 -579.26)"/><path class="cls-2" d="M938.15,1094.12l13.3,7.68c18.14,10.45-50-28.87-50-28.87Z" transform="translate(-156.28 -579.26)"/><path class="cls-3" d="M1908.06,1094q0-200.5.18-401c0-15.91-4.7-26.6-19.37-34.74-42.83-23.78-85-48.81-127.24-73.61-12.42-7.28-24-7.12-36.46.07q-348.86,201.51-697.93,402.66c-12.62,7.27-18.12,16.68-18,31.4q0,3.63.07,7.25l47.41,27.37V1053c21.87,12.55,41.78,23.91,61.62,35.37q231.1,133.49,462.34,266.72c7.49,4.31,17.66,7.43,25.89,6.24,13.55-2,17-13.65,16.93-26.38q-.18-102,0-204c0-31.92-.19-63.84.22-95.76,0-4.37,1.75-10.85,4.87-12.73,28.79-17.34,58.07-33.88,88.7-51.52v571.74c-4.26-2.25-8.11-4.13-11.82-6.27q-303.26-175.11-606.66-350l-.33.58-88.89-51.32q-.12,16.47-.33,33c-.22,15.82,5.7,25.51,19.34,33.36q346.91,199.37,693.31,399.55c15.18,8.78,27.78,8.38,42.48-.43,40-24,80.28-47.74,121.2-70.19,16.88-9.26,22.85-21.22,22.77-40.06C1907.79,1358.59,1908.06,1226.31,1908.06,1094Zm-331.35,204.82-495.87-287.1,263-151.91q193.17-111.58,386.22-223.42c9.72-5.65,16.58-5.43,26,.32,26,15.87,52.73,30.55,80.8,46.64-6.25,3.7-11.46,6.83-16.73,9.88Q1567.6,839.46,1315.06,985.73c-5.91,3.43-12.18,7.24-16.4,12.4-9.77,11.94-5.15,28.29,10.23,37.3,29.1,17.07,58.45,33.71,87.67,50.57,56,32.31,112,64.84,168.21,96.78,8.63,4.91,12.45,10.06,12.21,20.38C1576.24,1234.1,1576.71,1265.06,1576.71,1298.84Zm-70.48-205.11,69.75-40.31v81Zm341.9,403.62c-27.07,14.56-53.6,30.14-82.59,46.59V945.26c0-4.62.14-9.25-.06-13.87-1-21.72-17.49-31.21-36.6-20.39-42.23,23.91-84.18,48.32-126.27,72.47-44.47,25.52-89.08,50.81-133.38,76.63-7.19,4.19-12.46,4.88-20,.39-24.16-14.5-48.88-28.06-73.35-42-3.47-2-6.74-4.34-11.11-7.16L1859.9,725.73c.35,6.57.81,11.34.81,16.11q.06,367,.29,734C1861,1486.69,1857.44,1492.34,1848.13,1497.35Z" transform="translate(-156.28 -579.26)"/><path class="cls-4" d="M1057.68,1056.43" transform="translate(-156.28 -579.26)"/><path class="cls-5" d="M1123,1191.86" transform="translate(-156.28 -579.26)"/></g></svg>