<svg xmlns="http://www.w3.org/2000/svg" xmlns:xlink="http://www.w3.org/1999/xlink" viewBox="0 0 532.4 525.98"><defs><style>.cls-1,.cls-2,.cls-3,.cls-4{stroke-miterlimit:10;}.cls-1{fill:url(#linear-gradient);stroke:url(#linear-gradient-2);}.cls-2{fill:url(#linear-gradient-3);stroke:url(#linear-gradient-4);}.cls-3{fill:url(#linear-gradient-5);stroke:url(#linear-gradient-6);}.cls-4{fill:url(#linear-gradient-7);stroke:url(#linear-gradient-8);}</style><linearGradient id="linear-gradient" x1="1230.77" y1="383.51" x2="983.61" y2="383.51" gradientUnits="userSpaceOnUse"><stop offset="0" stop-color="#a70000"/><stop offset="1" stop-color="#150000"/></linearGradient><linearGradient id="linear-gradient-2" x1="1231.27" y1="383.51" x2="983.11" y2="383.51" gradientUnits="userSpaceOnUse"><stop offset="0" stop-color="red"/><stop offset="1" stop-opacity="0"/></linearGradient><linearGradient id="linear-gradient-3" x1="699.37" y1="676.28" x2="936.81" y2="676.28" gradientUnits="userSpaceOnUse"><stop offset="0" stop-color="#a70000"/><stop offset="1" stop-color="#1b0000"/></linearGradient><linearGradient id="linear-gradient-4" x1="698.87" y1="676.28" x2="937.31" y2="676.28" xlink:href="#linear-gradient-2"/><linearGradient id="linear-gradient-5" x1="818.19" y1="286.79" x2="818.19" y2="493.01" xlink:href="#linear-gradient"/><linearGradient id="linear-gradient-6" x1="818.19" y1="286.29" x2="818.19" y2="493.51" gradientUnits="userSpaceOnUse"><stop offset="0" stop-color="red"/><stop offset="0" stop-color="#e90000" stop-opacity="0.92"/><stop offset="0.1" stop-color="#d10000" stop-opacity="0.82"/><stop offset="0.2" stop-color="#ca0000" stop-opacity="0.72"/><stop offset="0.44" stop-color="#bc0000" stop-opacity="0.53"/><stop offset="1" stop-opacity="0"/></linearGradient><linearGradient id="linear-gradient-7" x1="1107.32" y1="796.47" x2="1107.32" y2="556.47" gradientUnits="userSpaceOnUse"><stop offset="0" stop-color="#a70000"/><stop offset="1" stop-color="#130000"/></linearGradient><linearGradient id="linear-gradient-8" x1="1107.32" y1="796.97" x2="1107.32" y2="555.97" xlink:href="#linear-gradient-2"/></defs><g id="Layer_1" data-name="Layer 1"><path class="cls-1" d="M1107.82,495.46c-31.39,0-62.77.06-94.16,0-27-.07-37.77-19.19-24.16-43.07q46.69-81.92,93.51-163.77c13-22.66,35-22.86,47.9-.44Q1178,370.42,1225,452.74c5.65,9.85,8.42,19.82,2.24,30.19-5.39,9-13.85,12.65-24.28,12.6C1171.26,495.35,1139.54,495.46,1107.82,495.46Z" transform="translate(-698.87 -270.99)"/><path class="cls-2" d="M818.14,796.46c-66,0-118.28-52.67-118.77-119.52-.49-67.25,52.72-121.11,119.37-120.85,66.32.27,118.21,53.43,118.07,121C936.67,743.62,884.11,796.51,818.14,796.46Z" transform="translate(-698.87 -270.99)"/><path class="cls-3" d="M818.12,425.07c-19.14,19.61-37.83,39-56.77,58.08-9.82,9.9-20.58,12.26-30.46,7.45-16.76-8.15-19.95-27.47-6.38-41.62q25.56-26.66,51.94-52.5c5.1-5,6-7.63.3-13.11-16.58-15.86-32.42-32.5-48.55-48.84-14.53-14.73-16-29.12-4.06-40.89,10.92-10.82,25.61-8.73,39.75,5.59,16.12,16.34,32.52,32.41,48.27,49.12,5,5.32,7.5,4.58,12.13-.28,16.54-17.34,33.55-34.21,50.42-51.21,12.11-12.2,27.43-13.41,37.7-3.09,11.26,11.33,10.56,25.67-2.27,38.85-15.77,16.22-31.76,32.23-47.66,48.33-9,9.1-9,9.07.4,18.48,16.64,16.76,33.44,33.38,49.77,50.45,8.6,9,9.86,21,4.36,30.42a26,26,0,0,1-27.27,12c-6.49-1.34-11.13-5.54-15.59-10.09C855.76,463.44,837.36,444.68,818.12,425.07Z" transform="translate(-698.87 -270.99)"/><path class="cls-4" d="M1107.43,556.48h88c15.49,0,24.7,9.8,24.7,26.33,0,46.58-.25,93.17.15,139.75.13,15.19-11.59,26.46-24.48,26-20.8-.7-41.64-.13-62.46-.26-2.84,0-3.79.7-3.65,3.82.25,5.56.22,11.14,0,16.69-.1,2.82.52,3.75,3.37,3.71,12.9-.18,25.81,0,38.71-.15,2.6,0,3.29.77,3.2,3.45-.18,5.95-.15,11.91,0,17.86.06,2.24-.62,2.75-2.64,2.75q-65.2-.09-130.41,0c-1.86,0-2.5-.47-2.46-2.55.13-6.08.16-12.16,0-18.24-.07-2.53.57-3.28,3-3.25,12.91.13,25.82,0,38.72.14,3,.05,3.66-.95,3.55-3.9-.21-5.56-.22-11.13,0-16.69.12-3-.73-3.65-3.45-3.63-21.31.13-42.62.08-63.93.07-13.34,0-23-10.16-23-24.39q-.08-72,0-144c0-13.33,10-23.46,23.22-23.49,28.37-.08,56.74,0,85.11,0Z" transform="translate(-698.87 -270.99)"/></g></svg>