<svg id="Layer_1" data-name="Layer 1" xmlns="http://www.w3.org/2000/svg" xmlns:xlink="http://www.w3.org/1999/xlink" viewBox="0 0 259.52 379.19"><defs><style>.cls-1{fill:url(#linear-gradient);}.cls-2{fill:url(#linear-gradient-2);}.cls-3{fill:url(#linear-gradient-3);}.cls-4{fill:url(#linear-gradient-4);}.cls-5{fill:url(#linear-gradient-5);}.cls-6{fill:url(#linear-gradient-6);}.cls-7{fill:url(#linear-gradient-7);}.cls-8{fill:url(#linear-gradient-8);}.cls-9{fill:url(#linear-gradient-9);}</style><linearGradient id="linear-gradient" x1="516.5" y1="57.34" x2="516.5" y2="543.72" gradientUnits="userSpaceOnUse"><stop offset="0" stop-color="#5dff00"/><stop offset="0.09" stop-color="#48e52d"/><stop offset="0.19" stop-color="#35cd57"/><stop offset="0.3" stop-color="#25b97b"/><stop offset="0.42" stop-color="#17a899"/><stop offset="0.53" stop-color="#0d9baf"/><stop offset="0.66" stop-color="#0692bf"/><stop offset="0.81" stop-color="#018dc9"/><stop offset="1" stop-color="#008bcc"/></linearGradient><linearGradient id="linear-gradient-2" x1="466.86" y1="57.34" x2="466.86" y2="543.72" xlink:href="#linear-gradient"/><linearGradient id="linear-gradient-3" x1="573.12" y1="57.34" x2="573.12" y2="543.72" xlink:href="#linear-gradient"/><linearGradient id="linear-gradient-4" x1="441.16" y1="57.34" x2="441.16" y2="543.72" xlink:href="#linear-gradient"/><linearGradient id="linear-gradient-5" x1="505.16" y1="57.34" x2="505.16" y2="543.72" xlink:href="#linear-gradient"/><linearGradient id="linear-gradient-6" x1="581.66" y1="57.34" x2="581.66" y2="543.72" xlink:href="#linear-gradient"/><linearGradient id="linear-gradient-7" x1="465.03" y1="57.34" x2="465.03" y2="543.72" xlink:href="#linear-gradient"/><linearGradient id="linear-gradient-8" x1="553.13" y1="57.34" x2="553.13" y2="543.72" xlink:href="#linear-gradient"/><linearGradient id="linear-gradient-9" x1="516.13" y1="57.34" x2="516.13" y2="543.72" xlink:href="#linear-gradient"/></defs><path class="cls-1" d="M495.36,92.51c-23.9,3.9-47.8,15.5-66.4,32.3-19.1,17.2-31.5,37.9-38.9,64.7-4.6,16.6-4.4,46.5.5,65.5,4,15.6,15.2,37.8,23.3,46.2l4.7,4.8h97.8c90.9-.1,97.9-.2,99.8-1.8,5.5-4.6,15.6-21.2,20.5-33.6,19.2-48.8,9.2-101.9-26.3-139.3-17.7-18.6-40.6-31.2-68.1-37.4C530.26,91.21,507.56,90.51,495.36,92.51Zm33.5,13.5c16.1,1.6,17.7,2.2,24.8,10.2,5.5,6.1,6.3,7.5,6.7,11.6a124.68,124.68,0,0,0,2.6,14.6l2.2,9.8,7.6-.5c6.5-.4,9.3-1.2,17.9-5.3l10.3-4.8,4.2,4.8c4.6,5.3,14.4,20.3,15.1,23.3.4,1.3-.8,2.7-4,5.1-7.4,5.1-8.8,8.2-8.3,17.7a40.64,40.64,0,0,0,3.1,14.2c3,7.2,3.2,10.6,1.1,15.6a26.55,26.55,0,0,0-1.5,8.2c0,3.8.5,5.2,2.9,7.6,2.7,2.6,3.6,2.9,9.5,2.9h6.6v3.6c0,7.7-9,29.7-17.2,41.6l-3.9,5.8H423.66l-4.8-7.3c-7.9-12.2-18-39.4-17-45.9.2-1.5,2.9-3.2,10.2-6.4,11.5-5,13.8-6.8,13.4-10.3-.2-2-1.1-2.8-4.1-3.6-2.1-.6-4.2-1.7-4.6-2.4a21.1,21.1,0,0,0-4.6-3.5c-3.3-1.8-4.1-3-5.8-8.6a48.8,48.8,0,0,1-2-11.5c0-9.5,11.5-33,21.7-44.2l4.4-4.8,1.2,3c.6,1.6,3,9.7,5.2,18,5.1,19.2,8.6,25.8,19.9,37.9,10.3,10.9,12,11.7,23,9.6,12.3-2.3,18,2,19.3,14.6.7,6.4,1,7.1,5.7,12.1,8.5,9,9.7,14.8,5.3,26.8-3.6,9.8-3.8,11-1.9,12.8,2.1,2.2,4.6.9,7.3-3.7,1.2-2,4.5-4.9,8.3-7.1,7.4-4.3,25.1-20.7,29.7-27.5a23.91,23.91,0,0,0,3.8-9.4c.6-4.2.5-4.5-1.7-5-18.9-3.9-18-3.6-23.4-8.7L527,212h-10.2c-14.1,0-18.4-2.3-24.1-12.8l-2.5-4.7h-14l-.3-3.7c-.5-6.1,2.1-7.8,12-7.8,9.7,0,11.8-1.3,11.8-7.1,0-3.4.5-4.1,6.3-8.2,3.4-2.5,8.3-6.4,11-8.7,4-3.6,4.7-4.7,4.7-7.9,0-2.5-1-5.3-3.1-8.5-4.9-7.3-7.7-8.1-17.9-4.5-7.5,2.6-10.5,2.3-10.5-1.1,0-2.1,1.1-3,6.3-5.5,8.4-4,9.3-5.7,5.2-9.5s-8.1-4.1-19.5-1.4c-8.5,2-27,3.1-26.1,1.5,1.2-1.9,13.4-7.6,23.7-11C497.06,105.31,509.06,104.11,528.86,106Z" transform="translate(-386.74 -91.36)"/><path class="cls-2" d="M440.36,328c-9.2.4-17.2,1.1-17.7,1.6-1.8,1.8-2.2,6.8-.6,8.9,1.4,1.9,2.8,2,46,2.3l44.6.3V327l-27.7.2C469.66,327.31,449.56,327.61,440.36,328Z" transform="translate(-386.74 -91.36)"/><path class="cls-3" d="M534.66,334.61v6.6l36.3-.4c19.9-.2,37-.8,38-1.2,4.5-2.1,2.9-9.9-2.3-11-1.8-.3-18.7-.6-37.6-.6h-34.4Z" transform="translate(-386.74 -91.36)"/><path class="cls-4" d="M436.66,363.11c-4.8,1.5-6,2.7-6,6,0,4.2,3.5,6,13,6.6l8,.6v-5c0-2.7-.6-5.6-1.2-6.5C448.86,362.71,441.16,361.81,436.66,363.11Z" transform="translate(-386.74 -91.36)"/><path class="cls-5" d="M473.66,369v7h63V362h-63Z" transform="translate(-386.74 -91.36)"/><path class="cls-6" d="M559.66,369.31V377l15.3-.1c24.5-.1,28.7-1.3,28.7-7.9,0-5.5-1.9-6.1-23.9-6.7l-20.1-.6Z" transform="translate(-386.74 -91.36)"/><path class="cls-7" d="M447.36,397.71c-6.7.4-6.9.4-8.3,3.9-1.7,4-1.1,6.9,1.6,8.4,1.1.6,13,1.3,26.6,1.7l24.7.6-.7-6.9a51.25,51.25,0,0,0-1-7.1C489.76,397.81,454,397.31,447.36,397.71Z" transform="translate(-386.74 -91.36)"/><path class="cls-8" d="M520,398.71c-5.6.4-6.3.6-6.9,2.7a17.88,17.88,0,0,0-.2,5.2l.3,2.9,32.5.3c17.9.1,35.9-.1,40-.5,7.5-.8,7.5-.8,7.8-3.9a5,5,0,0,0-1.3-4.4C589.86,399.11,541.16,397.51,520,398.71Z" transform="translate(-386.74 -91.36)"/><path class="cls-9" d="M466.66,437.71c-12.4.5-13.7,2.3-7.2,9.4,11,12.3,29.6,21.2,47.8,23,18.8,1.7,34.5-1.5,49.9-10.4,12.5-7.2,19.5-14.3,19.5-19.6,0-2.1-.3-2.1-18.8-2.1-10.4,0-33-.2-50.3-.4S471.86,437.41,466.66,437.71Z" transform="translate(-386.74 -91.36)"/></svg>