<svg id="Layer_1" data-name="Layer 1" xmlns="http://www.w3.org/2000/svg" xmlns:xlink="http://www.w3.org/1999/xlink" viewBox="0 0 456.31 457.4"><defs><style>.cls-1{fill:url(#linear-gradient);}.cls-2{stroke-miterlimit:1;stroke-width:0.1px;fill:url(#linear-gradient-2);stroke:url(#linear-gradient-3);}.cls-3{fill:url(#linear-gradient-4);}.cls-4{fill:url(#linear-gradient-5);}.cls-5{fill:url(#linear-gradient-6);}.cls-6{fill:url(#linear-gradient-7);}.cls-7{fill:url(#linear-gradient-8);}.cls-8{fill:url(#linear-gradient-9);}.cls-9{fill:url(#linear-gradient-10);}.cls-10{fill:url(#linear-gradient-11);}.cls-11{fill:url(#linear-gradient-12);}.cls-12{fill:url(#linear-gradient-13);}.cls-13{fill:url(#radial-gradient);}.cls-14{fill:url(#linear-gradient-14);}.cls-15{fill:url(#linear-gradient-15);}.cls-16{fill:url(#linear-gradient-16);}</style><linearGradient id="linear-gradient" x1="70666.27" y1="35094.37" x2="116307.88" y2="35094.37" gradientTransform="translate(-0.31 101.86) rotate(-0.04) scale(0.01)" gradientUnits="userSpaceOnUse"><stop offset="0" stop-color="#f30000"/><stop offset="1" stop-color="#2c26bd"/></linearGradient><linearGradient id="linear-gradient-2" x1="102596.55" y1="30556.67" x2="106989.48" y2="30556.67" gradientTransform="translate(0 101.2) scale(0.01)" gradientUnits="userSpaceOnUse"><stop offset="0" stop-color="#f30000"/><stop offset="0.55" stop-color="#661b86"/><stop offset="1" stop-color="#2c26bd"/></linearGradient><linearGradient id="linear-gradient-3" x1="10254.66" y1="3147.67" x2="10299.59" y2="3147.67" gradientTransform="translate(0 92) scale(0.1)" xlink:href="#linear-gradient"/><linearGradient id="linear-gradient-4" x1="96080.78" y1="47750.33" x2="100584.35" y2="47750.33" gradientTransform="translate(0 101.2) scale(0.01)" xlink:href="#linear-gradient"/><linearGradient id="linear-gradient-5" x1="88168.7" y1="19845.92" x2="88258.94" y2="19845.92" gradientTransform="translate(0 101.2) scale(0.01)" gradientUnits="userSpaceOnUse"><stop offset="0" stop-color="#f30000"/><stop offset="0" stop-color="#ae0000"/><stop offset="1" stop-color="#ab0000"/><stop offset="1" stop-color="#4d0000"/><stop offset="1" stop-color="#fa0000"/></linearGradient><linearGradient id="linear-gradient-6" x1="98050.84" y1="17579.41" x2="98078.87" y2="17579.41" gradientTransform="translate(0 101.2) scale(0.01)" gradientUnits="userSpaceOnUse"><stop offset="0" stop-color="#f30000"/><stop offset="1" stop-color="red"/><stop offset="1" stop-color="#5d0000"/></linearGradient><linearGradient id="linear-gradient-7" x1="85515.13" y1="17824.32" x2="85529.68" y2="17824.32" gradientTransform="translate(0 101.2) scale(0.01)" gradientUnits="userSpaceOnUse"><stop offset="0" stop-color="#f30000"/><stop offset="0" stop-color="red"/><stop offset="1" stop-color="#5d0000"/></linearGradient><linearGradient id="linear-gradient-8" x1="80138.94" y1="20989.49" x2="80183.88" y2="20989.49" xlink:href="#linear-gradient-6"/><linearGradient id="linear-gradient-9" x1="77478.88" y1="24392.12" x2="77493.86" y2="24392.12" xlink:href="#linear-gradient-7"/><linearGradient id="linear-gradient-10" x1="85189.3" y1="24401.14" x2="85203.15" y2="24401.14" xlink:href="#linear-gradient-7"/><linearGradient id="linear-gradient-11" x1="73732.26" y1="33633.17" x2="75240.41" y2="33633.17" gradientTransform="translate(0 101.2) scale(0.01)" gradientUnits="userSpaceOnUse"><stop offset="0" stop-color="#900"/><stop offset="0" stop-color="#f30000"/><stop offset="0" stop-color="#ab0000"/><stop offset="0.97" stop-color="#900"/></linearGradient><linearGradient id="linear-gradient-12" x1="79083.75" y1="33996.16" x2="79119.02" y2="33996.16" xlink:href="#linear-gradient-7"/><linearGradient id="linear-gradient-13" x1="82040.63" y1="32851.46" x2="82054.85" y2="32851.46" xlink:href="#linear-gradient-7"/><radialGradient id="radial-gradient" cx="89641.63" cy="27526.05" fx="89631.1966716413" fy="27536.141211338258" r="14.51" gradientTransform="translate(0 101.2) scale(0.01)" xlink:href="#linear-gradient-6"/><linearGradient id="linear-gradient-14" x1="100667.61" y1="40057.48" x2="105125.66" y2="40057.48" gradientTransform="translate(0 101.2) scale(0.01)" xlink:href="#linear-gradient"/><linearGradient id="linear-gradient-15" x1="75962.49" y1="41907.98" x2="75975.46" y2="41907.98" xlink:href="#linear-gradient-7"/><linearGradient id="linear-gradient-16" x1="84278.5" y1="49935.16" x2="84291.01" y2="49935.16" xlink:href="#linear-gradient-7"/></defs><path class="cls-1" d="M893.33,226c-23.84,3.42-40.86,9-67.37,21.94-28,13.88-46.68,28.49-44.24,34.81,2.43,6.57,10.46,4.86,22.86-4.64,14.59-11.2,38.9-23.37,60.3-30.2,25.78-8.29,75.41-9.54,103.63-3,22.87,5.58,41.36,13.1,57.91,23.31l10.71,6.8L1005,307.12c-23.82,23.86-31.6,33.35-30.38,36.27a6.63,6.63,0,0,0,5.6,4.13c2.19,0,18.72-14.85,36.7-32.86s33.79-32.87,35.25-32.87c3.16,0,52.33,49.1,52.34,52.26,0,1.46-5.83,8.52-13.13,15.58l-12.88,12.9-8.27-4.37c-19-9.72-47.68-2.89-62.51,14.88-12.64,15.58-15.54,33.34-8.48,53l4.15,11.67-12.64,12.66-12.64,12.65L950.88,435.6l-27.5-27.23,22.85-22.88c19.69-20,22.6-23.61,19.68-26.77-1.7-2.19-4.38-3.89-5.84-3.89-3.65,0-54.94,51.61-54.94,55,0,1.71,1.71,4.14,3.66,5.84,3.41,2.92,2.92,4.37-4.86,12.16-8.75,9-10.69,16.31-5.58,21.41,1.95,1.95.49,5.11-6.07,12.66-5.1,5.35-9,10.71-9,11.68,0,2.43,27.51,29.66,29.94,29.66,1,0,6.08-3.9,11.42-9,7.54-6.58,10.7-8,12.65-6.09,5.11,5.1,12.41,3.15,21.4-5.61,7.78-7.79,9.24-8.28,12.16-4.88,1.7,1.95,4.38,3.65,5.84,3.65s10.21-7.55,19.45-16.8l16.53-16.8,12.65,5.83c6.81,3.16,17,5.83,22.63,5.83,9.24,0,10.46.72,12.16,6.55,1.22,3.9,2,15.57,2,26.27,0,16.3-1,21.65-6.55,32.85-3.64,7.3-10.2,17-14.82,21.41l-8.26,8-4.39-10c-17.78-39.4-74.46-41.55-93.65-3.59-3.4,6.82-6.32,12.66-6.81,13.14-1,1.95-12.9-10.45-18.25-19.2-2.68-4.62-6.33-9.24-7.55-10.21-4.62-3.16-97.55-2.12-100.71,1-6.56,6.57-.22,28.95,10.73,38.67,14.37,12.64,33.83,15.55,33.82,5.09,0-4.63-2.19-6.57-9.74-9.24-9.24-2.91-20.68-13.12-20.69-18.23,0-1.22,16.54-2.2,39.9-2.22l39.89,0,5.36,8.51c2.92,4.62,10.22,12.4,16.06,17.26l10.71,8.75v16.79l0,16.78L917,602.73c-5.84-2.91-18.26-12.88-28-22.12-17.53-17.25-25.32-20.17-27-10.68-1.46,6.57,31.4,37.44,50.14,47.16,10.95,5.83,15.09,9.47,15.09,12.88,0,4.86-1.21,4.86-33.56,4.16l-33.33-.71-25.55-12.63c-14.11-7-32.36-18.71-40.88-25.76-32.62-27.95-56.73-66.85-66.49-107.47C720.54,458.38,721.72,409,730,383c6.79-21.41,18.94-45.74,30.36-60.59,9.48-12.65,10.69-22.14,2.42-22.14-11.44,0-41.32,53.31-49.56,88.83C703,433.33,704.49,467.87,718.39,510c20.72,62.74,73.05,115.25,135.34,135.39l12.65,4.37v12.65c0,7.06,1.23,13.87,2.93,15.57,2.19,2.19,30.41,2.9,111.9,2.84,105.08-.08,109-.32,111.4-4.7,3.41-6.57,3.14-35-.51-38.68-1.95-1.94-12.16-2.91-30.41-2.9l-27.48,0v-5.84c0-4.13,1.7-6.56,5.35-7.78,8.27-2.69,28.2-15.35,29.42-19,.73-1.94,0-5.35-1.71-7.78-2.92-3.89-4.14-3.65-17.51,4.63l-14.35,8.77-.74-17-.74-17,13.37-12.18c19.45-17.77,28.68-37.72,30.12-64.48.72-12.4,0-24.81-2-31.62-2.93-10.21-2.93-11.19,2.18-14.6a134.1,134.1,0,0,0,11.42-10.22c5.11-5.6,6.32-6.09,8.27-2.93,6.58,10,11,31.62,11,53.51-.23,26.51-5.57,46.22-19.17,67.88-8.26,13.39-9,18.25-2.42,20.68,5.59,2.18,14.59-9.26,25-31.16,22.1-47,28.41-75.18,26.19-120.18-2.22-44.27-12-71.51-22.18-61.28-3.16,3.16-2.92,5.84,1.23,20.67,3.41,11.43,5.37,26.76,6.12,47.43l1.23,30.41-7.06-19.46c-3.66-10.7-8.53-22.13-10.73-25.53-1.94-3.41-4.38-11.19-5.36-17.76-.73-6.32-3.66-16.05-6.58-21.4L1089.49,371l17.26-17.28c9.48-9.5,17.26-19,17.26-20.94s-2.68-6.32-6.09-9.72l-6.09-6.56,4.87-4.39c4.13-3.89,6.07-4.14,9.72-1.71,2.68,1.7,6.33,2.92,8,2.92,3.65,0,28.45-24.59,28.44-28s-58.91-62-62.07-62c-3.65,0-28,25.07-28,28.72,0,1.7,1.22,5.11,2.92,7.78,2.44,3.65,2.2,5.6-1.69,9.73l-4.38,4.87-6.57-6.08c-3.41-3.4-8.76-6.07-11.68-6.07s-10.71-3.15-17-7.28C995.74,231.48,938.57,219.6,893.33,226Zm244.76,64.77-5.35,5.84-21.42-21.39L1089.9,254l5.34-5.6,5.35-5.85L1122,264l21.42,21.14Zm-31.62,9.75-5.35,5.6-10.47-10.21-10.46-10.2,5.35-5.6,5.34-5.6,10.47,10.21,10.47,10.21Zm-38.87,73.74c26,16,22.91,56.17-5.3,66.9-19.94,7.79-39.41-.46-48.18-19.92-3.41-8-4.39-13.37-3.18-20.43,1.7-10.46,13.12-25.55,21.63-29C1042.06,367.91,1059.33,369.11,1067.6,374.22ZM950.91,468.44l-5.35,5.84L929,457.75l-16.55-16.29,5.34-5.59,5.35-5.85,16.55,16.53,16.56,16.29Zm-32.35.75c4.38,4.86,4.38,5.1-.73,10.46l-5.34,5.11-5.36-5.1c-5.11-5.35-5.11-5.59-.74-10.46,2.43-2.68,5.11-4.87,6.08-4.87S916.12,466.52,918.56,469.19ZM990.36,530c4.86,1.21,12.41,6.32,17,10.94l8.52,8.75.77,57.16.77,56.92-37.94,0-38,0,.69-55.46c.69-53.76.93-55.46,6.52-63.49,5.59-7.79,21.64-17,29.42-17.29C980.14,527.53,985.73,528.74,990.36,530ZM927.2,656.49v7.29l-23.11,0-23.11,0v-14.6l23.11,0H927.2Zm150.82-.11v7.3h-21.89l-21.89,0v-14.6h21.89l21.89,0Z" transform="translate(-706.59 -223.37)"/><path class="cls-2" d="M1032.29,390.35c-4.62,4.37-6.32,8.27-6.32,15.08,0,17.51,12.89,27.73,28.21,22.62,16.79-5.59,20.92-24.08,8.52-36.73C1053.45,382.08,1041.53,381.83,1032.29,390.35Zm20.43,12.16c4.14,4.86,1.22,10.94-4.86,10.94-5.6,0-8.52-5.35-6.33-10.94C1043.24,397.89,1048.83,397.89,1052.72,402.51Z" transform="translate(-706.59 -223.37)"/><path class="cls-3" d="M969.84,560.69c-8,5.59-10.94,14.59-7.78,24.32,3.4,10.22,10.7,15.57,21.4,15.57,10.22,0,22.38-11.19,22.38-20.67,0-8-5.83-19.71-10.94-21.65C987.6,555.58,975.44,556.8,969.84,560.69ZM990.28,575c1.7,4.38-3.17,11-8,11-4.14,0-6.57-5.84-4.62-11C979.33,570.18,988.57,570.42,990.28,575Z" transform="translate(-706.59 -223.37)"/><path class="cls-4" d="M921.46,256.58c-1,1-1.7,4.38-1.7,7.3,0,8.51-7.3,11.43-13.62,5.59-2.92-2.92-6.81-4.13-9-3.16-5.11,1.94-5.35,11.43-.73,15.57,4.86,3.89,2.19,9.73-4.62,9.73-13.14,0-13.63,15.08-.49,16.54,7.3,1,10.22,6.32,5.11,10.21-4.63,4.14-4.38,13.63.73,15.57,2.19,1,6.08-.48,9.24-3.4,4.14-3.9,5.84-4.38,9-1.71,2.19,1.46,4.38,5.6,4.87,9,.48,4.63,2.18,6.08,6.81,6.08,5.1,0,6.32-1.21,6.81-8,1-8.76,4.62-10,13.86-3.89,4.87,3.16,6.81,3.4,9.73,1,4.62-3.89,4.62-7.06-.24-12.41-5.35-5.84-2.92-10.94,5.84-12.65,3.89-.73,7.78-3.16,8.51-5.1,1.95-4.63-4.38-11.19-10.7-11.19-6.57,0-8.52-6.57-3.65-11.92s4.86-8.52.24-12.41c-2.92-2.43-4.86-2.19-9.73,1-9.24,6.08-12.89,4.87-13.86-4.13-.49-5.6-2-8-5.6-8.52C925.35,255.12,922.44,255.6,921.46,256.58Zm15.33,32.59c2.67,2.68,4.86,7.54,4.86,10.95,0,7.05-7.78,15.81-14.11,15.81-8.27,0-15.08-7.05-15.08-15.81C912.46,286.25,927.06,279.44,936.79,289.17Z" transform="translate(-706.59 -223.37)"/><path class="cls-5" d="M981.55,273.12c-3.17,8.51.73,11.43,14.1,10.7,11.92-.73,12.9-1.21,12.9-6.81s-1-6.08-12.9-6.81C985.92,269.71,982.52,270.44,981.55,273.12Z" transform="translate(-706.59 -223.37)"/><path class="cls-6" d="M855.54,276c-1.7,4.62,2.43,10.7,7.3,10.7,3.89,0,8-7.3,6.57-11.68C867.7,270.69,857.24,271.42,855.54,276Z" transform="translate(-706.59 -223.37)"/><path class="cls-7" d="M833.16,300.12c-1,2.19-4.62,3.65-10,3.65-13.87,0-24.57,9-21.16,18,1.94,5.11,12.16,5.11,14.1,0,1-2.68,3.17-3.41,6.82-2.68,8,2.19,20.92-4.38,22.86-11.43.73-3.41.73-7.3-.24-8.51C843.38,295.25,834.62,296,833.16,300.12Z" transform="translate(-706.59 -223.37)"/><path class="cls-8" d="M776.49,341.23c-3.9,4.86-.73,11.19,5.83,11.19,3.17,0,6.33-1.7,7.06-3.89,1.7-4.63-2.44-10.71-7.06-10.71C780.62,337.82,777.94,339.28,776.49,341.23Z" transform="translate(-706.59 -223.37)"/><path class="cls-9" d="M852.62,341.47c-2.19,5.6.73,10.95,6.33,10.95,6.08,0,9-6.08,4.86-10.95C859.92,336.85,854.33,336.85,852.62,341.47Z" transform="translate(-706.59 -223.37)"/><path class="cls-10" d="M804.46,367.5a23.14,23.14,0,0,0-3.89,11.92c0,4.62-1.46,6.81-5.35,7.78-6.81,1.95-9.25.25-9.25-6.57,0-7.05-5.35-11.91-10.7-9.73-4.38,1.71-5.35,16.79-1.7,22.87,2.92,4.38.73,8.27-2.92,5.11q-4.74-3.64-18.25-2.92c-4.62.24-5.59,1.46-4.86,6.81.48,5.84,1.94,7.05,8.76,7.54,7.05.73,8,1.46,6.81,6.08a51.43,51.43,0,0,0-1.46,7.06c0,1.21-2.92,1.94-6.81,1.94-8.52,0-17.52,6.08-17.52,11.92s6.33,8.27,12.17,5.11c7-3.65,9-2.92,10.94,4.13,1,4.38.49,7.06-1.21,7.55-6.09,2.18-12.17,10.46-12.17,16.29,0,9.25,6.57,10.46,13.87,2.44l6.32-6.57,4.87,5.11c4.13,3.89,4.38,5.59,1.94,8.51-1.7,1.95-2.67,7.78-2.19,12.89.73,8,1.46,9.25,6.82,9.25,5.1,0,6.32-1.22,6.81-8,.73-8,1-8,10.94-6.57,13.14,2.19,14.84,3.89,11.19,11.68S806.16,513,812.49,513c5.35,0,12.4-10.94,12.4-19,0-4.62,4.38-7.79,11-7.79,1.95,0,3.65,3.17,4.13,7.79.49,6.81,1.71,8,6.82,8,5.35,0,6.08-1.22,6.81-9.25.48-5.11-.49-10.94-2.19-12.89-3.89-4.87-1.22-6.81,5.11-3.41,2.67,1.46,8.51,2.44,12.89,1.95,6.57-.49,7.78-1.7,7.78-6.81,0-4.62-1.46-6.33-6.08-6.81-9.24-1.22-10.46-3.89-7.05-14.84,3.16-10.46,4.62-11.43,11.92-7.54,5.83,3.16,12.16.73,12.16-5.11s-9-11.92-17.52-11.92c-3.89,0-6.81-.73-6.81-1.94a51.43,51.43,0,0,0-1.46-7.06c-1.21-4.62-.24-5.35,6.81-6.08,6.57-.48,8.27-1.94,8.76-7.05.73-5.11-.49-6.81-5.59-8a20.8,20.8,0,0,0-13.14,1.7c-11.68,5.84-20.92-5.59-10-12.4,5.83-3.65,6.32-11.44,1-13.62-5.11-2-17.27,4.86-19.22,10.7-1.21,3.89-2.92,4.62-6.81,3.4-8.27-2.43-9.73-4.86-6.57-10.7C823.68,363.12,811.76,357,804.46,367.5ZM829.76,404c35,18,22.38,70.05-17,70.05-12.65,0-24.08-6.08-32.6-17.51-6.32-9-6.56-27.24,0-38.68,5.11-9,22.38-19.21,32.6-19.21C816.14,398.64,823.92,401.07,829.76,404Z" transform="translate(-706.59 -223.37)"/><path class="cls-11" d="M790.84,430.26c0,16.3,14.11,30.4,28.7,28.7,5.11-.48,6.57-1.94,6.57-6.57,0-4.37-2-6.32-8.51-8.51-6.57-1.95-9.25-4.62-11.19-11.19-2.19-6.57-4.38-8.76-9.25-9.24C791.57,422.72,790.84,423.45,790.84,430.26Z" transform="translate(-706.59 -223.37)"/><path class="cls-12" d="M820.76,426.85c-2,5.11,4.62,11.19,9.73,9.25,2.19-.73,4.13-4.14,4.13-7.3,0-4.62-1.21-5.84-6.08-5.84C825.14,423,821.73,424.66,820.76,426.85Z" transform="translate(-706.59 -223.37)"/><path class="cls-13" d="M889.6,371.63c-9.73,10-10.46,15.82-2.44,19,5.35,1.94,26-19.22,23.84-24.57C908.33,359.23,899.33,361.66,889.6,371.63Z" transform="translate(-706.59 -223.37)"/><path class="cls-14" d="M1017.76,482.61c-12.65,6.81-15.08,27-4.13,36.73,7.54,7,25.3,6.32,31.38-1.22,10.21-12.4,7.54-28.95-5.35-35.51C1031.14,478.23,1026,478.23,1017.76,482.61Zm18,16.29c1.46,4.38-2.67,11.68-6.81,11.68s-8.27-7.3-6.81-11.68c.73-1.45,3.65-2.91,6.81-2.91S1035,497.44,1035.76,498.9Z" transform="translate(-706.59 -223.37)"/><path class="cls-15" d="M761.65,516.37c-4.38,5.35-1.22,11.67,5.35,10.7,4.13-.49,5.59-2.43,5.59-6.81C772.59,513.21,766.27,511,761.65,516.37Z" transform="translate(-706.59 -223.37)"/><path class="cls-16" d="M844.6,596.4c-4.14,5.11-.73,11.92,5.59,10.94,3.65-.48,5.11-2.43,5.11-6.81C855.3,593.72,849,591.29,844.6,596.4Z" transform="translate(-706.59 -223.37)"/></svg>