<svg id="Layer_1" data-name="Layer 1" xmlns="http://www.w3.org/2000/svg" xmlns:xlink="http://www.w3.org/1999/xlink" viewBox="0 0 210.3 234.9"><defs><style>.cls-1{fill:url(#linear-gradient);}.cls-2{fill:url(#linear-gradient-2);}.cls-3{fill:url(#linear-gradient-3);}.cls-4{fill:url(#linear-gradient-4);}.cls-5{fill:url(#linear-gradient-5);}.cls-6{fill:url(#linear-gradient-6);}.cls-7{fill:url(#linear-gradient-7);}</style><linearGradient id="linear-gradient" x1="963.74" y1="651.32" x2="963.74" y2="416.42" gradientTransform="matrix(1, 0, 0, -1, 0, 1080)" gradientUnits="userSpaceOnUse"><stop offset="0" stop-color="#130094"/><stop offset="1" stop-color="#ce00e9"/></linearGradient><linearGradient id="linear-gradient-2" x1="963.74" y1="608.47" x2="963.74" y2="459.29" xlink:href="#linear-gradient"/><linearGradient id="linear-gradient-3" x1="963.74" y1="608.47" x2="963.74" y2="459.29" xlink:href="#linear-gradient"/><linearGradient id="linear-gradient-4" x1="974.64" y1="616.25" x2="1010.04" y2="636.69" gradientTransform="matrix(1, 0, 0, -1, -858.59, 651.32)" xlink:href="#linear-gradient"/><linearGradient id="linear-gradient-5" x1="876.26" y1="454.21" x2="911.66" y2="474.65" gradientTransform="matrix(1, 0, 0, -1, -858.59, 651.32)" xlink:href="#linear-gradient"/><linearGradient id="linear-gradient-6" x1="1029.45" y1="459.65" x2="1064.85" y2="480.09" gradientTransform="matrix(1, 0, 0, -1, -858.59, 651.32)" xlink:href="#linear-gradient"/><linearGradient id="linear-gradient-7" x1="946.21" y1="523.65" x2="981.61" y2="544.09" gradientTransform="matrix(1, 0, 0, -1, -858.59, 651.32)" xlink:href="#linear-gradient"/></defs><path class="cls-1" d="M963.74,428.68c-29.33,0-53.11,52.58-53.11,117.45s23.78,117.45,53.11,117.45,53.11-52.58,53.11-117.45S993.07,428.68,963.74,428.68Zm.17,223.64c-22.84,0-41.36-47.32-41.36-105.7s18.52-105.7,41.36-105.7,41.36,47.32,41.36,105.7S986.76,652.32,963.91,652.32Z" transform="translate(-858.59 -428.68)"/><path class="cls-2" d="M1065.46,487.4c-14.66-25.4-72.09-19.7-128.27,12.73S847.37,579.44,862,604.84s72.09,19.7,128.27-12.73S1080.12,512.8,1065.46,487.4Zm-80.86,95c-50.56,29.19-100.8,36.81-112.22,17s20.3-59.48,70.86-88.67,100.8-36.81,112.22-17S1035.15,553.25,984.6,582.44Z" transform="translate(-858.59 -428.68)"/><path class="cls-3" d="M990.3,500.14C934.12,467.7,876.7,462,862,487.4s19,72.28,75.16,104.71,113.6,38.13,128.27,12.73S1046.47,532.57,990.3,500.14Zm65.16,99.33c-11.42,19.78-61.66,12.16-112.22-17S861,513.55,872.38,493.77s61.67-12.16,112.22,17S1066.88,579.69,1055.46,599.47Z" transform="translate(-858.59 -428.68)"/><circle id="top_electron" data-name="top electron" class="cls-4" cx="133.75" cy="24.85" r="20.43"/><circle id="left_electron" data-name="left electron" class="cls-5" cx="35.37" cy="186.89" r="20.43"/><circle id="right_electron" data-name="right electron" class="cls-6" cx="188.56" cy="181.45" r="20.43"/><circle id="right_electron-2" data-name="right electron" class="cls-7" cx="105.32" cy="117.45" r="20.43"/></svg>