<?xml version="1.0" standalone="no"?>
<!DOCTYPE svg PUBLIC "-//W3C//DTD SVG 20010904//EN"
 "http://www.w3.org/TR/2001/REC-SVG-20010904/DTD/svg10.dtd">
<svg version="1.0" xmlns="http://www.w3.org/2000/svg"
 width="200.000000pt" height="200.000000pt" viewBox="0 0 200.000000 200.000000"
 preserveAspectRatio="xMidYMid meet">

<g transform="translate(0.000000,200.000000) scale(0.100000,-0.100000)"
fill="#000000" stroke="none">
<path d="M832 1930 c-98 -14 -168 -37 -277 -90 -115 -57 -192 -117 -182 -143
10 -27 43 -20 94 19 60 46 160 96 248 124 106 34 310 39 426 12 94 -23 170
-54 238 -96 l44 -28 -132 -132 c-98 -98 -130 -137 -125 -149 3 -9 14 -17 23
-17 9 0 77 61 151 135 74 74 139 135 145 135 13 0 215 -202 215 -215 0 -6 -24
-35 -54 -64 l-53 -53 -34 18 c-78 40 -196 12 -257 -61 -52 -64 -64 -137 -35
-218 l17 -48 -52 -52 -52 -52 -112 113 -113 112 94 94 c81 82 93 97 81 110 -7
9 -18 16 -24 16 -15 0 -226 -212 -226 -226 0 -7 7 -17 15 -24 14 -12 12 -18
-20 -50 -36 -37 -44 -67 -23 -88 8 -8 2 -21 -25 -52 -21 -22 -37 -44 -37 -48
0 -10 113 -122 123 -122 4 0 25 16 47 37 31 27 44 33 52 25 21 -21 51 -13 88
23 32 32 38 34 50 20 7 -8 18 -15 24 -15 6 0 42 31 80 69 l68 69 52 -24 c28
-13 70 -24 93 -24 38 0 43 -3 50 -27 5 -16 8 -64 8 -108 0 -67 -4 -89 -27
-135 -15 -30 -42 -70 -61 -88 l-34 -33 -18 41 c-73 162 -306 171 -385 15 -14
-28 -26 -52 -28 -54 -4 -8 -53 43 -75 79 -11 19 -26 38 -31 42 -19 13 -401 9
-414 -4 -27 -27 -1 -119 44 -159 59 -52 139 -64 139 -21 0 19 -9 27 -40 38
-38 12 -85 54 -85 75 0 5 68 9 164 9 l164 0 22 -35 c12 -19 42 -51 66 -71 l44
-36 0 -69 0 -69 -42 21 c-24 12 -75 53 -115 91 -72 71 -104 83 -111 44 -6 -27
129 -154 206 -194 45 -24 62 -39 62 -53 0 -20 -5 -20 -138 -17 l-137 3 -105
52 c-58 29 -133 77 -168 106 -134 115 -233 275 -273 442 -28 120 -23 323 11
430 28 88 78 188 125 249 39 52 44 91 10 91 -47 0 -170 -219 -204 -365 -42
-182 -36 -324 21 -497 85 -258 300 -474 556 -557 l52 -18 0 -52 c0 -29 5 -57
12 -64 9 -9 125 -12 460 -12 432 0 448 1 458 19 14 27 13 144 -2 159 -8 8 -50
12 -125 12 l-113 0 0 24 c0 17 7 27 22 32 34 11 116 63 121 78 3 8 0 22 -7 32
-12 16 -17 15 -72 -19 l-59 -36 -3 70 -3 70 55 50 c80 73 118 155 124 265 3
51 0 102 -8 130 -12 42 -12 46 9 60 12 9 33 28 47 42 21 23 26 25 34 12 27
-41 45 -130 45 -220 -1 -109 -23 -190 -79 -279 -34 -55 -37 -75 -10 -85 23 -9
60 38 103 128 91 193 117 309 108 494 -9 182 -49 294 -91 252 -13 -13 -12 -24
5 -85 14 -47 22 -110 25 -195 l5 -125 -29 80 c-15 44 -35 91 -44 105 -8 14
-18 46 -22 73 -3 26 -15 66 -27 88 l-21 42 71 71 c39 39 71 78 71 86 0 8 -11
26 -25 40 l-25 27 20 18 c17 16 25 17 40 7 11 -7 26 -12 33 -12 15 0 117 101
117 115 0 14 -242 255 -255 255 -15 0 -115 -103 -115 -118 0 -7 5 -21 12 -32
10 -15 9 -23 -7 -40 l-18 -20 -27 25 c-14 14 -36 25 -48 25 -12 0 -44 13 -70
30 -159 97 -394 146 -580 120z m1006 -267 l-22 -24 -88 88 -88 87 22 23 22 24
88 -88 88 -87 -22 -23z m-130 -40 l-22 -23 -43 42 -43 42 22 23 22 23 43 -42
43 -42 -22 -23z m-160 -303 c107 -66 94 -231 -22 -275 -82 -32 -162 2 -198 82
-14 33 -18 55 -13 84 7 43 54 105 89 119 39 16 110 11 144 -10z m-480 -387
l-22 -24 -68 68 -68 67 22 23 22 24 68 -68 68 -67 -22 -23z m-133 -3 c18 -20
18 -21 -3 -43 l-22 -21 -22 21 c-21 22 -21 23 -3 43 10 11 21 20 25 20 4 0 15
-9 25 -20z m295 -250 c20 -5 51 -26 70 -45 l35 -36 3 -235 3 -234 -156 0 -156
0 3 228 c3 221 4 228 27 261 23 32 89 70 121 71 8 0 31 -5 50 -10z m-260 -520
l0 -30 -95 0 -95 0 0 30 0 30 95 0 95 0 0 -30z m620 0 l0 -30 -90 0 -90 0 0
30 0 30 90 0 90 0 0 -30z"/>
<path d="M1406 1255 c-19 -18 -26 -34 -26 -62 0 -72 53 -114 116 -93 69 23 86
99 35 151 -38 38 -87 39 -125 4z m84 -50 c17 -20 5 -45 -20 -45 -23 0 -35 22
-26 45 7 19 30 19 46 0z"/>
<path d="M1132 604 c-33 -23 -45 -60 -32 -100 14 -42 44 -64 88 -64 42 0 92
46 92 85 0 33 -24 81 -45 89 -30 11 -80 6 -103 -10z m84 -59 c7 -18 -13 -45
-33 -45 -17 0 -27 24 -19 45 7 20 45 19 52 0z"/>
<path d="M947 1804 c-4 -4 -7 -18 -7 -30 0 -35 -30 -47 -56 -23 -12 12 -28 17
-37 13 -21 -8 -22 -47 -3 -64 20 -16 9 -40 -19 -40 -54 0 -56 -62 -2 -68 30
-4 42 -26 21 -42 -19 -17 -18 -56 3 -64 9 -4 25 2 38 14 17 16 24 18 37 7 9
-6 18 -23 20 -37 2 -19 9 -25 28 -25 21 0 26 5 28 33 4 36 19 41 57 16 20 -13
28 -14 40 -4 19 16 19 29 -1 51 -22 24 -12 45 24 52 16 3 32 13 35 21 8 19
-18 46 -44 46 -27 0 -35 27 -15 49 20 22 20 35 1 51 -12 10 -20 9 -40 -4 -38
-25 -53 -20 -57 17 -2 23 -8 33 -23 35 -12 2 -24 0 -28 -4z m63 -134 c11 -11
20 -31 20 -45 0 -29 -32 -65 -58 -65 -34 0 -62 29 -62 65 0 57 60 85 100 45z"/>
<path d="M1194 1736 c-13 -35 3 -47 58 -44 49 3 53 5 53 28 0 23 -4 25 -53 28
-40 2 -54 -1 -58 -12z"/>
<path d="M676 1724 c-7 -19 10 -44 30 -44 16 0 33 30 27 48 -7 18 -50 15 -57
-4z"/>
<path d="M584 1625 c-4 -9 -19 -15 -41 -15 -57 0 -101 -37 -87 -74 8 -21 50
-21 58 0 4 11 13 14 28 11 33 -9 86 18 94 47 3 14 3 30 -1 35 -9 16 -45 13
-51 -4z"/>
<path d="M351 1456 c-16 -20 -3 -46 24 -46 13 0 26 7 29 16 7 19 -10 44 -29
44 -7 0 -18 -6 -24 -14z"/>
<path d="M664 1455 c-9 -23 3 -45 26 -45 25 0 37 25 20 45 -16 19 -39 19 -46
0z"/>
<path d="M466 1348 c-9 -12 -16 -34 -16 -49 0 -19 -6 -28 -22 -32 -28 -8 -38
-1 -38 27 0 29 -22 49 -44 40 -18 -7 -22 -69 -7 -94 12 -18 3 -34 -12 -21 -13
10 -38 14 -75 12 -19 -1 -23 -6 -20 -28 2 -24 8 -29 36 -31 29 -3 33 -6 28
-25 -3 -12 -6 -25 -6 -29 0 -5 -12 -8 -28 -8 -35 0 -72 -25 -72 -49 0 -24 26
-34 50 -21 29 15 37 12 45 -17 4 -18 2 -29 -5 -31 -25 -9 -50 -43 -50 -67 0
-38 27 -43 57 -10 l26 27 20 -21 c17 -16 18 -23 8 -35 -7 -8 -11 -32 -9 -53 3
-33 6 -38 28 -38 21 0 26 5 28 33 3 33 4 33 45 27 54 -9 61 -16 46 -48 -15
-32 -6 -57 20 -57 22 0 51 45 51 78 0 19 18 32 45 32 8 0 15 -13 17 -32 2 -28
7 -33 28 -33 22 0 25 5 28 38 2 21 -2 45 -9 53 -16 20 -5 28 21 14 11 -6 35
-10 53 -8 27 2 32 7 32 28 0 19 -6 26 -25 28 -38 5 -43 16 -29 61 13 43 19 47
49 31 24 -13 50 -3 50 21 0 24 -37 49 -72 49 -16 0 -28 3 -28 8 0 4 -3 17 -6
29 -5 19 -1 22 28 25 27 2 34 8 36 29 3 21 -2 28 -23 33 -16 4 -38 1 -54 -7
-48 -24 -86 23 -41 51 24 15 26 47 4 56 -21 8 -71 -20 -79 -44 -5 -16 -12 -19
-28 -14 -34 10 -40 20 -27 44 25 46 -24 71 -54 28z m104 -150 c144 -74 92
-288 -70 -288 -52 0 -99 25 -134 72 -26 37 -27 112 0 159 21 37 92 79 134 79
14 0 46 -10 70 -22z"/>
<path d="M410 1090 c0 -67 58 -125 118 -118 21 2 27 8 27 27 0 18 -8 26 -35
35 -27 8 -38 19 -46 46 -9 27 -18 36 -38 38 -23 3 -26 0 -26 -28z"/>
<path d="M533 1104 c-8 -21 19 -46 40 -38 9 3 17 17 17 30 0 19 -5 24 -25 24
-14 0 -28 -7 -32 -16z"/>
<path d="M816 1331 c-40 -41 -43 -65 -10 -78 22 -8 107 79 98 101 -11 28 -48
18 -88 -23z"/>
<path d="M1329 925 c-52 -28 -62 -111 -17 -151 31 -29 104 -26 129 5 42 51 31
119 -22 146 -35 18 -56 18 -90 0z m74 -67 c6 -18 -11 -48 -28 -48 -17 0 -34
30 -28 48 3 6 15 12 28 12 13 0 25 -6 28 -12z"/>
<path d="M290 736 c-18 -22 -5 -48 22 -44 17 2 23 10 23 28 0 29 -26 38 -45
16z"/>
<path d="M631 407 c-17 -21 -3 -49 23 -45 15 2 21 10 21 28 0 28 -26 38 -44
17z"/>
</g>
</svg>
