<?xml version="1.0" standalone="no"?>
<!DOCTYPE svg PUBLIC "-//W3C//DTD SVG 20010904//EN"
 "http://www.w3.org/TR/2001/REC-SVG-20010904/DTD/svg10.dtd">
<svg version="1.0" xmlns="http://www.w3.org/2000/svg"
 width="512.000000pt" height="512.000000pt" viewBox="0 0 512.000000 512.000000"
 preserveAspectRatio="xMidYMid meet">

<g transform="translate(0.000000,512.000000) scale(0.100000,-0.100000)"
fill="#000000" stroke="none">
<path d="M2580 4984 c-120 -14 -258 -59 -378 -124 -42 -22 -58 -27 -68 -19 -8
7 -29 9 -51 5 -59 -11 -83 -10 -153 2 -135 24 -257 8 -376 -49 -61 -29 -104
-68 -104 -95 0 -7 11 -26 25 -42 l25 -30 -67 -16 c-38 -8 -87 -18 -110 -22
-37 -6 -43 -10 -43 -31 0 -23 2 -24 43 -18 23 3 51 9 62 12 11 3 -6 -12 -37
-33 -237 -162 -383 -352 -436 -569 -32 -127 -34 -197 -17 -415 9 -112 13 -221
10 -244 -10 -58 -36 -115 -83 -179 -23 -30 -68 -111 -101 -180 -53 -110 -70
-136 -146 -216 -82 -86 -95 -111 -57 -111 20 0 202 58 406 129 81 29 150 51
152 49 1 -2 7 -32 13 -67 11 -71 42 -124 130 -226 69 -81 91 -128 91 -198 0
-69 -24 -137 -42 -119 -7 7 -33 12 -59 12 -37 0 -55 -6 -79 -26 -38 -32 -92
-111 -150 -219 -24 -44 -71 -116 -105 -160 -125 -162 -138 -199 -98 -268 l20
-33 -145 -262 -145 -263 24 -25 c31 -33 167 -100 243 -119 110 -27 250 -36
395 -24 309 26 556 -27 735 -159 28 -20 109 -86 181 -145 225 -187 377 -277
555 -328 94 -27 260 -43 362 -35 l87 8 -33 91 c-88 243 -159 370 -389 694
l-86 123 19 77 c10 43 22 99 25 125 7 45 6 48 -41 98 l-47 51 19 37 c15 30 18
59 19 150 0 107 1 115 24 133 31 25 52 24 111 -6 41 -21 64 -25 130 -25 69 0
92 -5 153 -31 129 -57 267 -36 340 51 54 64 53 122 -3 210 -17 27 -33 64 -37
83 -7 48 18 93 57 100 20 4 37 17 48 37 20 35 30 36 114 10 112 -34 178 -113
214 -253 16 -64 16 -71 0 -103 -29 -61 -15 -144 33 -191 23 -23 33 -49 51
-133 61 -282 125 -396 259 -459 49 -23 68 -26 161 -26 89 0 112 3 151 23 96
47 159 136 184 261 19 90 38 306 31 336 -9 37 -73 64 -174 76 -109 13 -192 4
-234 -25 l-33 -22 0 -165 c0 -141 -3 -168 -18 -192 -11 -17 -26 -27 -41 -27
-30 0 -72 48 -85 98 -38 144 -68 287 -64 299 3 7 2 39 -2 70 -6 47 -13 63 -39
88 -22 21 -37 49 -49 95 -29 102 -74 184 -133 240 -66 62 -112 83 -232 106
-76 15 -91 21 -86 33 18 45 15 89 -10 149 -30 70 -33 114 -10 136 21 21 55 20
134 -4 36 -11 78 -20 93 -20 35 0 77 40 77 75 0 14 -27 76 -60 138 -32 61 -72
144 -89 184 -35 85 -67 129 -133 178 -57 44 -91 95 -81 121 3 11 18 37 32 59
14 22 25 41 26 42 0 1 23 -3 50 -8 142 -27 389 -59 460 -59 140 0 154 14 78
76 -27 21 -100 89 -163 150 -63 62 -151 142 -195 178 -94 78 -123 119 -161
223 -132 372 -151 410 -269 528 -78 79 -236 193 -325 235 l-45 21 83 -6 c82
-6 82 -6 82 18 0 23 -3 24 -87 30 -103 8 -317 48 -306 57 5 3 33 14 63 23 65
19 120 67 120 104 0 29 -50 83 -78 83 -11 0 -32 2 -48 4 -16 2 -45 2 -64 0z
m63 -84 c18 -17 1 -45 -36 -59 -32 -12 -53 -12 -142 -1 -58 7 -105 16 -105 20
0 8 127 47 175 53 37 6 97 -2 108 -13z m-937 -144 c-37 -24 -78 -47 -92 -50
-25 -7 -64 8 -64 24 0 21 130 68 194 69 26 1 22 -4 -38 -43z m289 24 c-16 -4
-73 -17 -125 -28 -52 -11 -104 -23 -115 -27 -11 -3 -4 3 15 14 19 11 64 24
100 30 119 19 174 24 125 11z"/>
</g>
</svg>
