<?xml version="1.0" standalone="no"?>
<!DOCTYPE svg PUBLIC "-//W3C//DTD SVG 20010904//EN"
 "http://www.w3.org/TR/2001/REC-SVG-20010904/DTD/svg10.dtd">
<svg version="1.0" xmlns="http://www.w3.org/2000/svg"
 width="200.000000pt" height="200.000000pt" viewBox="0 0 200.000000 200.000000"
 preserveAspectRatio="xMidYMid meet">

<g transform="translate(0.000000,200.000000) scale(0.100000,-0.100000)"
fill="#000000" stroke="none">
<path d="M1703 1890 c-40 -24 -63 -68 -67 -124 -2 -36 -23 -72 -146 -253
l-144 -210 -33 13 c-57 24 -101 16 -149 -27 -20 -19 -22 -19 -152 42 -126 59
-132 64 -132 92 0 41 -34 92 -74 111 -98 46 -203 -13 -209 -119 -2 -29 -18
-46 -163 -165 -160 -131 -162 -132 -215 -134 -91 -3 -143 -56 -141 -145 1 -77
63 -136 142 -135 55 1 92 21 121 67 19 31 21 66 7 151 -2 14 35 50 141 138
135 111 145 117 162 102 41 -37 131 -35 180 5 22 18 24 17 148 -41 69 -32 129
-64 133 -71 4 -7 8 -22 8 -34 0 -12 14 -38 30 -57 94 -107 250 -45 250 99 0
43 10 61 143 254 141 206 142 208 165 193 31 -20 99 -19 140 2 97 50 95 204
-2 250 -46 22 -104 20 -143 -4z m119 -77 c18 -16 24 -59 10 -79 -26 -40 -95
-35 -111 8 -23 62 52 115 101 71z m-1040 -360 c18 -16 24 -59 10 -79 -15 -23
-50 -34 -77 -24 -46 17 -53 85 -11 112 19 13 59 9 78 -9z m516 -219 c46 -32
18 -114 -39 -114 -54 0 -81 78 -39 112 27 22 49 23 78 2z m-1036 -211 c37 -33
8 -113 -41 -113 -30 0 -63 33 -63 63 0 57 63 87 104 50z"/>
<path d="M1608 1509 c-17 -9 -18 -54 -18 -702 0 -526 3 -696 12 -705 17 -17
339 -17 356 0 9 9 12 179 12 705 0 674 -1 693 -19 703 -25 13 -320 13 -343 -1z
m282 -704 l0 -635 -110 0 -110 0 0 635 0 635 110 0 110 0 0 -635z"/>
<path d="M556 1184 c-3 -9 -6 -253 -6 -543 0 -397 3 -530 12 -539 17 -17 339
-17 356 0 9 9 12 142 12 539 0 290 -3 534 -6 543 -5 14 -31 16 -184 16 -153 0
-179 -2 -184 -16z m294 -539 l0 -475 -110 0 -110 0 0 475 0 475 110 0 110 0 0
-475z"/>
<path d="M1082 968 c-17 -17 -17 -849 0 -866 17 -17 339 -17 356 0 17 17 17
849 0 866 -17 17 -339 17 -356 0z m288 -433 l0 -365 -110 0 -110 0 0 365 0
365 110 0 110 0 0 -365z"/>
<path d="M48 759 c-17 -9 -18 -36 -18 -327 0 -234 3 -321 12 -330 17 -17 339
-17 356 0 9 9 12 96 12 330 0 303 -1 318 -19 328 -25 13 -320 13 -343 -1z
m282 -329 l0 -260 -110 0 -110 0 0 260 0 260 110 0 110 0 0 -260z"/>
</g>
</svg>
