<?xml version="1.0" encoding="utf-8"?>
<!-- Generator: Adobe Illustrator 25.2.3, SVG Export Plug-In . SVG Version: 6.00 Build 0)  -->
<svg version="1.1" xmlns="http://www.w3.org/2000/svg" xmlns:xlink="http://www.w3.org/1999/xlink" x="0px" y="0px"
	 viewBox="0 0 1920 1080" style="enable-background:new 0 0 1920 1080;" xml:space="preserve">
<style type="text/css">
	.st0{fill:#7997CD;}
	.st1{fill:#FFFFFF;stroke:#FFFFFF;stroke-miterlimit:10;}
	.st2{fill:#90B3DF;}
	.st3{fill:#CC5280;}
	.st4{fill:#7965A7;}
	.st5{fill:#8477B4;}
	.st6{fill:#9F79BA;}
	.st7{fill:#87A9D9;}
	.st8{fill:#9384BA;}
	.st9{fill:#AB578B;}
	.st10{fill:#BB5F8F;}
	.st11{fill:#7872B2;}
	.st12{fill:#A1A6E5;}
	.st13{fill:#A66698;}
	.st14{fill:#B499D6;}
	.st15{fill:#D27296;}
	.st16{fill:#9C8FBF;}
	.st17{fill:#AFC3E1;}
	.st18{fill:#9A9AD8;}
	.st19{fill:#7FABDC;}
	.st20{fill:#957CB0;}
	.st21{fill:#151515;stroke:#FFFFFF;stroke-miterlimit:10;}
	.st22{fill:#C7386D;}
	.st23{fill:#B84A7D;}
	.st24{fill:#BE5586;}
	.st25{fill:#C14176;}
	.st26{fill:#8C7AB4;}
	.st27{fill:#A595C6;}
	.st28{fill:#AD6FB2;}
	.st29{fill:#8D6DA0;}
	.st30{fill:#9C619E;}
	.st31{stroke:#FFFFFF;stroke-miterlimit:10;}
	.st32{fill:none;stroke:#FFFFFF;stroke-miterlimit:10;}
</style>
<g id="Layer_1">
	<g id="Layer_2">
	</g>
</g>
<g id="Layer_3">
	<g>
		<path class="st0" d="M995.46,820.42c-2.37-6.46,1.5-12.67,0.76-19.06c13.91-23.57,22.55-49.54,32.66-74.7
			c17.64-43.88,36.3-87.32,54.91-130.77c3.91-9.13,7.08-18.12,6.99-28.1c2.85-5.24,7.38-5.3,12.34-4.07
			c8.74,5.65,18.62,8.52,28.39,11.71c3.35,1.22,6.75,2.4,10.02,3.84c9.4,4.22,17.45,11.51,28.29,12.49c1.43,0.2,2.8,0.62,4.11,1.23
			c4.45,2.89,9.62,6.85,8.22,12.02c-4.76,17.47,6.8,27.16,17.11,36.56c16.66,15.19,34.52,29.08,52.43,42.83
			c35.96,28.86,72.31,57.24,108.06,86.35c4.71,3.83,10.22,7.3,9.56,14.74c-1.11,4.76-4.84,6.2-8.96,7.33
			c-83.63,22.67-166.59,47.68-249.49,72.9c-6.46,1.96-13.24,1.59-19.63,3.58c-9.29,0.95-16.64-3.9-23.99-8.39
			C1043.76,846.52,1019.8,833.13,995.46,820.42z"/>
		<path class="st1" d="M974.92,440.71c0.01,46.4,0.15,92.79,0.03,139.19c-0.36,143.39-0.94,286.78-1.14,430.17
			c-0.04,26.34-18.92,43.65-29.4,64.96c-2.13,4.33-8.22,3.54-12.83,3.63c-23.16,0.46-46.33,0.73-69.49,1.33
			c-5.37,0.13-10.21-0.58-14.29-4.22c-30.17-26.72-66.28-32.72-104.76-29.72c-10.42,0.81-18.11-3.49-26.84-8.5
			c-33.02-18.92-56.63-44.91-67.27-81.96c-6.58-22.91-27.06-34.15-41.76-50.33c-19.75-21.74-29.53-48.7-24.1-77.32
			c8.4-44.26,10.26-44.18-20-76.73c-8.59-9.24-12-18.56-12.28-31.48c-0.81-36.53,5.95-71.76,14.56-106.8
			c2.65-10.78,2.98-21.13,0.42-31.92c-4.03-17.03-6.85-34.37-11.23-51.31c-5.02-19.43-5.91-38.34,2.11-57.19
			c1.8-4.23,3.12-8.83,3.75-13.38c5.74-41.19,24.72-74.45,58.53-98.92c6.12-4.44,7.86-10.18,7.13-17.46
			c-0.68-6.65,0.5-13.63-0.91-20.06c-7.52-33.91,4.88-62.13,23.54-89.09c10.14-14.63,26.21-21.24,39.7-31.24
			c7.97-5.9,12.83-12.12,14.58-22.08c6.07-34.69,18.27-67.31,34.68-98.45c3.74-7.08,8.17-10.83,16.45-11.48
			c11.77-0.91,23.38-4.53,35.13-4.81c22.06-0.54,40.06-8.19,51.83-27.1c17.11-27.48,43.48-34,73.29-36.85
			c32.73-3.13,32.68-4.55,43.71,25.6c5.65,15.43,10.99,30.98,16.46,46.46c2.44,3.76,1.47,8.01,1.47,12.05
			c0.05,114.27,0.04,228.54,0.03,342.8C976.01,432.58,976.4,436.74,974.92,440.71z"/>
		<path class="st2" d="M1172.35,593.91c-1.03-0.03-2.05-0.05-3.09-0.08c-9.98-2.52-18.6-8.11-27.82-12.31
			c-3.41-0.11-7.03,0.42-9.32-3.06c-2.81-10.49,5.1-9.93,10.68-9.09c25.52,3.82,51.25,4.9,76.91,5.89
			c44.78,1.71,88.99,9.65,133.75,10.94c5.55,0.16,11.33,1.13,17.25-2.04c-0.97-7.25-6.64-11.31-11.41-15.47
			c-27.64-24.13-52.19-51.17-75.55-79.35c-3.33-4.02-9.49-7.28-5.55-14.29c9.64-4.08,19.21-0.72,28.53,0.89
			c33.07,5.69,65.74,14.13,99.65,13.75c1.52-0.01,2.81,1.11,4.08,1.96c8.82,17.22-2.27,32.95-4.15,49.29
			c-1.99,17.22-7.04,34.08-10.53,51.14c-2.49,12.14,3.31,23.15,5.25,34.69c1.1,6.56,2.17,13.12,3.26,19.69
			c10.25,43.9-5.38,82.32-25.61,119.62c-1.95,3.61-4.19,6.91-4.89,11c-0.36,3.96-0.73,7.93-1.09,11.88
			c-5.28,0.99-3.08-4.69-5.54-6.2c-31.77-25.7-63.59-51.37-95.32-77.12c-7.53-6.11-14.81-12.54-22.2-18.82
			c-6.52-11.86-5.12-17.6,7.94-26.04c9.84-6.35,20.68-11.15,29.65-19.42c-5.3-6.44-12.53-9.03-19.63-11.81
			c-24.44-9.58-49.33-17.96-74.39-25.74C1185.76,601.43,1178.94,597.95,1172.35,593.91z"/>
		<path class="st3" d="M995.99,73.53c7.7-21.77,15.55-43.49,23.04-65.33c2.17-6.32,6.35-7.16,12-6.3
			c20.3,3.12,40.59,6.24,60.91,9.09c4.55,0.64,7.36,3.39,10.21,6.31c3.95,4.04,8.47,7.79,11.47,12.49
			c18.82,29.59,46.99,40.59,80.44,41.5c3.94,1.8,13.79-1.25,7.2,9.13c-4.68,7.37-0.44,12.88,4.85,17.45
			c7.73,6.67,11.07,14.48,8.79,24.7c-1.86,8.32,1.75,15.03,7.12,21.1c7.85,8.86,15.28,18.04,23.66,26.47
			c6.02,6.06,12.75,12.41,11.74,22.47c-4.14,8.46-11.69,11.19-20.26,12.3c-9.05-0.65-17.06,3.46-25.36,5.91
			c-32.52,9.65-65.35,17.99-98.41,25.5c-6.96,1.58-14.21,2.62-20.2,7.12c-7.57,4.16-16.11,4.93-24.25,7.13
			c-18.15,3.84-36.55,6.1-54.92,8.46c-6.52,0.84-13.72,2.44-16.93-6.2c6.32-18.45,20.81-31.27,32.21-46.18
			c32.56-42.58,67.91-82.89,101.61-124.55c1.92-2.37,4.18-4.57,4.55-7.93c-1.83-4.68-5.9-3.47-9.21-3.18
			c-36.37,3.15-72.8,5.57-109.14,9.12c-7.16,0.7-14.4,1.92-21.01-2.36C994.81,76.38,994.78,74.96,995.99,73.53z"/>
		<path class="st4" d="M1163.61,1043.61c-15.47,9.92-30.98,19.76-46.38,29.77c-4.55,2.96-9.43,3.53-14.65,3.45
			c-20.47-0.3-40.95-0.7-61.42-0.62c-10.7,0.04-18.28-3.19-23.05-13.76c-5.45-12.06-12.54-23.38-18.92-35.02
			c-3.54-5.9-0.33-10.92,2.29-15.83c23.53-44,49.75-86.46,73.89-130.11c2.94-5.33,5.7-11.12,12.22-13.27
			c3.14-0.32,6.14,0.09,8.88,1.75c15.56,9.49,30.81,19.49,45.87,29.79c5.45,3.72,11.14,7.18,13.2,14.09
			c0.46,5.83-4.03,7.68-7.93,10.21c-18.36,11.89-21.83,21.05-13.75,41.5c8.91,22.51,18.61,44.7,28.61,66.77
			C1164.01,1035.97,1165.48,1039.63,1163.61,1043.61z"/>
		<path class="st5" d="M1094.84,872.67c-1.99-1.05-3.98-2.09-5.95-3.15c-1.05-0.64-1.41-1.29-1.07-1.96
			c0.33-0.68,0.68-1.01,1.02-1.01c39.22-11.41,78.49-22.68,117.66-34.29c29.24-8.67,58.05-19.06,87.65-26.25
			c22.5-5.45,43.81-15.47,67.2-17.29c3.7-0.29,5.25-2.68,5.81-6.02c1.84,2.07,3.7,4.14,5.54,6.22c1.39,8.29,2.8,16.56,4.2,24.84
			c-6.39,6.14-10.17,13.44-13.06,22.02c-8.64,25.7-18.73,50.93-25.89,77.15c-1.5,5.5-4.69,10.18-8.14,14.66
			c-2.07,2.25-4.14,4.52-6.2,6.77c-15.38,3.31-28.94-4.37-42.9-8.1c-14.74-3.94-29.32-8.59-44.26-11.88
			c-44.24-13.27-89.01-24.74-132.71-39.79C1100.78,873.59,1097.98,872.55,1094.84,872.67z"/>
		<path class="st6" d="M1265.14,197.39c13.22,8.78,28.79,15.4,39.15,26.8c17.96,19.76,35.65,41.13,34.93,70.64
			c-0.49,19.98-1.66,39.94-2.52,59.92c0.98,13.69-9.16,22.61-15.44,32.53c-17.14,27.04-28.02,58.19-51.82,80.96
			c-4.53,3.08-9.46,4.43-14.16,0.93c-16.68-12.42-32.84-25.52-48.41-39.3c-2.29-2.03-3.12-5.18-3.12-8.38
			c6.46-18,20.59-31.36,33.26-43.53c18.15-17.43,21.97-37.66,23.29-59.77c1.17-19.51,0.34-39.13,0.11-58.74
			c-0.9-14.95-0.46-29.89-0.32-44.82C1260.17,208.5,1259.98,202.1,1265.14,197.39z"/>
		<path class="st7" d="M1092.19,569.07c8.83,14.89-4.19,25.31-8.6,36.8c-15.24,39.61-32.32,78.5-48.61,117.7
			c-9.64,23.18-19.12,46.45-28.66,69.67c-1.88,4.56-4.65,8.01-10.1,8.11c0.03-74.39,0.05-148.79,0.08-223.17
			c14.9-11.6,32.48-10.42,49.8-10.47c10.13,0.01,20.24,0.49,30.33-1.39C1081.85,565.29,1087.57,564.52,1092.19,569.07z"/>
		<path class="st8" d="M1237.24,909.8c28.79,8.19,57.57,16.38,86.36,24.58c-2.15,5.21-4.71,10.29-6.39,15.64
			c-11.85,37.67-33.63,66.85-69.36,85.34c-8.47,4.39-16.15,7.73-25.8,7.61c-19.47-0.27-38.96,0.38-58.45,0.65
			c-1.21-3.33-2.43-6.65-3.63-9.98c-4.94-18.19-4.47-19.67,11.51-27.51c8.01-3.92,15.09-8.7,19.62-16.56
			c4.47-7.75,10.3-13.92,18.68-17.54c10.02-4.33,8.17-9.97,1.75-16.32c-6.01-5.94-16-7.7-18.27-17.52
			c4.11-5.65,10.22-3.43,15.64-4.02C1225.74,932.34,1235.12,924.27,1237.24,909.8z"/>
		<path class="st9" d="M995.96,572.14c-0.07-18.23-0.13-36.45-0.2-54.69c-2.32-8.4-0.57-16.99-1.13-25.47
			c2.94-36.14,20.53-68.15,29.07-102.76c2.6-10.5,11.51-11.6,19.83-1.86c8.22,9.62,11.35,9.36,17.52-2.07
			c8.56-15.84,23.77-26.64,35.59-40.11c2.09-1.17,4.33-1.54,6.68-1.27c15.76,5.53,26,19.43,40.48,26.92
			c5.41,4.36,11.67,8.14,11.47,16.42c-18.69,24.36-41.48,45.2-60.01,69.71c-8.32,11.02-18.94,13.07-31.43,8.71
			c-5.98-3.22-7.85-10.57-14.14-15.1c-7.38,12.12-14.37,23.65-17.25,36.57c-5.46,24.5-14.94,47.62-22.28,71.45
			C1007.79,566.47,1012.39,579.79,995.96,572.14z"/>
		<path class="st10" d="M1141.43,373.98c-12.35-9.28-24.72-18.56-37.08-27.84c-7.07-3.92-6.39-9.76-3.9-16
			c2.72-6.8,6.96-12.54,11.93-17.86c21.37-22.85,41.88-46.82,64.29-68.27c17.55-16.78,36.31-34.7,60.55-43.4
			c8.06,0.68,13.22-4.49,18.55-9.29c2.02-1.95,4.03-1.83,6.07-0.05c1.1,2.04,2.2,4.08,3.29,6.11c-0.04,21.7-0.07,43.4-0.11,65.11
			c-19.05,2.78-31.42,16.08-43.14,29.2c-16.38,18.33-36,33.68-49.59,54.63C1164.61,358.22,1150.44,363.29,1141.43,373.98z"/>
		<path class="st11" d="M1088.83,866.55c0.03,0.98,0.05,1.98,0.05,2.97c-17.55,22.77-28.91,49.27-44.1,73.49
			c-15.46,24.63-29.35,50.24-43.71,75.55c-1.42,2.51-1.27,5.9-1.84,8.88c-4.64-4.73-2.68-10.7-2.7-16.13
			c-0.44-63.63-0.73-127.26-1.05-190.89c6.52-3.33,11,1.05,16.32,3.75C1037.94,837.42,1061.49,855.47,1088.83,866.55z"/>
		<path class="st12" d="M1410.45,491.61c-23.78,8.29-46.56-1.8-69.65-4.36c-21.26-2.35-42.26-7.22-63.36-10.99
			c-3.9,3.04-7.37,2.72-10.35-1.3c-0.53-1.5-0.56-3.02-0.08-4.53c20.79-17.83,46.41-27.96,68.97-43.04
			c8.55-5.71,15.93-12.95,24.84-17.95c7.58-4.24,15.6-7.93,24.76-7C1395.89,431.6,1404.3,461.28,1410.45,491.61z"/>
		<path class="st13" d="M995.96,572.14c6.5-0.19,15.42,1.47,7.16-9.74c-0.74-1.01-0.76-4.02-0.17-4.32
			c15.27-8.09,7.41-25.11,14.36-36.85c12.13-20.53,11.06-46.42,24.7-66.82c2.66-3.99,1.98-11.14,8.32-11.41
			c5.87-0.25,4.64,7.04,7.69,10.3c2.7,2.89,4.15,6.99,6.15,10.54c11.32,19.33,19.53,39.97,25.58,61.48
			c-3.41,3.41-6.26,1.52-9.37-0.74c-10.98-7.97-15.85-6.19-15.88,7.28c-0.03,12.25-3.45,23.13-8.03,34.03
			c-2.64,3.82-8.09,2.65-10.92,6.14c-16.7-0.3-32.99,2.82-49.25,6.16C996.17,576.16,996.07,574.16,995.96,572.14z"/>
		<path class="st14" d="M1385.59,402.44c-37.66,18.12-70.5,44.37-107.3,63.93c-3.1,1.64-6.67,2.45-10.01,3.65
			c-0.77-0.57-1.1-1.21-0.98-1.92c0.13-0.74,0.3-1.11,0.52-1.11c26.11-35.47,44.33-75.8,68.89-112.23
			C1352.9,370.76,1371.14,384.65,1385.59,402.44z"/>
		<path class="st15" d="M1261.85,191.28c-2.03,0.01-4.06,0.03-6.07,0.05c-7.89-17.88-24.7-28.39-36.06-43.48
			c-6.85-9.11-13.14-17.01-8.3-29.04c3.09-7.66-1.51-12.28-6.99-16.94c-8.1-6.92-18.03-13.71-5.09-25.66
			c2.58-2.39-4.59-1.94-5.3-4.9c18.47-1.67,29.06,6.01,37.63,23.46C1246.86,125.62,1256.72,157.56,1261.85,191.28z"/>
		<path class="st16" d="M1329.8,927.59c7.36-29.04,15.96-57.72,27.9-85.22c3.62-8.34,2.39-18.07,9.05-25.62
			c3.38-3.83,5.82-5.06,10.13-2.98c12.28,35.8,0.41,65.68-23.29,92.21C1346.48,913.93,1337.77,920.43,1329.8,927.59z"/>
		<path class="st17" d="M1373.77,777.04c-1.51-3.15-4.24-6.19-1.47-9.92c15.93-21.38,21.85-47.11,30.05-71.66
			c5.24-15.66,0.86-32.68,1.91-49.05c4.86,10.26,6.08,21.18,6.3,32.41c0.28,14.74-1.33,29.57,2.33,44.21
			c1.41,5.65-0.01,11.84-4.12,15.77C1396.27,750.81,1387.81,766.49,1373.77,777.04z"/>
		<path class="st13" d="M996.57,488.13c-0.27,9.77-0.54,19.55-0.81,29.32c-4.71-27.04-1.96-54.34-2.15-81.49
			c-0.77-114.4-0.7-228.8-0.77-343.2c0-6.46-2.04-13.52,3.14-19.23c0.19,1.15,0.38,2.31,0.57,3.47c5.34,5.94,4.83,13.35,4.85,20.48
			c0.15,43.72,0.03,87.44,0.12,131.16c0.01,7.36-1.75,14.22-3.78,21.12c7.4,36.02,2.2,72.42,3.33,108.63
			C1001.67,401.7,1003.16,445.06,996.57,488.13z"/>
		<path class="st1" d="M974.92,440.71c-0.19-48.32-0.49-96.64-0.53-144.96c-0.05-74.04,0.07-148.08,0.12-222.12
			c3,2.77,2.82,6.38,2.81,10.02c-0.41,117.01-0.81,234.04-1.26,351.05C976.06,436.72,975.32,438.72,974.92,440.71z"/>
		<path class="st18" d="M1267.88,472.92c2.32,3.58,6.02,3.22,9.56,3.34c30.14,35.38,62.36,68.79,95.95,100.88
			c2.96,2.82,8.96,5.26,6.15,10.79c-2.11,4.16-7.32,2.77-11.31,2.84c-34.33,0.56-68.23-3.9-102.19-8.21
			c-20.24-2.57-40.79-2.28-61.18-3.63c-20.89-1.39-41.78-2.03-62.41-5.94c-5.02-0.95-9.37-1.03-10.34,5.49
			c-9.76-2.92-21.55-1.19-27.72-12.28c0.28-4.14,2.94-6.88,5.58-9.64c32.19-19.29,65.71-36.23,97.87-55.58
			c14.54-8.75,30.26-15.31,44.59-24.5C1256.88,473.61,1261.65,469.26,1267.88,472.92z"/>
		<path class="st19" d="M1172.35,593.91c41.12,11.63,82.32,23.03,120.23,43.57c2.24,1.22,5.24,2.08,4.11,5.24
			c-0.54,1.51-2.84,3.04-4.59,3.39c-12.86,2.65-21.04,13.55-32.95,18.32c-8.26,3.31-15.02,11.2-9.52,22.34
			c-24.6-19.74-52.89-35.39-70.05-63.34c-2.89-4.69-8.39-8.78-1.54-15.81C1184.04,601.45,1172.94,599.17,1172.35,593.91z"/>
		<path class="st20" d="M1110.77,559.95c-2.13,2.08-4.26,4.15-6.39,6.23c-4.24,0.24-8.95-1.55-12.2,2.89
			c-15.46,2.43-30.97,4.12-46.66,2.94c0.52-6.04,4.93-6.06,9.36-6.07c6.92-4.98,10.42-12.53,14.95-19.41
			c7.03-10.66,15.93-11.53,23.7-1.62C1098.48,551.24,1105.13,554.87,1110.77,559.95z"/>
		<path class="st19" d="M1141.42,581.53c9.98,2.51,20,4.93,27.82,12.31C1156.8,596.93,1149.98,587.23,1141.42,581.53z"/>
		<path class="st21" d="M602.61,782.05c88.54-69.89,174.74-137.93,260.95-205.97c1.55,0.42,3.1,0.85,4.64,1.26
			c0,20.93-0.57,41.89,0.11,62.79c2.24,69.59,4.96,139.19,7.38,208.78c0.21,6.14,2.98,14.37-9.32,10.72
			C779.62,833.96,692.78,808.54,602.61,782.05z"/>
		<path class="st21" d="M705,212.9c1.76-4.51-3.29-13.51,8.92-10.6c82.81,19.69,165.73,38.87,251.42,58.86
			c-7.81,6.63-13.61,11.93-19.78,16.76c-75.28,58.94-150.55,117.9-226.12,176.45c-4.49,3.47-7.95,12.04-16.53,7.44
			c2.12-5.5,1.09-11.24,1.1-16.86c0.08-72.23,0.03-144.47,0.11-216.7C704.11,223.14,703.15,217.93,705,212.9z"/>
		<path class="st21" d="M706.46,473.08c86.77-67.94,171.75-134.46,259.98-203.53c-4.36,13.47-7.42,23.38-10.76,33.21
			c-27.69,81.35-55.64,162.63-82.92,244.11c-4.11,12.26-6.92,16.38-20.3,8.54C805.06,527.59,756.78,501.29,706.46,473.08z"/>
		<path class="st21" d="M708.5,194.44c38.76-42.96,75.57-83.74,113.05-125.27c47.63,61.4,94.52,121.82,143.78,185.31
			C878.03,234.07,794.64,214.57,708.5,194.44z"/>
		<path class="st21" d="M600.57,788.28c89.16,26.17,175.33,51.46,261.29,76.69c0.34,4.73-2.92,4.2-5.05,4.81
			c-66.78,18.92-133.61,37.73-200.37,56.75c-6.88,1.96-11.69,4.27-14.73-5.95C628.83,877.21,614.94,834.15,600.57,788.28z"/>
		<path class="st21" d="M597.22,777.96c-12.04-33.98-23.37-66.33-35.02-98.57c-3.69-10.19,5.3-8.39,9.36-9.76
			c60.36-20.31,120.83-40.27,181.29-60.25c30.63-10.13,61.32-20.11,93.42-28.01C763.75,646.5,681.25,711.64,597.22,777.96z"/>
		<path class="st21" d="M648.05,587.28c-20.69,1.39-41.4,2.77-65.72,4.4c30.4-29.27,58.22-56.21,86.24-82.93
			c10.74-10.23,21.12-26.62,33.15-28.09c12.02-1.47,26,12.01,38.95,19.22c37.59,20.93,75.11,42.02,115.7,64.76
			c-12.09,1.91-21.14,3.34-30.2,4.77c-11.43,6.02-23,8.44-36.45,7.9c-21.89-0.89-43.72,3.76-65.6,5.77
			C698.8,585.4,673.53,587.93,648.05,587.28z"/>
		<path class="st21" d="M955.98,572.69c-23.52-2.19-47.02-4.67-70.56-6.43c-8.15-0.61-12.37-1.62-8.95-11.57
			c30.5-88.75,60.65-177.63,91.97-269.62c4.79,18.65-1.76,34.74,2.58,50.12c-2.24,7.58-1.1,15.35-1.11,23.03
			c-0.11,67.45-0.24,134.91,0.12,202.35C970.07,571.44,967.35,576.41,955.98,572.69z"/>
		<path class="st21" d="M879.97,874.01c28.79,50.2,56.09,97.82,84.65,147.65c-52.41,6.34-102.63,12.41-155.73,18.84
			C832.87,984.34,855.92,930.34,879.97,874.01z"/>
		<path class="st21" d="M828.93,68.13c45.96,4.31,87.91,8.18,129.86,12.24c5.2,0.5,11.85-0.89,11.84,8.19
			c-0.13,52.32-0.07,104.63-0.07,161.88C922.15,188.11,876.68,129.59,828.93,68.13z"/>
		<path class="st21" d="M882.65,861.17c-3.3-90.92-6.51-179.14-9.72-267.38c0.8-0.28,1.6-0.54,2.4-0.82
			c4.79,10.98,9.7,21.91,14.33,32.95c24.25,57.86,48.21,115.85,72.82,173.55c4.1,9.62,4.14,14.9-6.26,20.31
			C932.13,832.35,908.8,846.33,882.65,861.17z"/>
		<path class="st21" d="M870.04,880.89c-21.62,50.47-43.33,100.88-64.73,151.44c-2.43,5.73-4.2,7.9-11.07,5.63
			c-36.48-12.08-73.17-23.49-113.35-36.26c63.97-42.18,125.54-82.76,187.1-123.35C868.66,879.19,869.35,880.04,870.04,880.89z"/>
		<path class="st21" d="M873.86,571.59c30.54,2.61,58.61,5.13,86.68,7.34c5.67,0.45,8.13,2.39,8.13,8.4
			c-0.13,67.63-0.09,135.27-3.08,203.55C935.28,718.41,904.97,645.95,873.86,571.59z"/>
		<path class="st21" d="M828.89,578.27c-76.67,25.05-153.35,50.09-230.01,75.16c-12.06,3.94-24.11,7.91-38.31,12.57
			c4.45-21.09,8.59-39.97,12.34-58.92c1.3-6.58,5.49-7.45,11.08-8.01c27.12-2.73,54.2-5.82,81.3-8.78
			c17.83-7.11,37.06-7.09,55.5-8.06c27.36-1.44,54.34-9.17,82-5.43c3.91,0.53,6.48-3.39,9.81-3.65
			C818.49,572.69,825.95,568.86,828.89,578.27z"/>
		<path class="st21" d="M967,820.8c0,63.48,0,124.95,0,186.41c-0.87,0.21-1.75,0.44-2.62,0.65
			c-25.53-44.45-50.96-88.96-76.73-133.26c-3.26-5.62-1.74-7.94,3.14-10.67C915.8,849.9,940.72,835.69,967,820.8z"/>
		<path class="st21" d="M698.98,216.16c-0.01,48.95-0.01,97.91-0.03,146.85c-2.56,27.25-0.25,54.58-1.41,81.84
			c-0.16,3.87,4.75,10.66-4.06,11.98c-17.75-30.65-35.14-61.51-53.5-91.79c-4.85-8.01-5.28-14.16-1.38-22.48
			c19.59-41.9,38.63-84.07,57.85-126.15C697.14,214.84,697.99,214.81,698.98,216.16z"/>
		<path class="st21" d="M848.35,883.46c-55.41,36.47-109.27,71.52-162.57,107.36c-9.93,6.67-13.12,4.11-16.85-5.49
			c-5.21-13.42-11.27-26.53-17.45-39.53c-3.22-6.77-3.82-10.25,5.29-12.77c59.43-16.42,118.68-33.51,177.99-50.37
			C838.69,881.54,842.61,881.2,848.35,883.46z"/>
		<path class="st21" d="M690.12,478.91c-39.66,38.11-76.79,73.78-115.94,111.39c-5.89-28.16-10.99-53.58-16.64-78.9
			c-1.63-7.32,1.94-8.93,7.7-9.96C605.6,494.22,645.93,486.89,690.12,478.91z"/>
		<path class="st21" d="M556.75,496.61c7.79-28.04,14.97-53.21,21.73-78.5c1.74-6.51,2.81-10.43,10.82-5.66
			c32.57,19.39,65.45,38.26,101.89,59.45C644.66,480.45,601.92,488.31,556.75,496.61z"/>
		<path class="st21" d="M685.72,461.12c-30.95-18.02-61.85-36.12-92.9-53.97c-5.7-3.27-7.68-5.67-1.86-10.99
			c10.98-10.02,21.5-20.53,32.05-31.02c3.78-3.76,6.38-6.1,10.14,0.42c18.12,31.3,36.6,62.4,54.96,93.55
			C687.32,459.78,686.52,460.45,685.72,461.12z"/>
		<path class="st21" d="M954.66,73.5c-40.95-3.92-81.9-7.85-125.96-12.06c14.14-15.17,26.33-28.17,38.43-41.25
			c2.86-3.09,5.38-3.74,9.24-1.18c26.34,17.45,52.83,34.66,79.26,51.96C955.29,71.82,954.97,72.67,954.66,73.5z"/>
		<path class="st21" d="M879.57,13.57c21.01-3.14,38.01-5.77,55.04-8.17c3.87-0.54,7.91-1.51,9.93,4.14
			c6.79,19.08,14.01,38.01,22.47,60.78C936.75,50.67,909.94,33.28,879.57,13.57z"/>
		<path class="st21" d="M816.73,1046.1c41.96-5.08,83.01-10.05,126.11-15.27c-8.58,8.4-18.44,10.53-26.98,14.89
			c-10.03,5.13-20.41,9.6-30.67,14.29C853.42,1074.54,845.5,1073.01,816.73,1046.1z"/>
		<path class="st21" d="M708.53,184.73c4.51-18.47,7.9-32.38,11.29-46.3c0.85-3.49,1.43-6.97,4.93-9.17
			c21.62-13.56,43.18-27.21,64.76-40.84c0.95,1.03,1.9,2.05,2.85,3.09C765.42,121.46,738.49,151.42,708.53,184.73z"/>
		<path class="st21" d="M640.99,316.31c5.33-26.62,9.44-53.57,16.42-79.75c4.15-15.54,22.55-17.72,35.02-26.62
			c-16.25,35.53-32.5,71.07-48.77,106.59C642.78,316.47,641.89,316.39,640.99,316.31z"/>
		<path class="st21" d="M874.1,1072.18c30.36-14.03,57.05-26.35,87.82-40.58c-8.1,14.44-14.3,25.23-20.23,36.18
			c-2.88,5.3-7.73,4.32-12.17,4.35C912.58,1072.26,895.64,1072.18,874.1,1072.18z"/>
		<path class="st21" d="M626.69,902.95c-12.47-19.26-25.05-38.47-37.38-57.82c-5.18-8.14,0.38-15.95,1.58-23.82
			c0.99-6.6,2.7-13.08,6.68-20.35c10.57,33.62,21.13,67.22,31.7,100.84C628.38,902.18,627.53,902.57,626.69,902.95z"/>
		<path class="st1" d="M766.15,574.52c0.48-0.04,0.96-0.05,1.43,0.01c1.32,0.16,2.66,0.17,3.99,0.03c1.2-0.13,2.38-0.4,3.57-0.59
			c3.19-0.53,6.43-0.52,9.66-0.44c1.19,0.03,2.38,0.07,3.55-0.12c1.25-0.21,2.34-0.85,3.55-1.13c0.89-0.21,1.94,0.09,2.85,0.19
			c2.45,0.26,4.87,0.69,7.28,1.2c6.15,1.31,15.4-5.45,24.15-4.24c4.22,5,10.7,1.03,15.67,3.98c-3.09,5.16-8.03,5.02-12.96,4.88
			c-15.48-6.67-30.66,0.54-45.85,1.55c-39.3,2.6-78.5,6.87-117.74,10.46c-5.14-4.47-11.55-1.64-17.23-3
			c35.41-6.26,71.32-8.14,107.04-11.4c2.92-0.26,5.82-0.63,8.72-1.03c5.26-0.73,10.84-0.21,16.14-0.21c3.52,0,7.04,0,10.56,0"/>
		<path class="st21" d="M805.1,70.65c-26.88,17.09-50.44,32.05-74.94,47.62C740.29,80.1,748.77,74.56,805.1,70.65z"/>
		<path class="st1" d="M698.98,216.16c-0.85,0.03-1.7,0.11-2.53,0.27c-0.19-8.55,5.67-2.41,8.55-3.53
			c0.3,82.97,1.15,165.94-2.08,248.88c-0.15-76.1-0.24-152.22-0.57-228.32C702.31,227.64,704.92,220.97,698.98,216.16z"/>
		<path class="st1" d="M955.98,572.69c9.8,1.55,12.75-2.29,12.74-12.41c-0.12-69.44,0.41-138.87,0.85-208.31
			c0.04-5.59,0.94-11.17,1.44-16.77c0.15,76.26,0.24,152.54,0.46,228.8C971.52,576.65,965.68,577.92,955.98,572.69z"/>
		<path class="st21" d="M560.62,693.82c8.46,24.06,16.29,46.37,24.59,69.98C562.19,745.63,550.26,724.75,560.62,693.82z"/>
		<path class="st21" d="M774,1038.26c-30.98,6.4-54.77-0.68-75.63-24.1C724.04,1022.33,747.69,1029.86,774,1038.26z"/>
		<path class="st21" d="M647.18,253.55c-4.77,23.16-9.04,43.81-13.3,64.48C628.99,295.34,626.83,273.24,647.18,253.55z"/>
		<path class="st1" d="M693.5,456.85c6.54-3.18,3.05-9.09,3.3-13.65c1.47-26.7-0.95-53.5,2.16-80.17
			c0.2,29.47,0.48,58.95,0.46,88.43C699.44,454.52,701.49,461.79,693.5,456.85z"/>
		<path class="st21" d="M619.95,904.58c-13.61-6.52-22.84-16.11-22.43-35.13C606.1,882.91,613.02,893.75,619.95,904.58z"/>
		<path class="st22" d="M996.28,250.11c0.09-57.7,0.19-115.42,0.28-173.13c44.29-3.76,88.59-7.32,132.84-11.55
			c6.07-0.58,10.02,0.61,13.11,5.25c2.68,4.02-0.52,6.51-2.89,9.27c-32.66,37.95-65.22,76-96.01,115.53
			c-14.42,18.51-29.56,36.45-44.37,54.67C998.24,251.6,997.26,251.58,996.28,250.11z"/>
		<path class="st23" d="M996.57,488.13c-0.05-43.27-0.11-86.52-0.16-129.79c4.12-18.43,19.01-28.61,31.54-40.33
			c8.44-7.9,10.27-14.83,4.52-25.44c-7.83-14.44-3.83-24.03,11.61-27.67c11.55-2.72,17.05-12.67,26.27-17.86
			c6.38-5.04,14.78-2.97,21.66-6.23c12.79-0.21,10.15,8.47,5,12.55c-12.78,10.11-18.27,25.86-30.32,36.22
			c-7.52,6.46-6.69,12.91-0.64,19.82c6.11,6.96,13.49,12.43,20.36,18.52c5.45,4.83,13.07,8.74,11.74,18.15
			c-4.53,12.09-15.01,19.25-23.45,28.04c-6.08,6.34-12.05,12.43-14.16,21.45c-0.89,3.79-2.16,8.54-7.29,8.7
			c-4.4,0.15-5.02-4.44-7.05-7.24c-2.39-3.29-4.56-6.88-7.52-9.58c-6.19-5.66-8.95-5.17-12.08,4.16
			c-8.35,24.92-10.62,51.99-25.96,74.53C996.29,472.62,1002.38,481.59,996.57,488.13z"/>
		<path class="st24" d="M1098.17,346.1c-8.48-14.05-23.94-20.71-34.41-32.74c-11.2-12.87-11.52-16.97,1.09-27.68
			c12.01-10.21,15.68-27.36,30.69-35.39c4.65-2.49,3.29-8.29-3.53-9.45c1.39-2.9,3.45-5.14,6.67-5.83
			c44.13-9.53,87.82-20.69,130.93-34.11c2.35-0.73,5.06-0.21,7.62-0.28c-18.08,11.63-31.3,29.75-51.47,38.62
			c-2.24,0.98-4.29,2.97-5.79,4.97c-20.26,27.08-45.03,50-67.96,74.61c-6.61,7.09-14.14,15.72-7.65,27.33
			C1102.29,346.13,1100.22,346.11,1098.17,346.1z"/>
		<path class="st25" d="M1070.34,247.05c-5.4,11.86-13.03,20.55-27.2,21.83c-11.44,1.03-14.4,11.68-9.41,17.63
			c14.81,17.7,5.4,29.31-7.86,39.28c-12.12,9.11-20,21.38-29.46,32.53c-0.04-36.07-0.09-72.15-0.13-108.22
			c0.99,0.01,1.98,0.01,2.96,0.01c1.87,8.67,7.52,5.36,12.99,4.55C1031.57,251.87,1050.96,249.56,1070.34,247.05z"/>
		<path class="st26" d="M1194.01,937.6c7.03,5.13,14.37,9.88,21,15.47c11.84,10,10.74,16.49-2.94,22.3
			c-3.74,1.59-8.63,3.14-10.39,6.22c-8.76,15.24-19.95,26.47-37.29,32.32c-7.94,2.68-3.35,12.91-4.39,19.73
			c-13.85-23.49-23.37-49.02-32.98-74.31c-6.6-17.38,0.94-30.38,18.24-38.96c3.51-1.75,8.46-1.68,8.47-7.38
			C1172.4,912.56,1183.95,923.87,1194.01,937.6z"/>
		<path class="st27" d="M1194.01,937.6c-13.52-8.06-24.63-20.08-40.29-24.63c-19.62-13.43-39.25-26.87-58.87-40.3
			c9.19-6.1,17.41,0.32,25.54,2.64c39.05,11.14,77.91,22.93,116.84,34.49c8.6,8.99,4.47,14.17-4.68,19.53
			C1220.41,936.45,1208.02,940.28,1194.01,937.6z"/>
		<path class="st28" d="M1141.43,373.98c-0.29-5.51,1.01-10.1,6.64-12.54c13.31-5.77,20.08-18.16,29.4-28.21
			c18.25-19.69,35.79-40.07,55.73-58.25c9.57-8.72,17.54-17.58,31.84-12.47c-0.74,31.17,3.18,62.62-6.03,93.28
			c-1.82,6.07-3.59,12.12-8.87,15.72c-18.13,12.41-26.14,33.86-42.75,47.59c-0.93,0.77-0.73,2.9-1.06,4.4
			c-3.55,3.38-6.93,1.34-10.35-0.29c-14.9-11.28-31.4-20.77-42.15-36.84C1150.83,381.11,1146.68,376.99,1141.43,373.98z"/>
		<path class="st29" d="M1197.07,420.43c3.09,1.03,6.18,2.05,9.27,3.09c17.09,14.48,34.19,28.92,51.23,43.44
			c3.54,3.02,6.85-0.37,10.26,0.03c0.13,1.01,0.28,2.03,0.45,3.02c-0.2,0.95-0.32,1.94-0.38,2.9
			c-52.38,29-104.75,58.02-157.11,87.03c-7.94,0.46-13.83-0.5-18.29-9.46c-6.69-13.46-14.13-12.38-21.3,1.39
			c-3.55,6.84-4.41,16.88-16.29,14.06c0.29-12.94,7.4-24.67,5.62-38.28c-0.77-5.85,2.24-13.75,10.17-15.32
			c7.08-1.41,9.17,5,11.94,9.74c1.44,2.48,3.66,3.35,6.28,3.65c7.7,1.01,13.65-1.8,19.02-7.44c24.55-25.84,51.25-49.75,69.79-80.85
			C1182.18,429.93,1189.63,424.99,1197.07,420.43z"/>
		<path class="st30" d="M1197.07,420.43c-9.03,13.1-18.57,26.04-28.43,38.24c-19.21,23.78-41.66,44.93-62.81,67.13
			c-5.62,5.91-11.33,9.72-16.94-0.07c-10.51-19.73-20.2-39.78-24.74-61.89c21.22,5.43,29.99-10.64,39.5-23.94
			c11.8-16.49,30.38-27.07,39.01-46.36c1.51-3.38,7.33-4.81,11.15-7.15C1168.25,397.73,1182.66,409.08,1197.07,420.43z"/>
	</g>
	<path class="st31" d="M783.04,579.82"/>
	<path class="st1" d="M801.57,571.35c-4.92,0.43-10.91,0.95-18.19,1.57c-0.7,0.23-1.44,0.37-2.23,0.44
		c-0.79,0.07-1.57,0.05-2.35-0.02c-0.34,0.07-0.68,0.14-1.01,0.23c-0.94,0.25-1.87,0.55-2.78,0.89c-0.24,0.09-0.48,0.19-0.73,0.29
		l21.07,1.96c0.41-0.04,0.82-0.09,1.23-0.13c0.43-0.04,0.75,0.1,0.96,0.33l3.88,0.36l11.25-3.97l11.37-4.01
		C823.42,569.38,819.83,569.75,801.57,571.35z"/>
	<path class="st1" d="M764.13,574.26"/>
	<line class="st32" x1="766.64" y1="575.32" x2="791.64" y2="575.32"/>
	<path class="st32" d="M773.11,573.84c6.15-0.41,12.99,0.48,18.88-1.6c-0.29-0.09-0.59-0.18-0.88-0.27"/>
</g>
</svg>
