<?xml version="1.0" standalone="no"?>
<!DOCTYPE svg PUBLIC "-//W3C//DTD SVG 20010904//EN"
 "http://www.w3.org/TR/2001/REC-SVG-20010904/DTD/svg10.dtd">
<svg version="1.0" xmlns="http://www.w3.org/2000/svg"
 width="1067.000000pt" height="600.000000pt" viewBox="0 0 1067.000000 600.000000"
 preserveAspectRatio="xMidYMid meet">

<g transform="translate(0.000000,600.000000) scale(0.100000,-0.100000)"
fill="#000000" stroke="none">
<path d="M5067 4285 c-239 -39 -478 -155 -664 -323 -191 -172 -315 -379 -389
-647 -46 -166 -44 -465 5 -655 40 -156 152 -378 233 -462 l47 -48 978 0 c909
1 979 2 998 18 55 46 156 212 205 336 192 488 92 1019 -263 1393 -177 186
-406 312 -681 374 -120 27 -347 34 -469 14z m335 -135 c161 -16 177 -22 248
-102 55 -61 63 -75 67 -116 2 -26 13 -91 26 -146 l22 -98 76 5 c65 4 93 12
179 53 l103 48 42 -48 c46 -53 144 -203 151 -233 4 -13 -8 -27 -40 -51 -74
-51 -88 -82 -83 -177 3 -56 13 -99 31 -142 30 -72 32 -106 11 -156 -8 -20 -15
-57 -15 -82 0 -38 5 -52 29 -76 27 -26 36 -29 95 -29 l66 0 0 -36 c0 -77 -90
-297 -172 -416 l-39 -58 -925 0 -924 0 -48 73 c-79 122 -180 394 -170 459 2
15 29 32 102 64 115 50 138 68 134 103 -2 20 -11 28 -41 36 -21 6 -42 17 -46
24 -5 7 -26 23 -46 35 -33 18 -41 30 -58 86 -11 36 -20 88 -20 115 0 95 115
330 217 442 l44 48 12 -30 c6 -16 30 -97 52 -180 51 -192 86 -258 199 -379
103 -109 120 -117 230 -96 123 23 180 -20 193 -146 7 -64 10 -71 57 -121 85
-90 97 -148 53 -268 -36 -98 -38 -110 -19 -128 21 -22 46 -9 73 37 12 20 45
49 83 71 74 43 251 207 297 275 19 28 35 67 38 94 6 42 5 45 -17 50 -189 39
-180 36 -234 87 l-52 49 -102 0 c-141 0 -184 23 -241 128 l-25 47 -70 0 -70 0
-3 37 c-5 61 21 78 120 78 97 0 118 13 118 71 0 34 5 41 63 82 34 25 83 64
110 87 40 36 47 47 47 79 0 25 -10 53 -31 85 -49 73 -77 81 -179 45 -75 -26
-105 -23 -105 11 0 21 11 30 63 55 84 40 93 57 52 95 -41 38 -81 41 -195 14
-85 -20 -270 -31 -261 -15 12 19 134 76 237 110 173 58 293 70 491 51z"/>
<path d="M4517 1930 c-92 -4 -172 -11 -177 -16 -18 -18 -22 -68 -6 -89 14 -19
28 -20 460 -23 l446 -3 0 70 0 71 -277 -2 c-153 -1 -354 -4 -446 -8z"/>
<path d="M5460 1864 l0 -66 363 4 c199 2 370 8 380 12 45 21 29 99 -23 110
-18 3 -187 6 -376 6 l-344 0 0 -66z"/>
<path d="M4480 1579 c-48 -15 -60 -27 -60 -60 0 -42 35 -60 130 -66 l80 -6 0
50 c0 27 -6 56 -12 65 -16 21 -93 30 -138 17z"/>
<path d="M4850 1520 l0 -70 315 0 315 0 0 70 0 70 -315 0 -315 0 0 -70z"/>
<path d="M5710 1517 l0 -77 153 1 c245 1 287 13 287 79 0 55 -19 61 -239 67
l-201 6 0 -76z"/>
<path d="M4587 1233 c-67 -4 -69 -4 -83 -39 -17 -40 -11 -69 16 -84 11 -6 130
-13 266 -17 l247 -6 -7 69 c-4 37 -8 69 -10 71 -5 5 -363 10 -429 6z"/>
<path d="M5313 1223 c-56 -4 -63 -6 -69 -27 -3 -13 -4 -37 -2 -52 l3 -29 325
-3 c179 -1 359 1 400 5 75 8 75 8 78 39 2 19 -3 36 -13 44 -23 19 -510 35
-722 23z"/>
<path d="M4780 833 c-124 -5 -137 -23 -72 -94 110 -123 296 -212 478 -230 188
-17 345 15 499 104 125 72 195 143 195 196 0 21 -3 21 -188 21 -104 0 -330 2
-503 4 -173 2 -357 2 -409 -1z"/>
</g>
</svg>
