<?xml version="1.0" encoding="utf-8"?>
<!-- Generator: Adobe Illustrator 25.2.3, SVG Export Plug-In . SVG Version: 6.00 Build 0)  -->
<svg version="1.1" id="Layer_1" xmlns="http://www.w3.org/2000/svg" xmlns:xlink="http://www.w3.org/1999/xlink" x="0px" y="0px"
	 viewBox="0 0 1920 1080" style="enable-background:new 0 0 1920 1080;" xml:space="preserve">
<style type="text/css">
	.st0{fill:#7997CD;}
	.st1{fill:url(#SVGID_1_);stroke:#000000;stroke-miterlimit:10;}
	.st2{fill:#90B3DF;}
	.st3{fill:#CC5280;}
	.st4{fill:#7965A7;}
	.st5{fill:#8477B4;}
	.st6{fill:#9F79BA;}
	.st7{fill:#87A9D9;}
	.st8{fill:#9384BA;}
	.st9{fill:#AB578B;}
	.st10{fill:#BB5F8F;}
	.st11{fill:#7872B2;}
	.st12{fill:#A1A6E5;}
	.st13{fill:#A66698;}
	.st14{fill:#B499D6;}
	.st15{fill:#D27296;}
	.st16{fill:#9C8FBF;}
	.st17{fill:#AFC3E1;}
	.st18{fill:url(#SVGID_2_);}
	.st19{fill:#9A9AD8;}
	.st20{fill:#7FABDC;}
	.st21{fill:#957CB0;}
	.st22{fill:#F6F6F6;stroke:#000000;stroke-miterlimit:10;}
	.st23{fill:#F6F6F5;stroke:#000000;stroke-miterlimit:10;}
	.st24{fill:#F5F5F5;stroke:#000000;stroke-miterlimit:10;}
	.st25{fill:#F5F5F4;stroke:#000000;stroke-miterlimit:10;}
	.st26{fill:#F4F5F4;stroke:#000000;stroke-miterlimit:10;}
	.st27{fill:#F3F3F2;stroke:#000000;stroke-miterlimit:10;}
	.st28{fill:#F1F1F0;stroke:#000000;stroke-miterlimit:10;}
	.st29{fill:#EDEDEC;stroke:#000000;stroke-miterlimit:10;}
	.st30{fill:#F2F2F0;stroke:#000000;stroke-miterlimit:10;}
	.st31{fill:url(#SVGID_3_);stroke:#000000;stroke-miterlimit:10;}
	.st32{fill:#F0F0EF;stroke:#000000;stroke-miterlimit:10;}
	.st33{fill:url(#SVGID_4_);stroke:#000000;stroke-miterlimit:10;}
	.st34{fill:url(#SVGID_5_);stroke:#000000;stroke-miterlimit:10;}
	.st35{fill:#E6E7E4;stroke:#000000;stroke-miterlimit:10;}
	.st36{fill:#ECECEB;stroke:#000000;stroke-miterlimit:10;}
	.st37{fill:#EBEBE8;stroke:#000000;stroke-miterlimit:10;}
	.st38{fill:url(#SVGID_6_);stroke:#000000;stroke-miterlimit:10;}
	.st39{fill:#DDDDDB;stroke:#000000;stroke-miterlimit:10;}
	.st40{fill:#C7386D;}
	.st41{fill:#B84A7D;}
	.st42{fill:#BE5586;}
	.st43{fill:#C14176;}
	.st44{fill:#8C7AB4;}
	.st45{fill:#A595C6;}
	.st46{fill:#AD6FB2;}
	.st47{fill:#8D6DA0;}
	.st48{fill:#9C619E;}
</style>
<g>
	<path class="st0" d="M968.35,752.08c-1.79-4.87,1.13-9.56,0.57-14.38c10.49-17.78,17.01-37.37,24.64-56.35
		c13.31-33.1,27.38-65.87,41.42-98.65c2.95-6.89,5.34-13.67,5.27-21.2c2.15-3.95,5.57-4,9.31-3.07c6.59,4.26,14.05,6.43,21.42,8.83
		c2.53,0.92,5.09,1.81,7.56,2.9c7.09,3.18,13.16,8.68,21.34,9.42c1.08,0.15,2.11,0.47,3.1,0.93c3.36,2.18,7.26,5.17,6.2,9.07
		c-3.59,13.18,5.13,20.49,12.91,27.58c12.57,11.46,26.04,21.94,39.55,32.31c27.13,21.77,54.55,43.18,81.52,65.14
		c3.55,2.89,7.71,5.51,7.21,11.12c-0.84,3.59-3.65,4.68-6.76,5.53c-63.09,17.1-125.67,35.97-188.21,54.99
		c-4.87,1.48-9.99,1.2-14.81,2.7c-7.01,0.72-12.55-2.94-18.1-6.33C1004.79,771.77,986.71,761.67,968.35,752.08z"/>
	<linearGradient id="SVGID_1_" gradientUnits="userSpaceOnUse" x1="632.8285" y1="540.5385" x2="953.8044" y2="540.5385">
		<stop  offset="1" style="stop-color:#000000"/>
		<stop  offset="1" style="stop-color:#000000"/>
	</linearGradient>
	<path class="st1" d="M952.86,465.64c0.01,35,0.11,70,0.02,105c-0.27,108.17-0.71,216.34-0.86,324.51
		c-0.03,19.87-14.27,32.93-22.18,49c-1.61,3.27-6.2,2.67-9.68,2.74c-17.47,0.35-34.95,0.55-52.42,1c-4.05,0.1-7.7-0.44-10.78-3.18
		c-22.76-20.16-50-24.68-79.03-22.42c-7.86,0.61-13.66-2.63-20.25-6.41c-24.91-14.27-42.72-33.88-50.75-61.83
		c-4.96-17.28-20.41-25.76-31.5-37.97c-14.9-16.4-22.28-36.74-18.18-58.33c6.34-33.39,7.74-33.33-15.09-57.88
		c-6.48-6.97-9.05-14-9.26-23.75c-0.61-27.56,4.49-54.13,10.98-80.57c2-8.13,2.25-15.94,0.32-24.08
		c-3.04-12.85-5.17-25.93-8.47-38.71c-3.79-14.66-4.46-28.92,1.59-43.14c1.36-3.19,2.35-6.66,2.83-10.09
		c4.33-31.07,18.65-56.16,44.15-74.62c4.62-3.35,5.93-7.68,5.38-13.17c-0.51-5.02,0.38-10.28-0.69-15.13
		c-5.67-25.58,3.68-46.87,17.76-67.21c7.65-11.04,19.77-16.02,29.95-23.57c6.01-4.45,9.68-9.14,11-16.66
		c4.58-26.17,13.78-50.78,26.16-74.27c2.82-5.34,6.16-8.17,12.41-8.66c8.88-0.69,17.64-3.42,26.5-3.63
		c16.64-0.41,30.22-6.18,39.1-20.44c12.91-20.73,32.8-25.65,55.29-27.8c24.69-2.36,24.65-3.43,32.97,19.31
		c4.26,11.64,8.29,23.37,12.42,35.05c1.84,2.84,1.11,6.04,1.11,9.09c0.04,86.2,0.03,172.4,0.02,258.6
		C953.68,459.51,953.97,462.65,952.86,465.64z"/>
	<path class="st2" d="M1101.79,581.21c-0.78-0.02-1.55-0.04-2.33-0.06c-7.53-1.9-14.03-6.12-20.99-9.29
		c-2.57-0.08-5.3,0.32-7.03-2.31c-2.12-7.91,3.85-7.49,8.06-6.86c19.25,2.88,38.66,3.7,58.02,4.44c33.78,1.29,67.13,7.28,100.9,8.25
		c4.19,0.12,8.55,0.85,13.01-1.54c-0.73-5.47-5.01-8.53-8.61-11.67c-20.85-18.2-39.37-38.6-56.99-59.86
		c-2.51-3.03-7.16-5.49-4.19-10.78c7.27-3.08,14.49-0.54,21.52,0.67c24.95,4.29,49.59,10.66,75.17,10.37
		c1.15-0.01,2.12,0.84,3.08,1.48c6.65,12.99-1.71,24.86-3.13,37.18c-1.5,12.99-5.31,25.71-7.94,38.58
		c-1.88,9.16,2.5,17.46,3.96,26.17c0.83,4.95,1.64,9.9,2.46,14.85c7.73,33.12-4.06,62.1-19.32,90.24c-1.47,2.72-3.16,5.21-3.69,8.3
		c-0.27,2.99-0.55,5.98-0.82,8.96c-3.98,0.75-2.32-3.54-4.18-4.68c-23.97-19.39-47.97-38.75-71.91-58.18
		c-5.68-4.61-11.17-9.46-16.75-14.2c-4.92-8.95-3.86-13.28,5.99-19.64c7.42-4.79,15.6-8.41,22.37-14.65
		c-4-4.86-9.45-6.81-14.81-8.91c-18.44-7.23-37.21-13.55-56.12-19.42C1111.91,586.88,1106.76,584.26,1101.79,581.21z"/>
	<path class="st3" d="M968.75,188.65c5.81-16.42,11.73-32.81,17.38-49.28c1.64-4.77,4.79-5.4,9.05-4.75
		c15.31,2.35,30.62,4.71,45.95,6.86c3.43,0.48,5.55,2.56,7.7,4.76c2.98,3.05,6.39,5.88,8.65,9.42
		c14.2,22.32,35.45,30.62,60.68,31.31c2.97,1.36,10.4-0.94,5.43,6.89c-3.53,5.56-0.33,9.72,3.66,13.16
		c5.83,5.03,8.35,10.92,6.63,18.63c-1.4,6.28,1.32,11.34,5.37,15.92c5.92,6.68,11.53,13.61,17.85,19.97
		c4.54,4.57,9.62,9.36,8.86,16.95c-3.12,6.38-8.82,8.44-15.28,9.28c-6.83-0.49-12.87,2.61-19.13,4.46
		c-24.53,7.28-49.3,13.57-74.24,19.24c-5.25,1.19-10.72,1.98-15.24,5.37c-5.71,3.14-12.15,3.72-18.29,5.38
		c-13.69,2.9-27.57,4.6-41.43,6.38c-4.92,0.63-10.35,1.84-12.77-4.68c4.77-13.92,15.7-23.59,24.3-34.84
		c24.56-32.12,51.23-62.53,76.65-93.96c1.45-1.79,3.15-3.45,3.43-5.98c-1.38-3.53-4.45-2.62-6.95-2.4
		c-27.44,2.38-54.92,4.2-82.33,6.88c-5.4,0.53-10.86,1.45-15.85-1.78C967.86,190.8,967.84,189.73,968.75,188.65z"/>
	<path class="st4" d="M1095.2,920.45c-11.67,7.48-23.37,14.91-34.99,22.46c-3.43,2.23-7.11,2.66-11.05,2.6
		c-15.44-0.23-30.89-0.53-46.33-0.47c-8.07,0.03-13.79-2.41-17.39-10.38c-4.11-9.1-9.46-17.64-14.27-26.42
		c-2.67-4.45-0.25-8.24,1.73-11.94c17.75-33.19,37.53-65.22,55.74-98.15c2.22-4.02,4.3-8.39,9.22-10.01
		c2.37-0.24,4.63,0.07,6.7,1.32c11.74,7.16,23.24,14.7,34.6,22.47c4.11,2.81,8.4,5.42,9.96,10.63c0.35,4.4-3.04,5.79-5.98,7.7
		c-13.85,8.97-16.47,15.88-10.37,31.31c6.72,16.98,14.04,33.72,21.58,50.37C1095.5,914.69,1096.61,917.45,1095.2,920.45z"/>
	<path class="st5" d="M1043.32,791.5c-1.5-0.79-3-1.58-4.49-2.38c-0.79-0.48-1.06-0.97-0.81-1.48s0.51-0.76,0.77-0.76
		c29.59-8.61,59.21-17.11,88.76-25.87c22.06-6.54,43.79-14.38,66.12-19.8c16.97-4.11,33.05-11.67,50.69-13.04
		c2.79-0.22,3.96-2.02,4.38-4.54c1.39,1.56,2.79,3.12,4.18,4.69c1.05,6.25,2.11,12.49,3.17,18.74c-4.82,4.63-7.67,10.14-9.85,16.61
		c-6.52,19.39-14.13,38.42-19.53,58.2c-1.13,4.15-3.54,7.68-6.14,11.06c-1.56,1.7-3.12,3.41-4.68,5.11
		c-11.6,2.5-21.83-3.3-32.36-6.11c-11.12-2.97-22.12-6.48-33.39-8.96c-33.37-10.01-67.15-18.66-100.11-30.02
		C1047.8,792.19,1045.69,791.41,1043.32,791.5z"/>
	<path class="st6" d="M1171.79,282.09c9.97,6.62,21.72,11.62,29.53,20.22c13.55,14.91,26.89,31.03,26.35,53.29
		c-0.37,15.07-1.25,30.13-1.9,45.2c0.74,10.33-6.91,17.06-11.65,24.54c-12.93,20.4-21.14,43.9-39.09,61.07
		c-3.42,2.32-7.14,3.34-10.68,0.7c-12.58-9.37-24.77-19.25-36.52-29.65c-1.73-1.53-2.35-3.91-2.35-6.32
		c4.87-13.58,15.53-23.66,25.09-32.84c13.69-13.15,16.57-28.41,17.57-45.09c0.88-14.72,0.26-29.52,0.08-44.31
		c-0.68-11.28-0.35-22.55-0.24-33.81C1168.04,290.47,1167.9,285.64,1171.79,282.09z"/>
	<path class="st7" d="M1041.32,562.47c6.66,11.23-3.16,19.09-6.49,27.76c-11.5,29.88-24.38,59.22-36.67,88.79
		c-7.27,17.49-14.42,35.04-21.62,52.56c-1.42,3.44-3.51,6.04-7.62,6.12c0.02-56.12,0.04-112.24,0.06-168.35
		c11.24-8.75,24.5-7.86,37.57-7.9c7.64,0.01,15.27,0.37,22.88-1.05C1033.52,559.62,1037.84,559.04,1041.32,562.47z"/>
	<path class="st8" d="M1150.74,819.51c21.72,6.18,43.43,12.36,65.15,18.54c-1.62,3.93-3.55,7.76-4.82,11.8
		c-8.94,28.42-25.37,50.43-52.32,64.38c-6.39,3.31-12.18,5.83-19.46,5.74c-14.69-0.2-29.39,0.29-44.09,0.49
		c-0.91-2.51-1.83-5.02-2.74-7.53c-3.73-13.72-3.37-14.84,8.68-20.75c6.04-2.96,11.38-6.56,14.8-12.49
		c3.37-5.85,7.77-10.5,14.09-13.23c7.56-3.27,6.16-7.52,1.32-12.31c-4.53-4.48-12.07-5.81-13.78-13.22c3.1-4.26,7.71-2.59,11.8-3.03
		C1142.07,836.51,1149.14,830.42,1150.74,819.51z"/>
	<path class="st9" d="M968.73,564.79c-0.05-13.75-0.1-27.5-0.15-41.26c-1.75-6.34-0.43-12.82-0.85-19.21
		c2.22-27.26,15.49-51.41,21.93-77.52c1.96-7.92,8.68-8.75,14.96-1.4c6.2,7.26,8.56,7.06,13.22-1.56
		c6.46-11.95,17.93-20.1,26.85-30.26c1.58-0.88,3.27-1.16,5.04-0.96c11.89,4.17,19.61,14.66,30.54,20.31
		c4.08,3.29,8.8,6.14,8.65,12.39c-14.1,18.38-31.29,34.1-45.27,52.59c-6.28,8.31-14.29,9.86-23.71,6.57
		c-4.51-2.43-5.92-7.97-10.67-11.39c-5.57,9.14-10.84,17.84-13.01,27.59c-4.12,18.48-11.27,35.92-16.81,53.9
		C977.65,560.51,981.12,570.56,968.73,564.79z"/>
	<path class="st10" d="M1078.47,415.3c-9.32-7-18.65-14-27.97-21c-5.33-2.96-4.82-7.36-2.94-12.07c2.05-5.13,5.25-9.46,9-13.47
		c16.12-17.24,31.59-35.32,48.5-51.5c13.24-12.66,27.39-26.18,45.68-32.74c6.08,0.51,9.97-3.39,13.99-7.01
		c1.52-1.47,3.04-1.38,4.58-0.04c0.83,1.54,1.66,3.08,2.48,4.61c-0.03,16.37-0.05,32.74-0.08,49.12
		c-14.37,2.1-23.7,12.13-32.54,22.03c-12.36,13.83-27.16,25.41-37.41,41.21C1095.95,403.41,1085.26,407.24,1078.47,415.3z"/>
	<path class="st11" d="M1038.79,786.88c0.02,0.74,0.04,1.49,0.04,2.24c-13.24,17.18-21.81,37.17-33.27,55.44
		c-11.66,18.58-22.14,37.9-32.97,56.99c-1.07,1.89-0.96,4.45-1.39,6.7c-3.5-3.57-2.02-8.07-2.04-12.17c-0.33-48-0.55-96-0.79-144
		c4.92-2.51,8.3,0.79,12.31,2.83C1000.4,764.91,1018.16,778.52,1038.79,786.88z"/>
	<path class="st12" d="M1281.41,504.04c-17.94,6.25-35.12-1.36-52.54-3.29c-16.04-1.77-31.88-5.45-47.8-8.29
		c-2.94,2.29-5.56,2.05-7.81-0.98c-0.4-1.13-0.42-2.28-0.06-3.42c15.68-13.45,35.01-21.09,52.03-32.47
		c6.45-4.31,12.02-9.77,18.74-13.54c5.72-3.2,11.77-5.98,18.68-5.28C1270.42,458.77,1276.77,481.16,1281.41,504.04z"/>
	<path class="st13" d="M968.73,564.79c4.9-0.14,11.63,1.11,5.4-7.35c-0.56-0.76-0.57-3.03-0.13-3.26
		c11.52-6.1,5.59-18.94,10.83-27.8c9.15-15.49,8.34-35.02,18.63-50.41c2.01-3.01,1.49-8.4,6.28-8.61c4.43-0.19,3.5,5.31,5.8,7.77
		c2.04,2.18,3.13,5.27,4.64,7.95c8.54,14.58,14.73,30.15,19.3,46.38c-2.57,2.57-4.72,1.15-7.07-0.56
		c-8.28-6.01-11.96-4.67-11.98,5.49c-0.02,9.24-2.6,17.45-6.06,25.67c-1.99,2.88-6.1,2-8.24,4.63c-12.6-0.23-24.89,2.13-37.15,4.65
		C968.89,567.82,968.81,566.31,968.73,564.79z"/>
	<path class="st14" d="M1262.65,436.77c-28.41,13.67-53.18,33.47-80.94,48.23c-2.34,1.24-5.03,1.85-7.55,2.75
		c-0.58-0.43-0.83-0.91-0.74-1.45c0.1-0.56,0.23-0.84,0.39-0.84c19.7-26.76,33.44-57.18,51.97-84.66
		C1237.99,412.87,1251.75,423.35,1262.65,436.77z"/>
	<path class="st15" d="M1169.31,277.48c-1.53,0.01-3.06,0.02-4.58,0.04c-5.95-13.49-18.63-21.42-27.2-32.8
		c-5.17-6.87-9.91-12.83-6.26-21.91c2.33-5.78-1.14-9.26-5.27-12.78c-6.11-5.22-13.6-10.34-3.84-19.36c1.95-1.8-3.46-1.46-4-3.7
		c13.93-1.26,21.92,4.53,28.39,17.7C1158,227.95,1165.44,252.04,1169.31,277.48z"/>
	<path class="st16" d="M1220.57,832.93c5.55-21.91,12.04-43.54,21.05-64.29c2.73-6.29,1.8-13.63,6.83-19.33
		c2.55-2.89,4.39-3.82,7.64-2.25c9.26,27.01,0.31,49.55-17.57,69.56C1233.15,822.62,1226.58,827.53,1220.57,832.93z"/>
	<path class="st17" d="M1253.74,719.36c-1.14-2.38-3.2-4.67-1.11-7.48c12.02-16.13,16.48-35.54,22.67-54.06
		c3.95-11.81,0.65-24.65,1.44-37c3.67,7.74,4.59,15.98,4.75,24.45c0.21,11.12-1,22.31,1.76,33.35c1.06,4.26-0.01,8.93-3.11,11.9
		C1270.71,699.57,1264.33,711.4,1253.74,719.36z"/>
	<path class="st13" d="M969.19,501.41c-0.2,7.37-0.41,14.75-0.61,22.12c-3.55-20.4-1.48-40.99-1.62-61.47
		c-0.58-86.3-0.53-172.6-0.58-258.9c0-4.87-1.54-10.2,2.37-14.51c0.14,0.87,0.29,1.74,0.43,2.62c4.03,4.48,3.64,10.07,3.66,15.45
		c0.11,32.98,0.02,65.96,0.09,98.94c0.01,5.55-1.32,10.73-2.85,15.93c5.58,27.17,1.66,54.63,2.51,81.95
		C973.04,436.21,974.16,468.92,969.19,501.41z"/>
	<linearGradient id="SVGID_2_" gradientUnits="userSpaceOnUse" x1="952.4516" y1="327.1812" x2="954.6761" y2="327.1812">
		<stop  offset="1" style="stop-color:#000000"/>
		<stop  offset="1" style="stop-color:#000000"/>
	</linearGradient>
	<path class="st18" d="M952.86,465.64c-0.14-36.45-0.37-72.9-0.4-109.35c-0.04-55.85,0.05-111.71,0.09-167.56
		c2.26,2.09,2.13,4.81,2.12,7.56c-0.31,88.27-0.61,176.55-0.95,264.82C953.72,462.63,953.16,464.14,952.86,465.64z"/>
	<path class="st19" d="M1173.86,489.94c1.75,2.7,4.54,2.43,7.21,2.52c22.74,26.69,47.04,51.89,72.38,76.1
		c2.23,2.13,6.76,3.97,4.64,8.14c-1.59,3.14-5.52,2.09-8.53,2.14c-25.9,0.42-51.47-2.94-77.09-6.19
		c-15.27-1.94-30.77-1.72-46.15-2.74c-15.76-1.05-31.52-1.53-47.08-4.48c-3.79-0.72-7.07-0.78-7.8,4.14
		c-7.36-2.2-16.26-0.9-20.91-9.26c0.21-3.12,2.22-5.19,4.21-7.27c24.28-14.55,49.57-27.33,73.83-41.93
		c10.97-6.6,22.83-11.55,33.64-18.48C1165.56,490.46,1169.16,487.18,1173.86,489.94z"/>
	<path class="st20" d="M1101.79,581.21c31.02,8.77,62.1,17.37,90.7,32.87c1.69,0.92,3.95,1.57,3.1,3.95
		c-0.41,1.14-2.14,2.29-3.46,2.56c-9.7,2-15.87,10.22-24.86,13.82c-6.23,2.5-11.33,8.45-7.18,16.85
		c-18.56-14.89-39.9-26.7-52.84-47.78c-2.18-3.54-6.33-6.62-1.16-11.93C1110.61,586.9,1102.24,585.18,1101.79,581.21z"/>
	<path class="st21" d="M1055.34,555.59c-1.61,1.57-3.21,3.13-4.82,4.7c-3.2,0.18-6.75-1.17-9.2,2.18
		c-11.66,1.83-23.36,3.11-35.2,2.22c0.39-4.56,3.72-4.57,7.06-4.58c5.22-3.76,7.86-9.45,11.28-14.64c5.3-8.04,12.02-8.7,17.88-1.22
		C1046.07,549.02,1051.08,551.76,1055.34,555.59z"/>
	<path class="st20" d="M1078.46,571.87c7.53,1.89,15.09,3.72,20.99,9.29C1090.06,583.49,1084.92,576.17,1078.46,571.87z"/>
	<path class="st22" d="M672,723.14c66.79-52.72,131.82-104.05,196.85-155.38c1.17,0.32,2.34,0.64,3.5,0.95
		c0,15.79-0.43,31.6,0.08,47.37c1.69,52.5,3.74,105,5.57,157.5c0.16,4.63,2.25,10.84-7.03,8.09
		C805.53,762.3,740.02,743.12,672,723.14z"/>
	<path class="st22" d="M749.24,293.79c1.33-3.4-2.48-10.19,6.73-8c62.47,14.85,125.02,29.32,189.66,44.4
		c-5.89,5-10.27,9-14.92,12.64c-56.79,44.46-113.57,88.94-170.58,133.11c-3.39,2.62-6,9.08-12.47,5.61
		c1.6-4.15,0.82-8.48,0.83-12.72c0.06-54.49,0.02-108.98,0.08-163.47C748.57,301.51,747.84,297.58,749.24,293.79z"/>
	<path class="st22" d="M750.34,490.06c65.46-51.25,129.56-101.43,196.12-153.54c-3.29,10.16-5.6,17.64-8.12,25.05
		c-20.89,61.37-41.97,122.68-62.55,184.15c-3.1,9.25-5.22,12.36-15.31,6.44C824.72,531.18,788.3,511.34,750.34,490.06z"/>
	<path class="st22" d="M751.88,279.86c29.24-32.41,57.01-63.17,85.28-94.5c35.93,46.32,71.3,91.9,108.46,139.79
		C879.77,309.76,816.86,295.05,751.88,279.86z"/>
	<path class="st22" d="M670.46,727.84c67.26,19.74,132.26,38.82,197.11,57.85c0.26,3.57-2.2,3.17-3.81,3.63
		c-50.38,14.27-100.79,28.46-151.15,42.81c-5.19,1.48-8.82,3.22-11.11-4.49C691.78,794.92,681.3,762.44,670.46,727.84z"/>
	<path class="st22" d="M667.93,720.05c-9.08-25.63-17.63-50.04-26.42-74.36c-2.78-7.69,4-6.33,7.06-7.36
		c45.53-15.32,91.15-30.38,136.76-45.45c23.11-7.64,46.26-15.17,70.47-21.13C793.56,620.88,731.32,670.02,667.93,720.05z"/>
	<path class="st22" d="M706.28,576.21c-15.61,1.05-31.23,2.09-49.58,3.32c22.93-22.08,43.92-42.4,65.06-62.56
		c8.1-7.72,15.93-20.08,25.01-21.19c9.07-1.11,19.61,9.06,29.38,14.5c28.36,15.79,56.66,31.7,87.28,48.85
		c-9.12,1.44-15.95,2.52-22.78,3.6c-8.62,4.54-17.35,6.37-27.5,5.96c-16.51-0.67-32.98,2.84-49.49,4.35
		C744.56,574.79,725.5,576.7,706.28,576.21z"/>
	<path class="st22" d="M938.57,565.2c-17.74-1.65-35.47-3.52-53.23-4.85c-6.15-0.46-9.33-1.22-6.75-8.73
		c23.01-66.95,45.75-134,69.38-203.39c3.61,14.07-1.33,26.21,1.95,37.81c-1.69,5.72-0.83,11.58-0.84,17.37
		c-0.08,50.88-0.18,101.77,0.09,152.65C949.2,564.26,947.15,568.01,938.57,565.2z"/>
	<path class="st22" d="M881.23,792.51c21.72,37.87,42.31,73.79,63.86,111.38c-39.54,4.78-77.42,9.36-117.48,14.21
		C845.7,875.74,863.09,835,881.23,792.51z"/>
	<path class="st22" d="M842.73,184.58c34.67,3.25,66.32,6.17,97.96,9.23c3.92,0.38,8.94-0.67,8.93,6.18
		c-0.1,39.47-0.05,78.93-0.05,122.12C913.05,275.09,878.75,230.94,842.73,184.58z"/>
	<path class="st22" d="M883.25,782.82c-2.49-68.59-4.91-135.14-7.33-201.7c0.6-0.21,1.21-0.41,1.81-0.62
		c3.61,8.28,7.32,16.53,10.81,24.86c18.29,43.65,36.37,87.39,54.93,130.92c3.09,7.26,3.12,11.24-4.72,15.32
		C920.58,761.08,902.98,771.63,883.25,782.82z"/>
	<path class="st22" d="M873.74,797.7c-16.31,38.07-32.69,76.1-48.83,114.24c-1.83,4.32-3.17,5.96-8.35,4.25
		c-27.52-9.11-55.2-17.72-85.51-27.35c48.26-31.82,94.7-62.43,141.14-93.05C872.7,796.42,873.22,797.06,873.74,797.7z"/>
	<path class="st22" d="M876.62,564.37c23.04,1.97,44.21,3.87,65.39,5.54c4.28,0.34,6.13,1.8,6.13,6.34
		c-0.1,51.02-0.07,102.04-2.32,153.55C922.95,675.13,900.09,620.47,876.62,564.37z"/>
	<path class="st22" d="M842.7,569.41c-57.84,18.9-115.68,37.79-173.51,56.7c-9.1,2.97-18.19,5.97-28.9,9.48
		c3.36-15.91,6.48-30.15,9.31-44.45c0.98-4.96,4.14-5.62,8.36-6.04c20.46-2.06,40.89-4.39,61.33-6.62
		c13.45-5.36,27.96-5.35,41.87-6.08c20.64-1.09,40.99-6.92,61.86-4.1c2.95,0.4,4.89-2.56,7.4-2.75
		C834.85,565.2,840.48,562.31,842.7,569.41z"/>
	<path class="st22" d="M946.88,752.37c0,47.89,0,94.26,0,140.62c-0.66,0.16-1.32,0.33-1.98,0.49
		c-19.26-33.53-38.44-67.11-57.88-100.53c-2.46-4.24-1.31-5.99,2.37-8.05C908.26,774.32,927.06,763.6,946.88,752.37z"/>
	<path class="st22" d="M744.7,296.25c-0.01,36.93-0.01,73.86-0.02,110.78c-1.93,20.56-0.19,41.17-1.06,61.74
		c-0.12,2.92,3.58,8.04-3.06,9.04c-13.39-23.12-26.51-46.4-40.36-69.24c-3.66-6.04-3.98-10.68-1.04-16.96
		c14.78-31.61,29.14-63.42,43.64-95.16C743.31,295.25,743.95,295.23,744.7,296.25z"/>
	<path class="st22" d="M857.38,799.64c-41.8,27.51-82.43,53.95-122.64,80.99c-7.49,5.03-9.9,3.1-12.71-4.14
		c-3.93-10.12-8.5-20.01-13.16-29.82c-2.43-5.11-2.88-7.73,3.99-9.63c44.83-12.39,89.53-25.28,134.27-38
		C850.09,798.19,853.05,797.93,857.38,799.64z"/>
	<path class="st23" d="M738.01,494.46c-29.92,28.75-57.93,55.66-87.46,84.03c-4.44-21.24-8.29-40.42-12.55-59.52
		c-1.23-5.52,1.46-6.74,5.81-7.51C674.25,506.01,704.68,500.48,738.01,494.46z"/>
	<path class="st23" d="M637.4,507.81c5.88-21.15,11.29-40.14,16.39-59.22c1.31-4.91,2.12-7.87,8.16-4.27
		c24.57,14.63,49.37,28.86,76.86,44.85C703.72,495.62,671.48,501.55,637.4,507.81z"/>
	<path class="st24" d="M734.69,481.04c-23.35-13.59-46.66-27.25-70.08-40.71c-4.3-2.47-5.79-4.28-1.4-8.29
		c8.28-7.56,16.22-15.49,24.18-23.4c2.85-2.84,4.81-4.6,7.65,0.32c13.67,23.61,27.61,47.07,41.46,70.57
		C735.9,480.03,735.3,480.53,734.69,481.04z"/>
	<path class="st25" d="M937.57,188.63c-30.89-2.96-61.78-5.92-95.02-9.1c10.67-11.44,19.86-21.25,28.99-31.12
		c2.16-2.33,4.06-2.82,6.97-0.89c19.87,13.16,39.85,26.15,59.79,39.2C938.05,187.36,937.81,188,937.57,188.63z"/>
	<path class="st26" d="M880.93,143.42c15.85-2.37,28.67-4.35,41.52-6.16c2.92-0.41,5.97-1.14,7.49,3.12
		c5.12,14.39,10.57,28.67,16.95,45.85C924.06,171.41,903.84,158.29,880.93,143.42z"/>
	<path class="st27" d="M833.52,922.33c31.65-3.83,62.62-7.58,95.13-11.52c-6.47,6.34-13.91,7.94-20.35,11.23
		c-7.57,3.87-15.4,7.24-23.14,10.78C861.2,943.78,855.23,942.63,833.52,922.33z"/>
	<path class="st27" d="M751.9,272.54c3.4-13.93,5.96-24.43,8.52-34.93c0.64-2.63,1.08-5.26,3.72-6.92
		c16.31-10.23,32.57-20.53,48.85-30.81c0.72,0.78,1.43,1.55,2.15,2.33C794.82,224.81,774.5,247.41,751.9,272.54z"/>
	<path class="st28" d="M700.95,371.8c4.02-20.08,7.12-40.41,12.39-60.16c3.13-11.72,17.01-13.37,26.42-20.08
		c-12.26,26.8-24.52,53.61-36.79,80.41C702.3,371.92,701.63,371.86,700.95,371.8z"/>
	<path class="st29" d="M876.8,942c22.9-10.58,43.04-19.88,66.25-30.61c-6.11,10.89-10.79,19.03-15.26,27.29
		c-2.17,4-5.83,3.26-9.18,3.28C905.83,942.06,893.05,942,876.8,942z"/>
	<path class="st30" d="M690.16,814.34c-9.41-14.53-18.9-29.02-28.2-43.62c-3.91-6.14,0.29-12.03,1.19-17.97
		c0.75-4.98,2.04-9.87,5.04-15.35c7.97,25.36,15.94,50.71,23.91,76.07C691.44,813.76,690.8,814.05,690.16,814.34z"/>
	<linearGradient id="SVGID_3_" gradientUnits="userSpaceOnUse" x1="706.2916" y1="570.5416" x2="852.4816" y2="570.5416">
		<stop  offset="1" style="stop-color:#000000"/>
		<stop  offset="1" style="stop-color:#000000"/>
	</linearGradient>
	<path class="st31" d="M842.7,569.41c-11.68-5.03-23.13,0.41-34.59,1.17c-29.65,1.96-59.22,5.18-88.82,7.89
		c-3.88-3.37-8.71-1.24-13-2.26c26.71-4.72,53.8-6.14,80.75-8.6c11.63-1.06,23.08-4.31,35.4-1.68c4.64,0.99,11.62-4.11,18.22-3.2
		c3.18,3.77,8.07,0.78,11.82,3C850.15,569.62,846.42,569.52,842.7,569.41z"/>
	<path class="st32" d="M824.75,186.48c-20.28,12.89-38.05,24.18-56.53,35.92C775.86,193.61,782.26,189.43,824.75,186.48z"/>
	<linearGradient id="SVGID_4_" gradientUnits="userSpaceOnUse" x1="742.7884" y1="387.2461" x2="749.4911" y2="387.2461">
		<stop  offset="1" style="stop-color:#000000"/>
		<stop  offset="1" style="stop-color:#000000"/>
	</linearGradient>
	<path class="st33" d="M744.7,296.25c-0.64,0.02-1.28,0.08-1.91,0.2c-0.14-6.45,4.28-1.82,6.45-2.66
		c0.23,62.59,0.87,125.18-1.57,187.75c-0.11-57.41-0.18-114.83-0.43-172.24C747.21,304.91,749.18,299.88,744.7,296.25z"/>
	<linearGradient id="SVGID_5_" gradientUnits="userSpaceOnUse" x1="938.5717" y1="476.7143" x2="950.2618" y2="476.7143">
		<stop  offset="1" style="stop-color:#FFFFFF"/>
		<stop  offset="1" style="stop-color:#000000"/>
	</linearGradient>
	<path class="st34" d="M938.57,565.2c7.39,1.17,9.62-1.73,9.61-9.36c-0.09-52.38,0.31-104.76,0.64-157.14
		c0.03-4.22,0.71-8.43,1.09-12.65c0.11,57.53,0.18,115.07,0.35,172.6C950.29,568.19,945.89,569.15,938.57,565.2z"/>
	<path class="st35" d="M640.32,656.58c6.38,18.15,12.29,34.98,18.55,52.79C641.51,695.66,632.51,679.91,640.32,656.58z"/>
	<path class="st36" d="M801.29,916.41c-23.37,4.83-41.32-0.51-57.05-18.18C763.6,904.4,781.44,910.08,801.29,916.41z"/>
	<path class="st37" d="M705.62,324.45c-3.6,17.47-6.82,33.05-10.03,48.64C691.9,355.98,690.27,339.31,705.62,324.45z"/>
	<linearGradient id="SVGID_6_" gradientUnits="userSpaceOnUse" x1="740.5616" y1="443.056" x2="745.2174" y2="443.056">
		<stop  offset="1" style="stop-color:#000000"/>
		<stop  offset="1" style="stop-color:#000000"/>
	</linearGradient>
	<path class="st38" d="M740.56,477.82c4.93-2.4,2.3-6.86,2.49-10.3c1.11-20.14-0.72-40.36,1.63-60.48
		c0.15,22.23,0.36,44.47,0.35,66.71C745.04,476.06,746.59,481.54,740.56,477.82z"/>
	<path class="st39" d="M685.08,815.57c-10.27-4.92-17.23-12.15-16.92-26.5C674.63,799.22,679.85,807.4,685.08,815.57z"/>
	<path class="st40" d="M968.97,321.86c0.07-43.53,0.14-87.07,0.21-130.6c33.41-2.84,66.83-5.52,100.21-8.71
		c4.58-0.44,7.56,0.46,9.89,3.96c2.02,3.03-0.39,4.91-2.18,6.99c-24.64,28.63-49.2,57.33-72.43,87.15
		c-10.88,13.96-22.3,27.5-33.47,41.24C970.45,322.98,969.71,322.97,968.97,321.86z"/>
	<path class="st41" d="M969.19,501.41c-0.04-32.64-0.08-65.27-0.12-97.91c3.11-13.9,14.34-21.58,23.79-30.42
		c6.37-5.96,7.75-11.19,3.41-19.19c-5.91-10.89-2.89-18.13,8.76-20.87c8.71-2.05,12.86-9.56,19.82-13.47
		c4.81-3.8,11.15-2.24,16.34-4.7c9.65-0.16,7.66,6.39,3.77,9.47c-9.64,7.63-13.78,19.51-22.87,27.32
		c-5.67,4.87-5.05,9.74-0.48,14.95c4.61,5.25,10.18,9.38,15.36,13.97c4.11,3.64,9.86,6.59,8.86,13.69
		c-3.42,9.12-11.32,14.52-17.69,21.15c-4.59,4.78-9.09,9.38-10.68,16.18c-0.67,2.86-1.63,6.44-5.5,6.56
		c-3.32,0.11-3.79-3.35-5.32-5.46c-1.8-2.48-3.44-5.19-5.67-7.23c-4.67-4.27-6.75-3.9-9.11,3.14c-6.3,18.8-8.01,39.22-19.58,56.22
		C968.98,489.71,973.57,496.48,969.19,501.41z"/>
	<path class="st42" d="M1045.83,394.27c-6.4-10.6-18.06-15.62-25.96-24.7c-8.45-9.71-8.69-12.8,0.82-20.88
		c9.06-7.7,11.83-20.64,23.15-26.7c3.51-1.88,2.48-6.25-2.66-7.13c1.05-2.19,2.6-3.88,5.03-4.4c33.29-7.19,66.25-15.61,98.77-25.73
		c1.77-0.55,3.82-0.16,5.75-0.21c-13.64,8.77-23.61,22.44-38.83,29.13c-1.69,0.74-3.24,2.24-4.37,3.75
		c-15.28,20.43-33.97,37.72-51.27,56.28c-4.99,5.35-10.67,11.86-5.77,20.62C1048.94,394.29,1047.38,394.28,1045.83,394.27z"/>
	<path class="st43" d="M1024.84,319.55c-4.07,8.95-9.83,15.5-20.52,16.47c-8.63,0.78-10.86,8.81-7.1,13.3
		c11.17,13.35,4.07,22.11-5.93,29.63c-9.14,6.87-15.09,16.13-22.22,24.54c-0.03-27.21-0.07-54.43-0.1-81.64
		c0.75,0.01,1.49,0.01,2.23,0.01c1.41,6.54,5.67,4.04,9.8,3.43C995.59,323.19,1010.22,321.44,1024.84,319.55z"/>
	<path class="st44" d="M1118.13,840.48c5.3,3.87,10.84,7.45,15.84,11.67c8.93,7.54,8.1,12.44-2.22,16.82
		c-2.82,1.2-6.51,2.37-7.84,4.69c-6.61,11.5-15.05,19.97-28.13,24.38c-5.99,2.02-2.53,9.74-3.31,14.88
		c-10.45-17.72-17.63-36.98-24.88-56.06c-4.98-13.11,0.71-22.92,13.76-29.39c2.65-1.32,6.38-1.27,6.39-5.57
		C1101.83,821.59,1110.54,830.12,1118.13,840.48z"/>
	<path class="st45" d="M1118.13,840.48c-10.2-6.08-18.58-15.15-30.39-18.58c-14.8-10.13-29.61-20.27-44.41-30.4
		c6.93-4.6,13.13,0.24,19.27,1.99c29.46,8.4,58.77,17.3,88.14,26.02c6.49,6.78,3.37,10.69-3.53,14.73
		C1138.05,839.61,1128.7,842.5,1118.13,840.48z"/>
	<path class="st46" d="M1078.47,415.3c-0.22-4.16,0.76-7.62,5.01-9.46c10.04-4.35,15.15-13.7,22.18-21.28
		c13.77-14.85,27-30.23,42.04-43.94c7.22-6.58,13.23-13.26,24.02-9.41c-0.56,23.51,2.4,47.24-4.55,70.37
		c-1.37,4.58-2.71,9.14-6.69,11.86c-13.68,9.36-19.72,25.54-32.25,35.9c-0.7,0.58-0.55,2.19-0.8,3.32
		c-2.68,2.55-5.23,1.01-7.81-0.22c-11.24-8.51-23.69-15.67-31.8-27.79C1085.56,420.68,1082.43,417.57,1078.47,415.3z"/>
	<path class="st47" d="M1120.44,450.34c2.33,0.78,4.66,1.55,6.99,2.33c12.89,10.92,25.79,21.82,38.65,32.77
		c2.67,2.28,5.17-0.28,7.74,0.02c0.1,0.76,0.21,1.53,0.34,2.28c-0.15,0.72-0.24,1.46-0.29,2.19
		c-39.51,21.88-79.02,43.77-118.52,65.65c-5.99,0.35-10.43-0.38-13.8-7.14c-5.05-10.15-10.66-9.34-16.07,1.05
		c-2.68,5.16-3.33,12.73-12.29,10.61c0.22-9.76,5.58-18.61,4.24-28.88c-0.58-4.41,1.69-10.37,7.67-11.56
		c5.34-1.06,6.92,3.77,9.01,7.35c1.09,1.87,2.76,2.53,4.74,2.75c5.81,0.76,10.3-1.36,14.35-5.61
		c18.52-19.49,38.66-37.53,52.65-60.99C1109.21,457.51,1114.83,453.78,1120.44,450.34z"/>
	<path class="st48" d="M1120.44,450.34c-6.81,9.88-14.01,19.64-21.45,28.85c-14.49,17.94-31.43,33.89-47.38,50.64
		c-4.24,4.46-8.55,7.33-12.78-0.05c-7.93-14.88-15.24-30.01-18.66-46.69c16.01,4.1,22.62-8.03,29.8-18.06
		c8.9-12.44,22.92-20.42,29.43-34.97c1.14-2.55,5.53-3.63,8.41-5.39C1098.7,433.22,1109.57,441.78,1120.44,450.34z"/>
</g>
</svg>
