<svg xmlns="http://www.w3.org/2000/svg" viewBox="0 0 863.63 1081"><defs><style>.cls-1{fill:#7997cd;}.cls-2{fill:#fff;}.cls-2,.cls-22,.cls-23{stroke:#fff;stroke-miterlimit:10;}.cls-3{fill:#90b3df;}.cls-4{fill:#cc5280;}.cls-5{fill:#7965a7;}.cls-6{fill:#8477b4;}.cls-7{fill:#9f79ba;}.cls-8{fill:#87a9d9;}.cls-9{fill:#9384ba;}.cls-10{fill:#ab578b;}.cls-11{fill:#bb5f8f;}.cls-12{fill:#7872b2;}.cls-13{fill:#a1a6e5;}.cls-14{fill:#a66698;}.cls-15{fill:#b499d6;}.cls-16{fill:#d27296;}.cls-17{fill:#9c8fbf;}.cls-18{fill:#afc3e1;}.cls-19{fill:#9a9ad8;}.cls-20{fill:#7fabdc;}.cls-21{fill:#957cb0;}.cls-23{fill:none;}.cls-24{fill:#c7386d;}.cls-25{fill:#b84a7d;}.cls-26{fill:#be5586;}.cls-27{fill:#c14176;}.cls-28{fill:#8c7ab4;}.cls-29{fill:#a595c6;}.cls-30{fill:#ad6fb2;}.cls-31{fill:#8d6da0;}.cls-32{fill:#9c619e;}</style></defs><g id="Layer_3" data-name="Layer 3"><path class="cls-1" d="M995.46,820.42c-2.38-6.46,1.5-12.68.75-19.07,13.91-23.56,22.55-49.53,32.67-74.69,17.64-43.88,36.29-87.32,54.9-130.78,3.91-9.13,7.08-18.12,7-28.1,2.85-5.23,7.38-5.3,12.34-4.07,8.74,5.65,18.63,8.53,28.4,11.71,3.35,1.22,6.74,2.4,10,3.84,9.4,4.22,17.44,11.51,28.29,12.49a14.38,14.38,0,0,1,4.1,1.23c4.46,2.89,9.63,6.86,8.22,12-4.76,17.48,6.8,27.17,17.12,36.57,16.66,15.19,34.52,29.08,52.43,42.83,36,28.85,72.31,57.24,108.06,86.35,4.71,3.83,10.22,7.3,9.56,14.74-1.12,4.76-4.84,6.2-9,7.33-83.64,22.67-166.59,47.68-249.5,72.89-6.45,2-13.24,1.59-19.63,3.58-9.29,1-16.64-3.89-24-8.39C1043.76,846.52,1019.8,833.13,995.46,820.42Z" transform="translate(-550.18 0.5)"/><path class="cls-2" d="M974.92,440.71c0,46.39.15,92.79,0,139.19q-.54,215.08-1.14,430.17c0,26.34-18.92,43.65-29.4,65-2.14,4.33-8.22,3.54-12.83,3.63-23.16.46-46.33.73-69.49,1.33-5.37.13-10.21-.59-14.29-4.22-30.17-26.72-66.28-32.72-104.77-29.72-10.41.81-18.1-3.49-26.84-8.5-33-18.91-56.63-44.91-67.27-82-6.58-22.91-27.06-34.15-41.76-50.33-19.75-21.74-29.54-48.71-24.1-77.33,8.4-44.26,10.26-44.18-20-76.72-8.59-9.24-12-18.56-12.28-31.49-.81-36.53,6-71.75,14.56-106.8a66.18,66.18,0,0,0,.42-31.92c-4-17-6.85-34.38-11.23-51.32-5-19.43-5.91-38.33,2.11-57.18a53.29,53.29,0,0,0,3.75-13.38c5.74-41.19,24.72-74.45,58.53-98.92,6.12-4.44,7.86-10.18,7.13-17.45-.68-6.66.5-13.63-.92-20.06-7.51-33.91,4.88-62.13,23.55-89.1,10.14-14.63,26.2-21.23,39.7-31.24,8-5.9,12.83-12.12,14.58-22.08,6.07-34.7,18.27-67.32,34.68-98.46,3.74-7.08,8.17-10.83,16.45-11.48,11.77-.91,23.38-4.53,35.13-4.81,22.06-.54,40.06-8.19,51.83-27.1,17.11-27.48,43.48-34,73.29-36.85C947.07-1.56,947-3,958.05,27.17c5.65,15.43,11,31,16.46,46.46,2.44,3.77,1.47,8,1.47,12.05q.09,171.4,0,342.81C976,432.58,976.4,436.74,974.92,440.71Z" transform="translate(-550.18 0.5)"/><path class="cls-3" d="M1172.35,593.91l-3.09-.08c-10-2.52-18.6-8.11-27.83-12.31-3.4-.11-7,.42-9.31-3.07-2.82-10.48,5.1-9.93,10.68-9.09,25.52,3.82,51.25,4.9,76.91,5.89,44.78,1.71,89,9.65,133.76,10.93,5.55.16,11.33,1.13,17.24-2-1-7.25-6.64-11.31-11.41-15.47-27.64-24.13-52.19-51.17-75.55-79.35-3.33-4-9.49-7.28-5.55-14.29,9.64-4.08,19.21-.72,28.53.89,33.07,5.68,65.73,14.13,99.64,13.74,1.53,0,2.81,1.12,4.08,2,8.82,17.22-2.26,33-4.14,49.28-2,17.22-7,34.08-10.53,51.14-2.49,12.15,3.31,23.15,5.25,34.7,1.1,6.56,2.17,13.12,3.26,19.68,10.25,43.9-5.38,82.32-25.61,119.62-2,3.61-4.19,6.91-4.89,11q-.54,5.94-1.09,11.87c-5.27,1-3.07-4.69-5.54-6.2q-47.65-38.55-95.32-77.12c-7.53-6.12-14.81-12.54-22.21-18.83-6.52-11.86-5.12-17.6,7.94-26,9.84-6.35,20.68-11.15,29.66-19.42-5.31-6.45-12.53-9-19.64-11.81-24.44-9.59-49.32-18-74.39-25.75A93.67,93.67,0,0,1,1172.35,593.91Z" transform="translate(-550.18 0.5)"/><path class="cls-4" d="M996,73.53c7.7-21.77,15.55-43.5,23-65.33,2.17-6.32,6.35-7.16,12-6.3,20.3,3.12,40.59,6.25,60.92,9.1,4.54.63,7.35,3.39,10.2,6.31,3.95,4,8.47,7.79,11.47,12.48,18.82,29.59,47,40.6,80.44,41.51,3.94,1.8,13.78-1.25,7.2,9.13-4.68,7.37-.44,12.89,4.85,17.45,7.73,6.67,11.07,14.47,8.79,24.69-1.86,8.33,1.75,15,7.12,21.11,7.84,8.85,15.28,18,23.66,26.47,6,6.06,12.75,12.41,11.74,22.47-4.13,8.46-11.69,11.19-20.25,12.3-9.06-.65-17.06,3.46-25.36,5.91-32.52,9.65-65.35,18-98.42,25.51-7,1.58-14.21,2.62-20.2,7.12-7.57,4.16-16.1,4.93-24.24,7.13-18.15,3.84-36.55,6.1-54.92,8.46-6.53.83-13.72,2.44-16.93-6.21,6.32-18.45,20.81-31.27,32.21-46.18,32.56-42.58,67.91-82.89,101.61-124.56,1.92-2.37,4.17-4.57,4.55-7.92-1.83-4.68-5.9-3.48-9.22-3.18-36.37,3.15-72.8,5.56-109.13,9.12-7.16.7-14.4,1.92-21-2.36A2.86,2.86,0,0,1,996,73.53Z" transform="translate(-550.18 0.5)"/><path class="cls-5" d="M1163.61,1043.61c-15.47,9.92-31,19.77-46.38,29.77-4.55,3-9.43,3.53-14.65,3.45-20.47-.3-40.95-.7-61.42-.62-10.69,0-18.28-3.2-23.05-13.76-5.45-12.07-12.54-23.39-18.91-35-3.54-5.89-.34-10.92,2.29-15.82,23.53-44,49.75-86.46,73.89-130.11,2.94-5.33,5.7-11.12,12.22-13.27a13.9,13.9,0,0,1,8.88,1.75c15.57,9.49,30.81,19.49,45.87,29.78,5.45,3.73,11.13,7.19,13.2,14.1.47,5.83-4,7.67-7.93,10.2-18.35,11.89-21.83,21.05-13.74,41.51,8.91,22.51,18.61,44.7,28.6,66.77C1164,1036,1165.48,1039.63,1163.61,1043.61Z" transform="translate(-550.18 0.5)"/><path class="cls-6" d="M1094.84,872.67c-2-1-4-2.09-5.95-3.15-1.05-.64-1.41-1.29-1.08-2s.68-1,1-1c39.23-11.42,78.49-22.68,117.67-34.3,29.24-8.66,58-19.06,87.64-26.24,22.5-5.45,43.82-15.47,67.2-17.29,3.7-.29,5.25-2.68,5.81-6l5.54,6.22q2.08,12.44,4.2,24.84c-6.39,6.14-10.17,13.44-13.06,22-8.64,25.7-18.73,50.93-25.89,77.15-1.49,5.5-4.69,10.18-8.14,14.66l-6.2,6.78c-15.38,3.31-28.94-4.38-42.9-8.1-14.74-3.94-29.32-8.59-44.26-11.88-44.23-13.27-89-24.74-132.71-39.8C1100.78,873.59,1098,872.55,1094.84,872.67Z" transform="translate(-550.18 0.5)"/><path class="cls-7" d="M1265.14,197.39c13.22,8.78,28.79,15.41,39.15,26.81,18,19.76,35.64,41.13,34.93,70.64-.49,20-1.66,39.94-2.52,59.92,1,13.69-9.16,22.61-15.45,32.53-17.14,27-28,58.19-51.81,80.95-4.54,3.08-9.47,4.43-14.16.93q-25-18.63-48.41-39.31c-2.3-2-3.12-5.18-3.12-8.37,6.46-18,20.59-31.37,33.26-43.54,18.15-17.43,22-37.66,23.29-59.77,1.17-19.51.35-39.13.11-58.74-.9-14.95-.47-29.89-.32-44.81C1260.17,208.5,1260,202.1,1265.14,197.39Z" transform="translate(-550.18 0.5)"/><path class="cls-8" d="M1092.19,569.07c8.83,14.88-4.19,25.3-8.61,36.8-15.24,39.61-32.31,78.5-48.61,117.7-9.63,23.18-19.11,46.45-28.66,69.67-1.88,4.56-4.65,8-10.1,8.11q0-111.58.08-223.16c14.9-11.6,32.48-10.42,49.81-10.47,10.12,0,20.24.49,30.33-1.4C1081.85,565.29,1087.57,564.52,1092.19,569.07Z" transform="translate(-550.18 0.5)"/><path class="cls-9" d="M1237.24,909.8l86.36,24.58c-2.15,5.21-4.71,10.29-6.39,15.64-11.85,37.68-33.63,66.85-69.36,85.35-8.47,4.38-16.14,7.72-25.79,7.6-19.47-.26-39,.39-58.45.65-1.2-3.32-2.42-6.65-3.63-10-4.94-18.19-4.47-19.67,11.51-27.5,8-3.93,15.08-8.7,19.62-16.56s10.3-13.92,18.67-17.54c10-4.33,8.17-10,1.75-16.32-6-5.94-16-7.7-18.26-17.52,4.11-5.65,10.22-3.44,15.64-4C1225.74,932.34,1235.12,924.27,1237.24,909.8Z" transform="translate(-550.18 0.5)"/><path class="cls-10" d="M996,572.14q-.09-27.33-.2-54.69c-2.32-8.41-.57-17-1.12-25.47,2.94-36.13,20.53-68.15,29.07-102.76,2.59-10.5,11.5-11.6,19.83-1.85s11.35,9.35,17.52-2.07c8.57-15.84,23.77-26.65,35.6-40.12a11,11,0,0,1,6.68-1.27c15.76,5.53,26,19.44,40.48,26.93,5.41,4.36,11.67,8.13,11.47,16.42-18.69,24.36-41.48,45.2-60,69.71-8.33,11-19,13.07-31.43,8.71-6-3.22-7.85-10.56-14.15-15.1-7.38,12.12-14.37,23.65-17.24,36.58-5.47,24.5-14.94,47.61-22.29,71.45C1007.79,566.47,1012.39,579.79,996,572.14Z" transform="translate(-550.18 0.5)"/><path class="cls-11" d="M1141.43,374l-37.07-27.84c-7.07-3.92-6.39-9.76-3.9-16,2.72-6.8,7-12.54,11.93-17.86,21.37-22.85,41.88-46.82,64.29-68.27,17.55-16.78,36.31-34.7,60.56-43.4,8.06.68,13.21-4.49,18.54-9.29,2-1.95,4-1.83,6.07,0l3.29,6.11q-.06,32.55-.11,65.11c-19,2.79-31.41,16.08-43.13,29.21-16.39,18.33-36,33.68-49.59,54.62C1164.61,358.22,1150.44,363.29,1141.43,374Z" transform="translate(-550.18 0.5)"/><path class="cls-12" d="M1088.83,866.55c0,1,.06,2,.06,3-17.55,22.77-28.91,49.27-44.11,73.49-15.45,24.63-29.35,50.24-43.7,75.55-1.42,2.5-1.27,5.9-1.84,8.88-4.64-4.73-2.68-10.7-2.71-16.13q-.66-95.44-1-190.89c6.53-3.33,11,1,16.32,3.75C1037.94,837.42,1061.49,855.47,1088.83,866.55Z" transform="translate(-550.18 0.5)"/><path class="cls-13" d="M1410.45,491.61c-23.78,8.29-46.55-1.8-69.64-4.36-21.27-2.35-42.26-7.22-63.37-11-3.9,3-7.37,2.72-10.35-1.3a7,7,0,0,1-.08-4.53c20.79-17.83,46.41-28,69-43,8.55-5.72,15.93-12.95,24.84-17.95,7.59-4.24,15.61-7.93,24.77-7A663.28,663.28,0,0,1,1410.45,491.61Z" transform="translate(-550.18 0.5)"/><path class="cls-14" d="M996,572.14c6.5-.18,15.42,1.47,7.16-9.74-.74-1-.76-4-.17-4.32,15.27-8.09,7.41-25.11,14.35-36.85,12.13-20.54,11.06-46.43,24.7-66.83,2.66-4,2-11.13,8.33-11.41,5.87-.25,4.63,7,7.68,10.3,2.71,2.89,4.15,7,6.15,10.54,11.33,19.32,19.53,40,25.59,61.48-3.41,3.41-6.26,1.52-9.37-.74-11-8-15.86-6.19-15.88,7.27,0,12.25-3.45,23.14-8,34-2.64,3.82-8.08,2.65-10.92,6.14-16.7-.3-33,2.82-49.25,6.16C996.17,576.16,996.07,574.16,996,572.14Z" transform="translate(-550.18 0.5)"/><path class="cls-15" d="M1385.59,402.44c-37.67,18.12-70.5,44.37-107.3,63.93-3.1,1.65-6.67,2.45-10,3.65a2,2,0,0,1-1-1.92c.13-.75.31-1.12.52-1.12,26.11-35.47,44.33-75.8,68.89-112.22C1352.9,370.76,1371.14,384.65,1385.59,402.44Z" transform="translate(-550.18 0.5)"/><path class="cls-16" d="M1261.85,191.28l-6.07.05c-7.89-17.88-24.69-28.39-36-43.48-6.86-9.1-13.14-17-8.3-29,3.09-7.66-1.51-12.28-7-16.94-8.1-6.92-18-13.71-5.09-25.67,2.59-2.38-4.59-1.93-5.3-4.9,18.46-1.67,29.06,6,37.63,23.46A328.29,328.29,0,0,1,1261.85,191.28Z" transform="translate(-550.18 0.5)"/><path class="cls-17" d="M1329.8,927.59c7.36-29,16-57.71,27.91-85.22,3.62-8.34,2.38-18.07,9-25.62,3.38-3.84,5.82-5.07,10.13-3,12.27,35.81.41,65.69-23.29,92.21C1346.48,913.93,1337.77,920.43,1329.8,927.59Z" transform="translate(-550.18 0.5)"/><path class="cls-18" d="M1373.77,777c-1.51-3.15-4.24-6.19-1.47-9.91,15.94-21.38,21.85-47.11,30-71.67,5.24-15.65.87-32.67,1.91-49,4.87,10.26,6.09,21.18,6.3,32.41.28,14.74-1.33,29.57,2.33,44.21,1.41,5.64,0,11.84-4.12,15.77C1396.27,750.81,1387.81,766.49,1373.77,777Z" transform="translate(-550.18 0.5)"/><path class="cls-14" d="M996.57,488.13q-.39,14.65-.81,29.32c-4.7-27-2-54.34-2.14-81.49-.77-114.4-.71-228.8-.77-343.2,0-6.45-2.05-13.52,3.14-19.23.18,1.15.38,2.3.57,3.47,5.34,5.94,4.82,13.35,4.85,20.48.15,43.72,0,87.44.12,131.16,0,7.35-1.75,14.22-3.78,21.11,7.4,36,2.2,72.42,3.33,108.64C1001.67,401.7,1003.16,445.06,996.57,488.13Z" transform="translate(-550.18 0.5)"/><path class="cls-2" d="M974.92,440.71c-.18-48.32-.49-96.64-.53-145q-.07-111,.12-222.12c3,2.77,2.83,6.38,2.81,10q-.62,175.53-1.26,351C976.06,436.72,975.32,438.72,974.92,440.71Z" transform="translate(-550.18 0.5)"/><path class="cls-19" d="M1267.88,472.92c2.32,3.58,6,3.22,9.56,3.34a1358.26,1358.26,0,0,0,96,100.88c3,2.82,9,5.26,6.15,10.79-2.11,4.16-7.32,2.77-11.31,2.84-34.33.55-68.23-3.9-102.19-8.21-20.24-2.57-40.79-2.28-61.18-3.63-20.89-1.39-41.78-2-62.4-5.94-5-1-9.38-1-10.34,5.49-9.76-2.92-21.56-1.19-27.72-12.28.28-4.13,2.94-6.88,5.58-9.63,32.18-19.29,65.71-36.23,97.87-55.59,14.54-8.74,30.26-15.31,44.59-24.49C1256.88,473.61,1261.65,469.26,1267.88,472.92Z" transform="translate(-550.18 0.5)"/><path class="cls-20" d="M1172.35,593.91c41.12,11.63,82.32,23,120.23,43.57,2.24,1.22,5.24,2.08,4.11,5.24-.54,1.51-2.84,3-4.59,3.39-12.85,2.65-21,13.55-32.95,18.32-8.26,3.32-15,11.2-9.52,22.34-24.6-19.74-52.89-35.4-70-63.34-2.89-4.69-8.4-8.77-1.54-15.81C1184,601.45,1172.94,599.17,1172.35,593.91Z" transform="translate(-550.18 0.5)"/><path class="cls-21" d="M1110.77,560l-6.39,6.23c-4.24.24-8.94-1.55-12.19,2.89-15.46,2.42-31,4.12-46.66,2.94.51-6,4.93-6.06,9.35-6.07,6.92-5,10.42-12.53,15-19.41,7-10.66,15.93-11.53,23.7-1.62C1098.48,551.24,1105.13,554.87,1110.77,560Z" transform="translate(-550.18 0.5)"/><path class="cls-20" d="M1141.42,581.53c10,2.5,20,4.93,27.83,12.31C1156.8,596.93,1150,587.23,1141.42,581.53Z" transform="translate(-550.18 0.5)"/><path class="cls-22" d="M602.61,782.05l260.95-206,4.64,1.26c0,20.93-.57,41.89.11,62.79,2.24,69.6,5,139.19,7.38,208.79.21,6.14,3,14.37-9.32,10.72C779.62,834,692.78,808.54,602.61,782.05Z" transform="translate(-550.18 0.5)"/><path class="cls-22" d="M705,212.9c1.77-4.51-3.28-13.51,8.92-10.6,82.82,19.68,165.73,38.86,251.42,58.85-7.81,6.63-13.61,11.93-19.78,16.76Q832.64,366.32,719.44,454.36c-4.5,3.48-8,12-16.53,7.44,2.12-5.5,1.09-11.24,1.1-16.86q.12-108.36.1-216.7C704.11,223.14,703.15,217.93,705,212.9Z" transform="translate(-550.18 0.5)"/><path class="cls-23" d="M706.46,473.08l260-203.53c-4.36,13.46-7.42,23.38-10.76,33.2C928,384.1,900,465.38,872.76,546.86c-4.11,12.27-6.92,16.39-20.3,8.54C805.06,527.59,756.78,501.29,706.46,473.08Z" transform="translate(-550.18 0.5)"/><path class="cls-22" d="M708.5,194.44c38.76-43,75.58-83.74,113-125.27,47.63,61.4,94.52,121.82,143.78,185.3Z" transform="translate(-550.18 0.5)"/><path class="cls-22" d="M600.57,788.28,861.86,865c.35,4.73-2.91,4.2-5.05,4.81q-100.17,28.38-200.36,56.75c-6.88,2-11.7,4.27-14.73-5.95C628.83,877.21,614.94,834.15,600.57,788.28Z" transform="translate(-550.18 0.5)"/><path class="cls-22" d="M597.22,778c-12-34-23.37-66.34-35-98.57-3.68-10.2,5.31-8.4,9.36-9.76q90.54-30.46,181.29-60.25c30.64-10.13,61.33-20.11,93.42-28C763.75,646.5,681.25,711.64,597.22,778Z" transform="translate(-550.18 0.5)"/><path class="cls-22" d="M648.05,587.28l-65.72,4.4c30.4-29.27,58.22-56.2,86.24-82.93,10.74-10.23,21.12-26.62,33.16-28.09s26,12,38.94,19.22c37.6,20.94,75.11,42,115.7,64.76l-30.19,4.77c-11.43,6-23,8.45-36.46,7.9-21.88-.89-43.72,3.77-65.6,5.77C698.8,585.4,673.53,587.93,648.05,587.28Z" transform="translate(-550.18 0.5)"/><path class="cls-22" d="M956,572.69c-23.52-2.19-47-4.67-70.56-6.43-8.15-.61-12.37-1.62-8.95-11.58,30.5-88.75,60.65-177.63,92-269.61,4.79,18.65-1.76,34.74,2.59,50.12-2.24,7.58-1.1,15.35-1.12,23-.1,67.44-.24,134.9.12,202.35C970.07,571.44,967.35,576.41,956,572.69Z" transform="translate(-550.18 0.5)"/><path class="cls-22" d="M880,874c28.79,50.2,56.09,97.82,84.65,147.65C912.21,1028,862,1034.07,808.89,1040.5Z" transform="translate(-550.18 0.5)"/><path class="cls-22" d="M828.93,68.13c46,4.31,87.92,8.18,129.86,12.24,5.2.5,11.85-.89,11.84,8.19-.13,52.32-.07,104.63-.07,161.88C922.15,188.11,876.68,129.59,828.93,68.13Z" transform="translate(-550.18 0.5)"/><path class="cls-22" d="M882.65,861.17c-3.3-90.93-6.51-179.15-9.72-267.38.8-.28,1.61-.54,2.4-.82,4.79,11,9.7,21.91,14.33,32.95,24.25,57.87,48.21,115.85,72.82,173.55,4.09,9.63,4.13,14.9-6.26,20.31C932.13,832.35,908.8,846.33,882.65,861.17Z" transform="translate(-550.18 0.5)"/><path class="cls-22" d="M870,880.89c-21.62,50.47-43.33,100.88-64.73,151.44-2.42,5.73-4.2,7.9-11.07,5.63-36.48-12.07-73.17-23.49-113.35-36.25L868,878.36Z" transform="translate(-550.18 0.5)"/><path class="cls-22" d="M873.86,571.59c30.54,2.61,58.6,5.13,86.68,7.34,5.67.45,8.13,2.39,8.13,8.4-.14,67.64-.1,135.27-3.08,203.55C935.28,718.41,905,646,873.86,571.59Z" transform="translate(-550.18 0.5)"/><path class="cls-22" d="M828.89,578.27q-115,37.58-230,75.16c-12.07,3.94-24.12,7.91-38.31,12.57,4.45-21.09,8.59-40,12.34-58.93,1.3-6.57,5.49-7.45,11.08-8,27.12-2.73,54.21-5.82,81.3-8.78,17.83-7.1,37.06-7.09,55.5-8.06,27.36-1.44,54.34-9.17,82-5.43,3.91.53,6.48-3.4,9.81-3.65C818.49,572.69,826,568.86,828.89,578.27Z" transform="translate(-550.18 0.5)"/><path class="cls-22" d="M967,820.8v186.41l-2.63.65c-25.53-44.45-51-89-76.72-133.27-3.27-5.62-1.74-7.94,3.14-10.67C915.8,849.9,940.72,835.69,967,820.8Z" transform="translate(-550.18 0.5)"/><path class="cls-22" d="M699,216.16q0,73.44,0,146.85c-2.56,27.26-.25,54.58-1.41,81.85-.16,3.87,4.75,10.66-4,12-17.75-30.65-35.15-61.51-53.51-91.78-4.85-8-5.27-14.16-1.37-22.49,19.59-41.9,38.62-84.07,57.85-126.14C697.14,214.84,698,214.81,699,216.16Z" transform="translate(-550.18 0.5)"/><path class="cls-22" d="M848.35,883.46C792.94,919.93,739.08,955,685.78,990.82c-9.93,6.67-13.12,4.11-16.85-5.48-5.21-13.42-11.26-26.53-17.44-39.53-3.22-6.78-3.82-10.25,5.29-12.77,59.42-16.42,118.68-33.51,178-50.37C838.69,881.54,842.61,881.2,848.35,883.46Z" transform="translate(-550.18 0.5)"/><path class="cls-22" d="M690.12,478.91,574.18,590.3c-5.89-28.15-11-53.58-16.64-78.9-1.63-7.31,1.94-8.93,7.7-9.95C605.6,494.22,645.93,486.89,690.12,478.91Z" transform="translate(-550.18 0.5)"/><path class="cls-22" d="M556.75,496.61c7.79-28,15-53.21,21.72-78.5,1.74-6.51,2.81-10.44,10.82-5.66,32.57,19.39,65.45,38.25,101.89,59.45Z" transform="translate(-550.18 0.5)"/><path class="cls-22" d="M685.72,461.12c-31-18-61.86-36.12-92.9-54-5.7-3.28-7.68-5.68-1.86-11,11-10,21.5-20.54,32-31,3.78-3.77,6.38-6.1,10.14.42,18.13,31.3,36.6,62.4,55,93.55Z" transform="translate(-550.18 0.5)"/><path class="cls-22" d="M954.66,73.5l-126-12.06C842.84,46.27,855,33.27,867.13,20.18c2.86-3.08,5.38-3.73,9.23-1.18,26.34,17.45,52.83,34.67,79.26,52C955.29,71.82,955,72.67,954.66,73.5Z" transform="translate(-550.18 0.5)"/><path class="cls-22" d="M879.57,13.57c21-3.14,38-5.77,55-8.17,3.87-.54,7.92-1.51,9.93,4.14,6.79,19.08,14,38,22.47,60.78C936.75,50.67,909.94,33.28,879.57,13.57Z" transform="translate(-550.18 0.5)"/><path class="cls-22" d="M816.73,1046.1l126.1-15.27c-8.58,8.41-18.44,10.53-27,14.89-10,5.13-20.41,9.6-30.67,14.29C853.42,1074.54,845.5,1073,816.73,1046.1Z" transform="translate(-550.18 0.5)"/><path class="cls-22" d="M708.53,184.73c4.51-18.46,7.9-32.38,11.29-46.3.85-3.49,1.43-7,4.93-9.17q32.44-20.35,64.76-40.85l2.85,3.09Z" transform="translate(-550.18 0.5)"/><path class="cls-22" d="M641,316.31c5.33-26.62,9.44-53.57,16.42-79.75,4.15-15.53,22.55-17.72,35-26.61q-24.39,53.28-48.77,106.59Z" transform="translate(-550.18 0.5)"/><path class="cls-22" d="M874.1,1072.18l87.82-40.58c-8.1,14.44-14.3,25.23-20.23,36.18-2.88,5.3-7.73,4.32-12.17,4.34C912.58,1072.26,895.64,1072.18,874.1,1072.18Z" transform="translate(-550.18 0.5)"/><path class="cls-22" d="M626.69,903c-12.48-19.26-25.06-38.47-37.39-57.82-5.18-8.14.39-16,1.58-23.82A58.29,58.29,0,0,1,597.56,801q15.86,50.41,31.7,100.84C628.38,902.18,627.53,902.57,626.69,903Z" transform="translate(-550.18 0.5)"/><path class="cls-2" d="M766.15,574.52a6.93,6.93,0,0,1,1.44,0,17.74,17.74,0,0,0,4,0c1.2-.13,2.38-.4,3.57-.6a51.92,51.92,0,0,1,9.66-.44,19.14,19.14,0,0,0,3.55-.12c1.25-.21,2.34-.86,3.55-1.14a9.49,9.49,0,0,1,2.85.19,71.72,71.72,0,0,1,7.28,1.2c6.15,1.32,15.4-5.44,24.15-4.24,4.22,5,10.7,1,15.67,4-3.09,5.16-8,5-13,4.88-15.48-6.67-30.66.54-45.85,1.55-39.3,2.6-78.5,6.86-117.74,10.46-5.14-4.47-11.55-1.65-17.23-3,35.4-6.26,71.32-8.14,107-11.4,2.92-.26,5.82-.63,8.72-1,5.26-.73,10.85-.21,16.14-.21h10.56" transform="translate(-550.18 0.5)"/><path class="cls-22" d="M805.1,70.65l-74.94,47.62C740.29,80.1,748.77,74.56,805.1,70.65Z" transform="translate(-550.18 0.5)"/><path class="cls-2" d="M699,216.16a16.72,16.72,0,0,0-2.53.27c-.18-8.55,5.68-2.41,8.55-3.53.31,83,1.16,165.94-2.08,248.89q-.21-114.17-.57-228.33C702.31,227.64,704.92,221,699,216.16Z" transform="translate(-550.18 0.5)"/><path class="cls-2" d="M956,572.69c9.8,1.55,12.75-2.3,12.74-12.41-.12-69.44.41-138.87.85-208.31,0-5.59.94-11.17,1.44-16.77q.22,114.41.47,228.8C971.52,576.65,965.68,577.92,956,572.69Z" transform="translate(-550.18 0.5)"/><path class="cls-22" d="M560.62,693.82c8.45,24.06,16.29,46.37,24.59,70C562.19,745.63,550.26,724.75,560.62,693.82Z" transform="translate(-550.18 0.5)"/><path class="cls-22" d="M774,1038.26c-31,6.4-54.77-.68-75.63-24.1C724,1022.33,747.69,1029.86,774,1038.26Z" transform="translate(-550.18 0.5)"/><path class="cls-22" d="M647.18,253.55c-4.77,23.15-9,43.81-13.3,64.47C629,295.34,626.83,273.24,647.18,253.55Z" transform="translate(-550.18 0.5)"/><path class="cls-2" d="M693.5,456.85c6.53-3.18,3-9.09,3.3-13.65,1.47-26.7-1-53.5,2.16-80.17.2,29.47.48,59,.46,88.43C699.44,454.52,701.49,461.79,693.5,456.85Z" transform="translate(-550.18 0.5)"/><path class="cls-22" d="M620,904.58c-13.61-6.52-22.84-16.11-22.43-35.13C606.1,882.91,613,893.75,620,904.58Z" transform="translate(-550.18 0.5)"/><path class="cls-24" d="M996.28,250.11q.13-86.55.28-173.12c44.29-3.77,88.59-7.32,132.84-11.55,6.07-.58,10,.61,13.11,5.25,2.68,4-.52,6.51-2.89,9.27-32.66,38-65.22,76-96,115.52-14.42,18.51-29.56,36.46-44.36,54.67C998.24,251.6,997.26,251.58,996.28,250.11Z" transform="translate(-550.18 0.5)"/><path class="cls-25" d="M996.57,488.13q-.08-64.9-.16-129.8c4.12-18.42,19-28.6,31.54-40.32,8.44-7.9,10.27-14.83,4.52-25.44-7.84-14.43-3.83-24,11.61-27.66,11.55-2.72,17.05-12.68,26.27-17.86,6.38-5,14.79-3,21.67-6.23,12.79-.21,10.15,8.47,5,12.55-12.78,10.12-18.26,25.87-30.31,36.22-7.52,6.45-6.7,12.91-.64,19.82s13.49,12.43,20.36,18.52c5.45,4.82,13.07,8.73,11.75,18.14-4.54,12.09-15,19.25-23.45,28-6.09,6.34-12,12.43-14.16,21.45-.89,3.79-2.16,8.54-7.29,8.69-4.4.15-5-4.44-7-7.23-2.39-3.29-4.56-6.88-7.52-9.59-6.19-5.66-9-5.17-12.08,4.16-8.35,24.93-10.62,52-25.95,74.53C996.29,472.62,1002.38,481.59,996.57,488.13Z" transform="translate(-550.18 0.5)"/><path class="cls-26" d="M1098.17,346.1c-8.49-14.05-23.94-20.71-34.42-32.74-11.2-12.87-11.52-17,1.09-27.68,12-10.21,15.68-27.36,30.69-35.4,4.65-2.49,3.29-8.28-3.53-9.45,1.39-2.9,3.45-5.14,6.67-5.83,44.13-9.53,87.82-20.69,130.93-34.11,2.35-.73,5.06-.21,7.62-.28-18.08,11.63-31.29,29.75-51.47,38.62a15.61,15.61,0,0,0-5.79,5c-20.26,27.08-45,50-68,74.61-6.61,7.09-14.14,15.72-7.65,27.33Z" transform="translate(-550.18 0.5)"/><path class="cls-27" d="M1070.34,247.05c-5.39,11.86-13,20.55-27.2,21.83-11.44,1-14.4,11.68-9.41,17.63,14.81,17.7,5.39,29.31-7.86,39.28-12.12,9.11-20,21.38-29.46,32.53q-.06-54.1-.13-108.22h3c1.86,8.67,7.51,5.36,13,4.55C1031.57,251.87,1051,249.56,1070.34,247.05Z" transform="translate(-550.18 0.5)"/><path class="cls-28" d="M1194,937.6c7,5.13,14.37,9.88,21,15.47,11.83,10,10.73,16.49-3,22.3-3.74,1.59-8.63,3.14-10.39,6.22-8.76,15.24-20,26.47-37.29,32.31-7.94,2.68-3.35,12.92-4.39,19.73-13.85-23.49-23.37-49-33-74.32-6.6-17.37.94-30.38,18.24-38.95,3.51-1.75,8.46-1.69,8.47-7.39C1172.4,912.56,1184,923.87,1194,937.6Z" transform="translate(-550.18 0.5)"/><path class="cls-29" d="M1194,937.6c-13.52-8.06-24.63-20.08-40.29-24.63l-58.87-40.3c9.19-6.1,17.41.32,25.55,2.64,39,11.14,77.9,22.93,116.84,34.49,8.6,9,4.46,14.17-4.68,19.53C1220.41,936.45,1208,940.28,1194,937.6Z" transform="translate(-550.18 0.5)"/><path class="cls-30" d="M1141.43,374c-.29-5.52,1-10.1,6.65-12.54,13.3-5.77,20.08-18.16,29.4-28.21,18.25-19.69,35.79-40.08,55.73-58.25,9.57-8.72,17.53-17.58,31.84-12.47-.74,31.16,3.18,62.62-6,93.28-1.82,6.07-3.6,12.12-8.87,15.72C1232,383.92,1224,405.37,1207.4,419.1c-.93.77-.73,2.9-1.06,4.4-3.56,3.38-6.94,1.34-10.36-.29-14.9-11.28-31.4-20.77-42.15-36.84A32.79,32.79,0,0,0,1141.43,374Z" transform="translate(-550.18 0.5)"/><path class="cls-31" d="M1197.07,420.43l9.27,3.09Q1232,445.23,1257.57,467c3.54,3,6.85-.38,10.26,0,.13,1,.28,2,.45,3a20.52,20.52,0,0,0-.38,2.91q-78.57,43.5-157.11,87c-7.94.47-13.83-.5-18.3-9.46-6.69-13.46-14.13-12.38-21.3,1.39-3.55,6.84-4.41,16.88-16.29,14.07.29-12.94,7.4-24.67,5.62-38.29-.77-5.84,2.24-13.74,10.17-15.32,7.08-1.41,9.17,5,11.94,9.74,1.44,2.48,3.66,3.36,6.28,3.65,7.71,1,13.66-1.81,19-7.44,24.55-25.84,51.24-49.75,69.79-80.85C1182.18,429.93,1189.63,425,1197.07,420.43Z" transform="translate(-550.18 0.5)"/><path class="cls-32" d="M1197.07,420.43c-9,13.09-18.57,26-28.43,38.24-19.21,23.78-41.67,44.93-62.81,67.13-5.62,5.91-11.34,9.72-16.94-.07-10.52-19.72-20.21-39.78-24.74-61.89,21.22,5.44,30-10.64,39.5-23.94,11.8-16.49,30.39-27.07,39-46.36,1.51-3.38,7.33-4.81,11.15-7.14Q1175.47,403.4,1197.07,420.43Z" transform="translate(-550.18 0.5)"/><path class="cls-22" d="M783,579.82" transform="translate(-550.18 0.5)"/><path class="cls-2" d="M801.57,571.35l-18.19,1.57a9.9,9.9,0,0,1-2.23.44,13,13,0,0,1-2.34,0c-.34.07-.68.14-1,.23-.93.25-1.87.55-2.78.89-.23.09-.48.18-.73.29l21.07,2,1.23-.13a1.1,1.1,0,0,1,1,.33l3.88.36,11.25-4,11.37-4C823.42,569.38,819.83,569.75,801.57,571.35Z" transform="translate(-550.18 0.5)"/><path class="cls-2" d="M764.13,574.26" transform="translate(-550.18 0.5)"/><line class="cls-23" x1="216.46" y1="575.82" x2="241.46" y2="575.82"/><path class="cls-23" d="M773.11,573.84c6.15-.41,13,.48,18.88-1.61l-.88-.27" transform="translate(-550.18 0.5)"/></g></svg>